TwilioSansMono-Light.ufo
<glyph name="numbersign" format="2">
	<unicode hex="0023"/>
	<advance width="600"/>
	<outline>
		<contour>
			<point x="44" y="222" type="line"/>
			<point x="44" y="174" type="line"/>
			<point x="154" y="174" type="line"/>
			<point x="137" y="0" type="line"/>
			<point x="190" y="0" type="line"/>
			<point x="206" y="174" type="line"/>
			<point x="361" y="174" type="line"/>
			<point x="345" y="0" type="line"/>
			<point x="395" y="0" type="line"/>
			<point x="412" y="174" type="line"/>
			<point x="532" y="174" type="line"/>
			<point x="532" y="222" type="line"/>
			<point x="416" y="222" type="line"/>
			<point x="441" y="476" type="line"/>
			<point x="556" y="476" type="line"/>
			<point x="556" y="525" type="line"/>
			<point x="446" y="525" type="line"/>
			<point x="461" y="684" type="line"/>
			<point x="409" y="684" type="line"/>
			<point x="394" y="525" type="line"/>
			<point x="239" y="525" type="line"/>
			<point x="254" y="684" type="line"/>
			<point x="203" y="684" type="line"/>
			<point x="188" y="525" type="line"/>
			<point x="68" y="525" type="line"/>
			<point x="68" y="476" type="line"/>
			<point x="183" y="476" type="line"/>
			<point x="158" y="222" type="line"/>
		</contour>
		<contour>
			<point x="211" y="222" type="line"/>
			<point x="235" y="476" type="line"/>
			<point x="390" y="476" type="line"/>
			<point x="366" y="222" type="line"/>
		</contour>
	</outline>
</glyph>
<glyph name="percent" format="2">
	<unicode hex="0025"/>
	<advance width="600"/>
	<outline>
		<contour>
			<point x="167" y="338" type="curve" smooth="yes"/>
			<point x="245" y="338"/>
			<point x="298" y="395"/>
			<point x="298" y="517" type="curve" smooth="yes"/>
			<point x="298" y="639"/>
			<point x="245" y="696"/>
			<point x="167" y="696" type="curve" smooth="yes"/>
			<point x="88" y="696"/>
			<point x="36" y="638"/>
			<point x="36" y="516" type="curve" smooth="yes"/>
			<point x="36" y="396"/>
			<point x="86" y="338"/>
		</contour>
		<contour>
			<point x="400" y="420" type="line"/>
			<point x="445" y="420" type="line"/>
			<point x="570" y="684" type="line"/>
			<point x="517" y="684" type="line"/>
		</contour>
		<contour>
			<point x="167" y="374" type="curve" smooth="yes"/>
			<point x="113" y="374"/>
			<point x="79" y="416"/>
			<point x="79" y="516" type="curve" smooth="yes"/>
			<point x="79" y="618"/>
			<point x="112" y="661"/>
			<point x="167" y="661" type="curve" smooth="yes"/>
			<point x="221" y="661"/>
			<point x="255" y="617"/>
			<point x="255" y="517" type="curve" smooth="yes"/>
			<point x="255" y="416"/>
			<point x="221" y="374"/>
		</contour>
		<contour>
			<point x="433" y="-12" type="curve" smooth="yes"/>
			<point x="511" y="-12"/>
			<point x="564" y="45"/>
			<point x="564" y="167" type="curve" smooth="yes"/>
			<point x="564" y="289"/>
			<point x="511" y="346"/>
			<point x="433" y="346" type="curve" smooth="yes"/>
			<point x="354" y="346"/>
			<point x="302" y="288"/>
			<point x="302" y="166" type="curve" smooth="yes"/>
			<point x="302" y="46"/>
			<point x="352" y="-12"/>
		</contour>
		<contour>
			<point x="433" y="24" type="curve" smooth="yes"/>
			<point x="379" y="24"/>
			<point x="345" y="66"/>
			<point x="345" y="166" type="curve" smooth="yes"/>
			<point x="345" y="268"/>
			<point x="378" y="311"/>
			<point x="433" y="311" type="curve" smooth="yes"/>
			<point x="487" y="311"/>
			<point x="521" y="267"/>
			<point x="521" y="167" type="curve" smooth="yes"/>
			<point x="521" y="66"/>
			<point x="487" y="24"/>
		</contour>
		<contour>
			<point x="30" y="0" type="line"/>
			<point x="83" y="0" type="line"/>
			<point x="201" y="263" type="line"/>
			<point x="155" y="263" type="line"/>
		</contour>
	</outline>
	<guideline x="234" y="583" angle="90"/>
	<guideline x="253" y="517" angle="0"/>
	<guideline x="165" y="617" angle="90"/>
	<guideline x="253" y="617" angle="0"/>
</glyph>
<glyph name="quotesingle" format="2">
	<unicode hex="0027"/>
	<advance width="600"/>
	<outline>
		<contour>
			<point x="277" y="510" type="line"/>
			<point x="322" y="510" type="line"/>
			<point x="343" y="750" type="line"/>
			<point x="257" y="750" type="line"/>
		</contour>
	</outline>
</glyph>
<glyph name="asterisk" format="2">
	<unicode hex="002A"/>
	<advance width="600"/>
	<outline>
		<contour>
			<point x="488" y="175" type="line"/>
			<point x="520" y="231" type="line"/>
			<point x="339" y="320" type="line"/>
			<point x="520" y="410" type="line"/>
			<point x="488" y="466" type="line"/>
			<point x="320" y="354" type="line"/>
			<point x="332" y="555" type="line"/>
			<point x="268" y="555" type="line"/>
			<point x="281" y="353" type="line"/>
			<point x="111" y="465" type="line"/>
			<point x="79" y="410" type="line"/>
			<point x="261" y="320" type="line"/>
			<point x="80" y="230" type="line"/>
			<point x="112" y="174" type="line"/>
			<point x="281" y="286" type="line"/>
			<point x="269" y="84" type="line"/>
			<point x="333" y="84" type="line"/>
			<point x="320" y="286" type="line"/>
		</contour>
	</outline>
	<guideline x="326" y="550" angle="90"/>
</glyph>
<glyph name="hyphen" format="2">
	<unicode hex="002D"/>
	<advance width="600"/>
	<outline>
		<contour>
			<point x="472" y="339" type="line"/>
			<point x="128" y="339" type="line"/>
			<point x="128" y="288" type="line"/>
			<point x="472" y="288" type="line"/>
		</contour>
	</outline>
</glyph>
<glyph name="period" format="2">
	<unicode hex="002E"/>
	<advance width="600"/>
	<outline>
		<contour>
			<point x="300" y="-12" type="curve" smooth="yes"/>
			<point x="338" y="-12"/>
			<point x="359" y="2"/>
			<point x="359" y="42" type="curve" smooth="yes"/>
			<point x="359" y="81"/>
			<point x="338" y="95"/>
			<point x="300" y="95" type="curve" smooth="yes"/>
			<point x="262" y="95"/>
			<point x="241" y="81"/>
			<point x="241" y="42" type="curve" smooth="yes"/>
			<point x="241" y="2"/>
			<point x="262" y="-12"/>
		</contour>
	</outline>
	<guideline x="289" y="94" angle="90"/>
</glyph>
<glyph name="zero" format="2">
	<unicode hex="0030"/>
	<advance width="600"/>
	<outline>
		<contour>
			<point x="300" y="-14" type="curve" smooth="yes"/>
			<point x="445" y="-14"/>
			<point x="538" y="105"/>
			<point x="538" y="335" type="curve" smooth="yes"/>
			<point x="538" y="349" type="line" smooth="yes"/>
			<point x="538" y="578"/>
			<point x="445" y="698"/>
			<point x="300" y="698" type="curve" smooth="yes"/>
			<point x="155" y="698"/>
			<point x="62" y="578"/>
			<point x="62" y="349" type="curve" smooth="yes"/>
			<point x="62" y="335" type="line" smooth="yes"/>
			<point x="62" y="105"/>
			<point x="155" y="-14"/>
		</contour>
		<contour>
			<point x="300" y="35" type="curve" smooth="yes"/>
			<point x="187" y="35"/>
			<point x="120" y="136"/>
			<point x="120" y="339" type="curve" smooth="yes"/>
			<point x="120" y="346" type="line" smooth="yes"/>
			<point x="120" y="549"/>
			<point x="187" y="650"/>
			<point x="300" y="650" type="curve" smooth="yes"/>
			<point x="412" y="650"/>
			<point x="480" y="549"/>
			<point x="480" y="346" type="curve" smooth="yes"/>
			<point x="480" y="339" type="line" smooth="yes"/>
			<point x="480" y="136"/>
			<point x="412" y="35"/>
		</contour>
		<contour>
			<point x="300" y="286" type="curve" smooth="yes"/>
			<point x="338" y="286"/>
			<point x="362" y="301"/>
			<point x="362" y="344" type="curve" smooth="yes"/>
			<point x="362" y="387"/>
			<point x="337" y="400"/>
			<point x="300" y="400" type="curve" smooth="yes"/>
			<point x="262" y="400"/>
			<point x="238" y="387"/>
			<point x="238" y="344" type="curve" smooth="yes"/>
			<point x="238" y="301"/>
			<point x="262" y="286"/>
		</contour>
	</outline>
	<guideline x="351" y="357" angle="90"/>
</glyph>
<glyph name="two" format="2">
	<unicode hex="0032"/>
	<advance width="600"/>
	<outline>
		<contour>
			<point x="78" y="0" type="line"/>
			<point x="518" y="0" type="line"/>
			<point x="518" y="50" type="line"/>
			<point x="154" y="50" type="line"/>
			<point x="278" y="144" type="line" smooth="yes"/>
			<point x="394" y="232"/>
			<point x="501" y="327"/>
			<point x="501" y="486" type="curve" smooth="yes"/>
			<point x="501" y="614"/>
			<point x="434" y="698"/>
			<point x="283" y="698" type="curve" smooth="yes"/>
			<point x="189" y="698"/>
			<point x="116" y="659"/>
			<point x="81" y="626" type="curve"/>
			<point x="81" y="570" type="line"/>
			<point x="136" y="622"/>
			<point x="204" y="649"/>
			<point x="278" y="649" type="curve" smooth="yes"/>
			<point x="399" y="649"/>
			<point x="444" y="583"/>
			<point x="444" y="479" type="curve" smooth="yes"/>
			<point x="444" y="340"/>
			<point x="348" y="262"/>
			<point x="244" y="179" type="curve" smooth="yes"/>
			<point x="78" y="47" type="line"/>
		</contour>
	</outline>
</glyph>
<glyph name="five" format="2">
	<unicode hex="0035"/>
	<advance width="600"/>
	<outline>
		<contour>
			<point x="299" y="-14" type="curve" smooth="yes"/>
			<point x="431" y="-14"/>
			<point x="519" y="73"/>
			<point x="519" y="212" type="curve" smooth="yes"/>
			<point x="519" y="341"/>
			<point x="442" y="410"/>
			<point x="308" y="410" type="curve" smooth="yes"/>
			<point x="246" y="410"/>
			<point x="197" y="399"/>
			<point x="157" y="383" type="curve"/>
			<point x="157" y="635" type="line"/>
			<point x="508" y="635" type="line"/>
			<point x="508" y="684" type="line"/>
			<point x="106" y="684" type="line"/>
			<point x="106" y="314" type="line"/>
			<point x="162" y="342"/>
			<point x="225" y="361"/>
			<point x="295" y="361" type="curve" smooth="yes"/>
			<point x="414" y="361"/>
			<point x="463" y="305"/>
			<point x="463" y="208" type="curve" smooth="yes"/>
			<point x="463" y="95"/>
			<point x="398" y="35"/>
			<point x="301" y="35" type="curve" smooth="yes"/>
			<point x="233" y="35"/>
			<point x="156" y="60"/>
			<point x="82" y="130" type="curve"/>
			<point x="82" y="71" type="line"/>
			<point x="137" y="20"/>
			<point x="208" y="-14"/>
		</contour>
	</outline>
</glyph>
<glyph name="less" format="2">
	<unicode hex="003C"/>
	<advance width="600"/>
	<outline>
		<contour>
			<point x="520" y="59" type="line"/>
			<point x="520" y="119" type="line"/>
			<point x="131" y="313" type="line"/>
			<point x="520" y="509" type="line"/>
			<point x="520" y="568" type="line"/>
			<point x="80" y="343" type="line"/>
			<point x="80" y="284" type="line"/>
		</contour>
	</outline>
	<guideline x="80" y="333" angle="0"/>
</glyph>
<glyph name="question" format="2">
	<unicode hex="003F"/>
	<advance width="600"/>
	<outline>
		<contour>
			<point x="236" y="182" type="curve"/>
			<point x="284" y="182" type="line"/>
			<point x="285" y="235" type="line" smooth="yes"/>
			<point x="288" y="383"/>
			<point x="484" y="396"/>
			<point x="484" y="552" type="curve" smooth="yes"/>
			<point x="484" y="641"/>
			<point x="420" y="698"/>
			<point x="291" y="698" type="curve" smooth="yes"/>
			<point x="187" y="698"/>
			<point x="128" y="661"/>
			<point x="100" y="641" type="curve"/>
			<point x="100" y="587" type="line"/>
			<point x="143" y="622"/>
			<point x="207" y="650"/>
			<point x="288" y="650" type="curve" smooth="yes"/>
			<point x="385" y="650"/>
			<point x="428" y="611"/>
			<point x="428" y="548" type="curve" smooth="yes"/>
			<point x="428" y="414"/>
			<point x="234" y="405"/>
			<point x="234" y="223" type="curve" smooth="yes"/>
			<point x="234" y="209"/>
			<point x="235" y="196"/>
		</contour>
		<contour>
			<point x="262" y="-12" type="curve" smooth="yes"/>
			<point x="297" y="-12"/>
			<point x="315" y="2"/>
			<point x="315" y="36" type="curve" smooth="yes"/>
			<point x="315" y="70"/>
			<point x="297" y="84"/>
			<point x="262" y="84" type="curve" smooth="yes"/>
			<point x="227" y="84"/>
			<point x="209" y="70"/>
			<point x="209" y="36" type="curve" smooth="yes"/>
			<point x="209" y="2"/>
			<point x="227" y="-12"/>
		</contour>
	</outline>
</glyph>
<glyph name="D" format="2">
	<unicode hex="0044"/>
	<advance width="600"/>
	<outline>
		<contour>
			<point x="81" y="0" type="line"/>
			<point x="270" y="0" type="line" smooth="yes"/>
			<point x="432" y="0"/>
			<point x="541" y="107"/>
			<point x="541" y="333" type="curve" smooth="yes"/>
			<point x="541" y="351" type="line" smooth="yes"/>
			<point x="541" y="578"/>
			<point x="430" y="684"/>
			<point x="269" y="684" type="curve" smooth="yes"/>
			<point x="81" y="684" type="line"/>
		</contour>
		<contour>
			<point x="261" y="635" type="line" smooth="yes"/>
			<point x="396" y="635"/>
			<point x="482" y="548"/>
			<point x="482" y="351" type="curve" smooth="yes"/>
			<point x="482" y="335" type="line" smooth="yes"/>
			<point x="482" y="136"/>
			<point x="402" y="50"/>
			<point x="262" y="50" type="curve" smooth="yes"/>
			<point x="136" y="50" type="line"/>
			<point x="136" y="635" type="line"/>
		</contour>
	</outline>
	<anchor name="bottom" x="323" y="0"/>
	<anchor name="center" x="157" y="342"/>
	<anchor name="top" x="262" y="684"/>
	<guideline x="170" y="423" angle="90"/>
	<guideline x="701" y="360" angle="0"/>
</glyph>
<glyph name="E" format="2">
	<unicode hex="0045"/>
	<advance width="600"/>
	<outline>
		<contour>
			<point x="101" y="684" type="line"/>
			<point x="101" y="0" type="line"/>
			<point x="523" y="0" type="line"/>
			<point x="523" y="50" type="line"/>
			<point x="156" y="50" type="line"/>
			<point x="156" y="319" type="line"/>
			<point x="482" y="319" type="line"/>
			<point x="482" y="368" type="line"/>
			<point x="156" y="368" type="line"/>
			<point x="156" y="635" type="line"/>
			<point x="515" y="635" type="line"/>
			<point x="515" y="684" type="line"/>
		</contour>
	</outline>
	<anchor name="bottom" x="320" y="0"/>
	<anchor name="ogonek" x="523" y="0"/>
	<anchor name="top" x="308" y="684"/>
	<guideline x="192" y="510" angle="0"/>
	<guideline x="311" y="403" angle="90"/>
</glyph>
<glyph name="G" format="2">
	<unicode hex="0047"/>
	<advance width="600"/>
	<outline>
		<contour>
			<point x="305" y="-13" type="curve" smooth="yes"/>
			<point x="449" y="-13"/>
			<point x="542" y="98"/>
			<point x="542" y="286" type="curve" smooth="yes"/>
			<point x="542" y="362" type="line"/>
			<point x="284" y="362" type="line"/>
			<point x="284" y="314" type="line"/>
			<point x="489" y="314" type="line"/>
			<point x="489" y="286" type="line" smooth="yes"/>
			<point x="489" y="128"/>
			<point x="418" y="35"/>
			<point x="305" y="35" type="curve" smooth="yes"/>
			<point x="177" y="35"/>
			<point x="109" y="136"/>
			<point x="109" y="339" type="curve" smooth="yes"/>
			<point x="109" y="346" type="line" smooth="yes"/>
			<point x="109" y="543"/>
			<point x="169" y="650"/>
			<point x="323" y="650" type="curve" smooth="yes"/>
			<point x="396" y="650"/>
			<point x="467" y="624"/>
			<point x="511" y="577" type="curve"/>
			<point x="511" y="641" type="line"/>
			<point x="474" y="671"/>
			<point x="410" y="698"/>
			<point x="321" y="698" type="curve" smooth="yes"/>
			<point x="140" y="698"/>
			<point x="51" y="575"/>
			<point x="51" y="349" type="curve" smooth="yes"/>
			<point x="51" y="335" type="line" smooth="yes"/>
			<point x="51" y="102"/>
			<point x="141" y="-13"/>
		</contour>
	</outline>
	<anchor name="bottom" x="308" y="0"/>
	<anchor name="top" x="315" y="684"/>
	<guideline x="355" y="126" angle="90"/>
</glyph>
<glyph name="I" format="2">
	<unicode hex="0049"/>
	<advance width="600"/>
	<outline>
		<contour>
			<point x="91" y="0" type="line"/>
			<point x="509" y="0" type="line"/>
			<point x="509" y="49" type="line"/>
			<point x="328" y="49" type="line"/>
			<point x="328" y="636" type="line"/>
			<point x="509" y="636" type="line"/>
			<point x="509" y="684" type="line"/>
			<point x="91" y="684" type="line"/>
			<point x="91" y="636" type="line"/>
			<point x="273" y="636" type="line"/>
			<point x="273" y="49" type="line"/>
			<point x="91" y="49" type="line"/>
		</contour>
	</outline>
	<anchor name="bottom" x="301" y="0"/>
	<anchor name="ogonek" x="508" y="0"/>
	<anchor name="top" x="300" y="684"/>
	<guideline x="398" y="268" angle="90"/>
	<guideline x="31" y="0" angle="0"/>
</glyph>
<glyph name="J" format="2">
	<unicode hex="004A"/>
	<advance width="600"/>
	<outline>
		<contour>
			<point x="262" y="-13" type="curve" smooth="yes"/>
			<point x="398" y="-13"/>
			<point x="494" y="57"/>
			<point x="494" y="211" type="curve" smooth="yes"/>
			<point x="494" y="684" type="line"/>
			<point x="90" y="684" type="line"/>
			<point x="90" y="635" type="line"/>
			<point x="439" y="635" type="line"/>
			<point x="439" y="212" type="line" smooth="yes"/>
			<point x="439" y="90"/>
			<point x="374" y="36"/>
			<point x="260" y="36" type="curve" smooth="yes"/>
			<point x="195" y="36"/>
			<point x="138" y="54"/>
			<point x="90" y="83" type="curve"/>
			<point x="90" y="28" type="line"/>
			<point x="134" y="3"/>
			<point x="189" y="-13"/>
		</contour>
	</outline>
	<anchor name="bottom" x="91" y="0"/>
	<anchor name="top" x="298" y="684"/>
	<guideline x="406" y="398" angle="0"/>
	<guideline x="113" y="84" angle="0"/>
</glyph>
<glyph name="K" format="2">
	<unicode hex="004B"/>
	<advance width="600"/>
	<outline>
		<contour>
			<point x="96" y="0" type="line"/>
			<point x="151" y="0" type="line"/>
			<point x="151" y="202" type="line"/>
			<point x="287" y="369" type="line"/>
			<point x="496" y="0" type="line"/>
			<point x="561" y="0" type="line"/>
			<point x="326" y="409" type="line"/>
			<point x="547" y="685" type="line"/>
			<point x="480" y="685" type="line"/>
			<point x="151" y="269" type="line"/>
			<point x="151" y="685" type="line"/>
			<point x="96" y="685" type="line"/>
		</contour>
	</outline>
	<anchor name="bottom" x="310" y="0"/>
	<anchor name="top" x="350" y="684"/>
	<guideline x="538" y="720" angle="90"/>
	<guideline x="560" y="0" angle="0"/>
</glyph>
<glyph name="L" format="2">
	<unicode hex="004C"/>
	<advance width="600"/>
	<outline>
		<contour>
			<point x="107" y="0" type="line"/>
			<point x="530" y="0" type="line"/>
			<point x="530" y="50" type="line"/>
			<point x="162" y="50" type="line"/>
			<point x="162" y="684" type="line"/>
			<point x="107" y="684" type="line"/>
		</contour>
	</outline>
	<anchor name="bottom" x="318" y="0"/>
	<anchor name="caron" x="324" y="684"/>
	<anchor name="center" x="130" y="314"/>
	<anchor name="top" x="135" y="684"/>
	<guideline x="144" y="364" angle="0"/>
	<guideline x="212" y="152" angle="90"/>
</glyph>
<glyph name="P" format="2">
	<unicode hex="0050"/>
	<advance width="600"/>
	<outline>
		<contour>
			<point x="94" y="0" type="line"/>
			<point x="149" y="0" type="line"/>
			<point x="149" y="239" type="line"/>
			<point x="326" y="239" type="line" smooth="yes"/>
			<point x="461" y="239"/>
			<point x="550" y="331"/>
			<point x="550" y="465" type="curve" smooth="yes"/>
			<point x="550" y="599"/>
			<point x="461" y="684"/>
			<point x="326" y="684" type="curve" smooth="yes"/>
			<point x="94" y="684" type="line"/>
		</contour>
		<contour>
			<point x="322" y="635" type="line" smooth="yes"/>
			<point x="430" y="635"/>
			<point x="492" y="568"/>
			<point x="492" y="465" type="curve" smooth="yes"/>
			<point x="492" y="362"/>
			<point x="432" y="288"/>
			<point x="322" y="288" type="curve" smooth="yes"/>
			<point x="149" y="288" type="line"/>
			<point x="149" y="635" type="line"/>
		</contour>
	</outline>
	<anchor name="bottom" x="191" y="0"/>
	<anchor name="top" x="341" y="684"/>
	<guideline x="115" y="126" angle="0"/>
	<guideline x="588" y="476" angle="131.801"/>
	<guideline x="461" y="684" angle="90"/>
</glyph>
<glyph name="Q" format="2">
	<unicode hex="0051"/>
	<advance width="600"/>
	<outline>
		<contour>
			<point x="324" y="-61" type="curve" smooth="yes"/>
			<point x="503" y="-119" type="line"/>
			<point x="528" y="-72" type="line"/>
			<point x="311" y="-8" type="line"/>
			<point x="470" y="0"/>
			<point x="538" y="163"/>
			<point x="538" y="343" type="curve" smooth="yes"/>
			<point x="538" y="362" type="line" smooth="yes"/>
			<point x="538" y="579"/>
			<point x="446" y="698"/>
			<point x="302" y="698" type="curve" smooth="yes"/>
			<point x="155" y="698"/>
			<point x="62" y="578"/>
			<point x="62" y="352" type="curve" smooth="yes"/>
			<point x="62" y="333" type="line" smooth="yes"/>
			<point x="62" y="136"/>
			<point x="126" y="3"/>
		</contour>
		<contour>
			<point x="298" y="35" type="curve" smooth="yes"/>
			<point x="187" y="35"/>
			<point x="121" y="143"/>
			<point x="121" y="335" type="curve" smooth="yes"/>
			<point x="121" y="351" type="line" smooth="yes"/>
			<point x="121" y="549"/>
			<point x="187" y="650"/>
			<point x="301" y="650" type="curve" smooth="yes"/>
			<point x="412" y="650"/>
			<point x="479" y="545"/>
			<point x="479" y="361" type="curve" smooth="yes"/>
			<point x="479" y="345" type="line" smooth="yes"/>
			<point x="479" y="156"/>
			<point x="406" y="35"/>
		</contour>
	</outline>
	<anchor name="bottom" x="293" y="0"/>
	<anchor name="top" x="287" y="684"/>
	<guideline x="398" y="361" angle="0"/>
	<guideline x="675" y="352" angle="90"/>
</glyph>
<glyph name="R" format="2">
	<unicode hex="0052"/>
	<advance width="600"/>
	<outline>
		<contour>
			<point x="87" y="0" type="line"/>
			<point x="142" y="0" type="line"/>
			<point x="142" y="285" type="line"/>
			<point x="311" y="285" type="line" smooth="yes"/>
			<point x="399" y="285"/>
			<point x="431" y="248"/>
			<point x="450" y="156" type="curve" smooth="yes"/>
			<point x="482" y="0" type="line"/>
			<point x="541" y="0" type="line"/>
			<point x="505" y="167" type="line" smooth="yes"/>
			<point x="487" y="253"/>
			<point x="457" y="293"/>
			<point x="396" y="309" type="curve"/>
			<point x="469" y="323"/>
			<point x="535" y="380"/>
			<point x="535" y="491" type="curve" smooth="yes"/>
			<point x="535" y="603"/>
			<point x="469" y="684"/>
			<point x="335" y="684" type="curve" smooth="yes"/>
			<point x="87" y="684" type="line"/>
		</contour>
		<contour>
			<point x="324" y="635" type="line" smooth="yes"/>
			<point x="431" y="635"/>
			<point x="478" y="575"/>
			<point x="478" y="489" type="curve" smooth="yes"/>
			<point x="478" y="396"/>
			<point x="431" y="334"/>
			<point x="324" y="334" type="curve" smooth="yes"/>
			<point x="142" y="334" type="line"/>
			<point x="142" y="635" type="line"/>
		</contour>
	</outline>
	<anchor name="bottom" x="311" y="0"/>
	<anchor name="top" x="280" y="684"/>
	<guideline x="203" y="506" angle="90"/>
	<guideline x="598" y="512" angle="117.7343"/>
</glyph>
<glyph name="S" format="2">
	<unicode hex="0053"/>
	<advance width="600"/>
	<outline>
		<contour>
			<point x="311" y="-14" type="curve"/>
			<point x="437" y="-14"/>
			<point x="530" y="59"/>
			<point x="530" y="185" type="curve" smooth="yes"/>
			<point x="530" y="332"/>
			<point x="410" y="346"/>
			<point x="299" y="367" type="curve" smooth="yes"/>
			<point x="193" y="387"/>
			<point x="128" y="411"/>
			<point x="128" y="503" type="curve" smooth="yes"/>
			<point x="128" y="601"/>
			<point x="200" y="651"/>
			<point x="299" y="651" type="curve" smooth="yes"/>
			<point x="385" y="651"/>
			<point x="461" y="623"/>
			<point x="513" y="578" type="curve"/>
			<point x="513" y="636" type="line"/>
			<point x="461" y="674"/>
			<point x="392" y="698"/>
			<point x="300" y="698" type="curve" smooth="yes"/>
			<point x="170" y="698"/>
			<point x="72" y="626"/>
			<point x="72" y="499" type="curve" smooth="yes"/>
			<point x="72" y="361"/>
			<point x="179" y="333"/>
			<point x="285" y="315" type="curve" smooth="yes"/>
			<point x="392" y="297"/>
			<point x="474" y="284"/>
			<point x="474" y="183" type="curve" smooth="yes"/>
			<point x="474" y="82"/>
			<point x="405" y="34"/>
			<point x="310" y="34" type="curve"/>
			<point x="212" y="34"/>
			<point x="139" y="71"/>
			<point x="78" y="131" type="curve"/>
			<point x="78" y="67" type="line"/>
			<point x="133" y="23"/>
			<point x="203" y="-14"/>
		</contour>
	</outline>
	<anchor name="bottom" x="315" y="0"/>
	<anchor name="top" x="305" y="684"/>
	<guideline x="38" y="522" angle="0"/>
	<guideline x="279" y="730" angle="0"/>
	<guideline x="279" y="714" angle="90"/>
</glyph>
<glyph name="T" format="2">
	<unicode hex="0054"/>
	<advance width="600"/>
	<outline>
		<contour>
			<point x="273" y="0" type="line"/>
			<point x="328" y="0" type="line"/>
			<point x="328" y="635" type="line"/>
			<point x="545" y="635" type="line"/>
			<point x="545" y="684" type="line"/>
			<point x="55" y="684" type="line"/>
			<point x="55" y="635" type="line"/>
			<point x="273" y="635" type="line"/>
		</contour>
	</outline>
	<anchor name="bottom" x="301" y="0"/>
	<anchor name="center" x="300" y="369"/>
	<anchor name="top" x="300" y="684"/>
	<guideline x="69" y="429" angle="90"/>
	<guideline x="451" y="195" angle="0"/>
</glyph>
<glyph name="Z" format="2">
	<unicode hex="005A"/>
	<advance width="600"/>
	<outline>
		<contour>
			<point x="70" y="0" type="line"/>
			<point x="532" y="0" type="line"/>
			<point x="531" y="50" type="line"/>
			<point x="140" y="50" type="line"/>
			<point x="530" y="642" type="line"/>
			<point x="530" y="684" type="line"/>
			<point x="87" y="684" type="line"/>
			<point x="87" y="635" type="line"/>
			<point x="464" y="635" type="line"/>
			<point x="70" y="41" type="line"/>
		</contour>
	</outline>
	<anchor name="bottom" x="300" y="0"/>
	<anchor name="top" x="307" y="684"/>
	<guideline x="416" y="91" angle="90"/>
</glyph>
<glyph name="grave" format="2">
	<unicode hex="0060"/>
	<advance width="600"/>
	<outline>
		<contour>
			<point x="212" y="750" type="line"/>
			<point x="319" y="607" type="line"/>
			<point x="370" y="607" type="line"/>
			<point x="280" y="750" type="line"/>
		</contour>
	</outline>
	<anchor name="_top" x="344" y="523"/>
</glyph>
<glyph name="d" format="2">
	<unicode hex="0064"/>
	<advance width="600"/>
	<outline>
		<contour>
			<point x="274" y="-14" type="curve"/>
			<point x="359" y="-14"/>
			<point x="420" y="35"/>
			<point x="449" y="113" type="curve"/>
			<point x="449" y="0" type="line"/>
			<point x="503" y="0" type="line"/>
			<point x="503" y="750" type="line"/>
			<point x="449" y="750" type="line"/>
			<point x="449" y="424" type="line"/>
			<point x="417" y="498"/>
			<point x="361" y="537"/>
			<point x="278" y="537" type="curve" smooth="yes"/>
			<point x="158" y="537"/>
			<point x="69" y="435"/>
			<point x="69" y="270" type="curve" smooth="yes"/>
			<point x="69" y="256" type="line" smooth="yes"/>
			<point x="69" y="86"/>
			<point x="150" y="-14"/>
		</contour>
		<contour>
			<point x="285" y="33" type="curve" smooth="yes"/>
			<point x="191" y="33"/>
			<point x="126" y="109"/>
			<point x="126" y="259" type="curve" smooth="yes"/>
			<point x="126" y="266" type="line" smooth="yes"/>
			<point x="126" y="411"/>
			<point x="191" y="489"/>
			<point x="288" y="489" type="curve" smooth="yes"/>
			<point x="387" y="489"/>
			<point x="452" y="411"/>
			<point x="452" y="265" type="curve" smooth="yes"/>
			<point x="452" y="258" type="line" smooth="yes"/>
			<point x="452" y="109"/>
			<point x="379" y="33"/>
		</contour>
	</outline>
	<anchor name="caron" x="634" y="789"/>
	<anchor name="center" x="431" y="624"/>
	<anchor name="top" x="350" y="550"/>
</glyph>
<glyph name="e" format="2">
	<unicode hex="0065"/>
	<advance width="600"/>
	<outline>
		<contour>
			<point x="344" y="-14" type="curve" smooth="yes"/>
			<point x="416" y="-14"/>
			<point x="467" y="3"/>
			<point x="507" y="29" type="curve"/>
			<point x="507" y="81" type="line"/>
			<point x="465" y="51"/>
			<point x="416" y="33"/>
			<point x="350" y="33" type="curve" smooth="yes"/>
			<point x="238" y="33"/>
			<point x="142" y="97"/>
			<point x="138" y="249" type="curve"/>
			<point x="517" y="249" type="line"/>
			<point x="517" y="279" type="line"/>
			<point x="517" y="452"/>
			<point x="431" y="537"/>
			<point x="305" y="537" type="curve" smooth="yes"/>
			<point x="182" y="537"/>
			<point x="82" y="433"/>
			<point x="82" y="269" type="curve" smooth="yes"/>
			<point x="82" y="257" type="line" smooth="yes"/>
			<point x="82" y="86"/>
			<point x="182" y="-14"/>
		</contour>
		<contour>
			<point x="305" y="491" type="curve" smooth="yes"/>
			<point x="391" y="491"/>
			<point x="458" y="427"/>
			<point x="462" y="293" type="curve"/>
			<point x="138" y="293" type="line"/>
			<point x="145" y="417"/>
			<point x="215" y="491"/>
		</contour>
	</outline>
	<anchor name="ogonek" x="445" y="0"/>
	<anchor name="top" x="304" y="523"/>
</glyph>
<glyph name="i" format="2">
	<unicode hex="0069"/>
	<advance width="600"/>
	<outline>
		<contour>
			<point x="316" y="650" type="curve" smooth="yes"/>
			<point x="352" y="650"/>
			<point x="364" y="666"/>
			<point x="364" y="694" type="curve" smooth="yes"/>
			<point x="364" y="722"/>
			<point x="352" y="738"/>
			<point x="316" y="738" type="curve" smooth="yes"/>
			<point x="280" y="738"/>
			<point x="268" y="722"/>
			<point x="268" y="694" type="curve" smooth="yes"/>
			<point x="268" y="666"/>
			<point x="280" y="650"/>
		</contour>
		<contour>
			<point x="94" y="0" type="line"/>
			<point x="536" y="0" type="line"/>
			<point x="536" y="48" type="line"/>
			<point x="346" y="48" type="line"/>
			<point x="346" y="523" type="line"/>
			<point x="94" y="523" type="line"/>
			<point x="94" y="475" type="line"/>
			<point x="292" y="475" type="line"/>
			<point x="292" y="48" type="line"/>
			<point x="94" y="48" type="line"/>
		</contour>
	</outline>
	<anchor name="ogonek" x="536" y="0"/>
	<guideline x="111" y="702" angle="0"/>
	<guideline x="136" y="776" angle="90"/>
	<guideline x="356" y="693" angle="0"/>
</glyph>
<glyph name="k" format="2">
	<unicode hex="006B"/>
	<advance width="600"/>
	<outline>
		<contour>
			<point x="128" y="0" type="line"/>
			<point x="181" y="0" type="line"/>
			<point x="181" y="137" type="line"/>
			<point x="288" y="264" type="line"/>
			<point x="454" y="0" type="line"/>
			<point x="517" y="0" type="line"/>
			<point x="327" y="303" type="line"/>
			<point x="509" y="523" type="line"/>
			<point x="443" y="523" type="line"/>
			<point x="181" y="200" type="line"/>
			<point x="181" y="750" type="line"/>
			<point x="128" y="750" type="line"/>
		</contour>
	</outline>
	<anchor name="bottom" x="308" y="0"/>
	<anchor name="top" x="242" y="523"/>
</glyph>
<glyph name="l" format="2">
	<unicode hex="006C"/>
	<advance width="600"/>
	<outline>
		<contour>
			<point x="82" y="0" type="line"/>
			<point x="525" y="0" type="line"/>
			<point x="525" y="48" type="line"/>
			<point x="334" y="48" type="line"/>
			<point x="334" y="750" type="line"/>
			<point x="82" y="750" type="line"/>
			<point x="82" y="702" type="line"/>
			<point x="280" y="702" type="line"/>
			<point x="280" y="48" type="line"/>
			<point x="82" y="48" type="line"/>
		</contour>
	</outline>
	<anchor name="bottom" x="307" y="-1"/>
	<anchor name="caron" x="478" y="750"/>
	<anchor name="center" x="304" y="377"/>
	<anchor name="top" x="307" y="726"/>
	<guideline x="339" y="279" angle="0"/>
</glyph>
<glyph name="m" format="2">
	<unicode hex="006D"/>
	<advance width="600"/>
	<outline>
		<contour>
			<point x="66" y="0" type="line"/>
			<point x="116" y="0" type="line"/>
			<point x="116" y="354" type="line" smooth="yes"/>
			<point x="116" y="398"/>
			<point x="127" y="433"/>
			<point x="142" y="457" type="curve" smooth="yes"/>
			<point x="157" y="482"/>
			<point x="179" y="494"/>
			<point x="207" y="494" type="curve" smooth="yes"/>
			<point x="254" y="494"/>
			<point x="276" y="463"/>
			<point x="276" y="401" type="curve"/>
			<point x="276" y="0" type="line"/>
			<point x="326" y="0" type="line"/>
			<point x="326" y="360" type="line"/>
			<point x="326" y="405"/>
			<point x="335" y="440"/>
			<point x="353" y="463" type="curve" smooth="yes"/>
			<point x="368" y="483"/>
			<point x="391" y="494"/>
			<point x="420" y="494" type="curve" smooth="yes"/>
			<point x="464" y="494"/>
			<point x="486" y="463"/>
			<point x="486" y="401" type="curve" smooth="yes"/>
			<point x="486" y="0" type="line"/>
			<point x="536" y="0" type="line"/>
			<point x="536" y="410" type="line" smooth="yes"/>
			<point x="536" y="493"/>
			<point x="499" y="537"/>
			<point x="430" y="537" type="curve" smooth="yes"/>
			<point x="383" y="537"/>
			<point x="343" y="507"/>
			<point x="322" y="455" type="curve"/>
			<point x="310" y="510"/>
			<point x="273" y="537"/>
			<point x="221" y="537" type="curve" smooth="yes"/>
			<point x="172" y="537"/>
			<point x="135" y="505"/>
			<point x="116" y="456" type="curve"/>
			<point x="116" y="523" type="line"/>
			<point x="66" y="523" type="line"/>
		</contour>
	</outline>
	<anchor name="bottom" x="277" y="0"/>
	<anchor name="top" x="317" y="523"/>
	<guideline x="186" y="458" angle="0"/>
	<guideline x="298" y="636" angle="90"/>
</glyph>
<glyph name="o" format="2">
	<unicode hex="006F"/>
	<advance width="600"/>
	<outline>
		<contour>
			<point x="298" y="-14" type="curve" smooth="yes"/>
			<point x="425" y="-14"/>
			<point x="524" y="82"/>
			<point x="524" y="256" type="curve" smooth="yes"/>
			<point x="524" y="270" type="line" smooth="yes"/>
			<point x="524" y="437"/>
			<point x="432" y="537"/>
			<point x="301" y="537" type="curve" smooth="yes"/>
			<point x="172" y="537"/>
			<point x="76" y="438"/>
			<point x="76" y="270" type="curve" smooth="yes"/>
			<point x="76" y="256" type="line" smooth="yes"/>
			<point x="76" y="83"/>
			<point x="171" y="-14"/>
		</contour>
		<contour>
			<point x="300" y="34" type="curve" smooth="yes"/>
			<point x="203" y="34"/>
			<point x="133" y="108"/>
			<point x="133" y="259" type="curve" smooth="yes"/>
			<point x="133" y="266" type="line" smooth="yes"/>
			<point x="133" y="416"/>
			<point x="203" y="490"/>
			<point x="299" y="490" type="curve" smooth="yes"/>
			<point x="396" y="490"/>
			<point x="467" y="416"/>
			<point x="467" y="266" type="curve" smooth="yes"/>
			<point x="467" y="259" type="line" smooth="yes"/>
			<point x="467" y="108"/>
			<point x="398" y="34"/>
		</contour>
	</outline>
	<anchor name="bottom" x="296" y="0"/>
	<anchor name="center" x="299" y="274"/>
	<anchor name="top" x="301" y="523"/>
	<guideline x="311" y="595" angle="90"/>
	<guideline x="133" y="113" angle="0"/>
	<guideline x="202" y="490" angle="90"/>
	<guideline x="299" y="490" angle="0"/>
</glyph>
<glyph name="q" format="2">
	<unicode hex="0071"/>
	<advance width="600"/>
	<outline>
		<contour>
			<point x="451" y="-194" type="line"/>
			<point x="505" y="-194" type="line"/>
			<point x="505" y="523" type="line"/>
			<point x="451" y="523" type="line"/>
			<point x="451" y="424" type="line"/>
			<point x="419" y="498"/>
			<point x="361" y="537"/>
			<point x="278" y="537" type="curve" smooth="yes"/>
			<point x="161" y="537"/>
			<point x="71" y="436"/>
			<point x="71" y="270" type="curve" smooth="yes"/>
			<point x="71" y="256" type="line" smooth="yes"/>
			<point x="71" y="87"/>
			<point x="152" y="-14"/>
			<point x="274" y="-14" type="curve" smooth="yes"/>
			<point x="361" y="-14"/>
			<point x="421" y="36"/>
			<point x="451" y="115" type="curve"/>
		</contour>
		<contour>
			<point x="285" y="33" type="curve" smooth="yes"/>
			<point x="194" y="33"/>
			<point x="128" y="109"/>
			<point x="128" y="259" type="curve" smooth="yes"/>
			<point x="128" y="266" type="line" smooth="yes"/>
			<point x="128" y="411"/>
			<point x="194" y="489"/>
			<point x="288" y="489" type="curve" smooth="yes"/>
			<point x="388" y="489"/>
			<point x="454" y="411"/>
			<point x="454" y="265" type="curve" smooth="yes"/>
			<point x="454" y="258" type="line" smooth="yes"/>
			<point x="454" y="109"/>
			<point x="379" y="33"/>
		</contour>
	</outline>
</glyph>
<glyph name="t" format="2">
	<unicode hex="0074"/>
	<advance width="600"/>
	<outline>
		<contour>
			<point x="386" y="-12" type="curve"/>
			<point x="431" y="-12"/>
			<point x="478" y="1"/>
			<point x="500" y="14" type="curve"/>
			<point x="500" y="62" type="line"/>
			<point x="475" y="47"/>
			<point x="427" y="36"/>
			<point x="391" y="36" type="curve" smooth="yes"/>
			<point x="318" y="36"/>
			<point x="274" y="73"/>
			<point x="274" y="163" type="curve" smooth="yes"/>
			<point x="274" y="475" type="line"/>
			<point x="500" y="475" type="line"/>
			<point x="500" y="523" type="line"/>
			<point x="273" y="523" type="line"/>
			<point x="273" y="692" type="line"/>
			<point x="232" y="692" type="line"/>
			<point x="224" y="579" type="line" smooth="yes"/>
			<point x="220" y="520"/>
			<point x="191" y="520"/>
			<point x="168" y="520" type="curve" smooth="yes"/>
			<point x="70" y="520" type="line"/>
			<point x="70" y="475" type="line"/>
			<point x="220" y="475" type="line"/>
			<point x="220" y="158" type="line" smooth="yes"/>
			<point x="220" y="34"/>
			<point x="286" y="-12"/>
		</contour>
	</outline>
	<anchor name="bottom" x="347" y="0"/>
	<anchor name="caron" x="435" y="780"/>
	<anchor name="center" x="287" y="299"/>
	<guideline x="345" y="68" angle="90"/>
	<guideline x="250" y="404" angle="0"/>
	<guideline x="29" y="537" angle="0"/>
</glyph>
<glyph name="u" format="2">
	<unicode hex="0075"/>
	<advance width="600"/>
	<outline>
		<contour>
			<point x="494" y="523" type="line"/>
			<point x="440" y="523" type="line"/>
			<point x="440" y="225" type="line" smooth="yes"/>
			<point x="440" y="193"/>
			<point x="438" y="156"/>
			<point x="426" y="128" type="curve" smooth="yes"/>
			<point x="402" y="73"/>
			<point x="358" y="33"/>
			<point x="284" y="33" type="curve" smooth="yes"/>
			<point x="207" y="33"/>
			<point x="156" y="86"/>
			<point x="156" y="187" type="curve" smooth="yes"/>
			<point x="156" y="523" type="line"/>
			<point x="102" y="523" type="line"/>
			<point x="102" y="178" type="line" smooth="yes"/>
			<point x="102" y="50"/>
			<point x="171" y="-14"/>
			<point x="272" y="-14" type="curve" smooth="yes"/>
			<point x="349" y="-14"/>
			<point x="408" y="27"/>
			<point x="440" y="100" type="curve"/>
			<point x="440" y="0" type="line"/>
			<point x="494" y="0" type="line"/>
		</contour>
	</outline>
	<anchor name="bottom" x="303" y="0"/>
	<anchor name="ogonek" x="494" y="0"/>
	<anchor name="top" x="298" y="523"/>
	<guideline x="214" y="424" angle="0"/>
</glyph>
<glyph name="v" format="2">
	<unicode hex="0076"/>
	<advance width="600"/>
	<outline>
		<contour>
			<point x="81" y="523" type="line"/>
			<point x="265" y="-2" type="line"/>
			<point x="335" y="-2" type="line"/>
			<point x="519" y="523" type="line"/>
			<point x="461" y="523" type="line"/>
			<point x="302" y="51" type="line"/>
			<point x="140" y="523" type="line"/>
		</contour>
	</outline>
</glyph>
<glyph name="x" format="2">
	<unicode hex="0078"/>
	<advance width="600"/>
	<outline>
		<contour>
			<point x="82" y="0" type="line"/>
			<point x="147" y="0" type="line"/>
			<point x="298" y="235" type="line"/>
			<point x="453" y="0" type="line"/>
			<point x="518" y="0" type="line"/>
			<point x="332" y="275" type="line"/>
			<point x="506" y="523" type="line"/>
			<point x="442" y="523" type="line"/>
			<point x="300" y="310" type="line"/>
			<point x="157" y="523" type="line"/>
			<point x="93" y="523" type="line"/>
			<point x="265" y="273" type="line"/>
		</contour>
	</outline>
	<anchor name="bottom" x="339" y="0"/>
	<anchor name="top" x="335" y="523"/>
	<guideline x="303" y="304" angle="0"/>
	<guideline x="132" y="585" angle="0"/>
	<guideline x="492" y="0" angle="0"/>
</glyph>
<glyph name="y" format="2">
	<unicode hex="0079"/>
	<advance width="600"/>
	<outline>
		<contour>
			<point x="162" y="-204" type="curve" smooth="yes"/>
			<point x="228" y="-204"/>
			<point x="274" y="-170"/>
			<point x="300" y="-97" type="curve" smooth="yes"/>
			<point x="519" y="523" type="line"/>
			<point x="461" y="523" type="line"/>
			<point x="299" y="44" type="line"/>
			<point x="140" y="523" type="line"/>
			<point x="81" y="523" type="line"/>
			<point x="258" y="0" type="line"/>
			<point x="284" y="0" type="line"/>
			<point x="254" y="-83" type="line" smooth="yes"/>
			<point x="234" y="-138"/>
			<point x="202" y="-158"/>
			<point x="161" y="-158" type="curve" smooth="yes"/>
			<point x="142" y="-158"/>
			<point x="124" y="-155"/>
			<point x="109" y="-150" type="curve"/>
			<point x="109" y="-195" type="line"/>
			<point x="126" y="-201"/>
			<point x="142" y="-204"/>
		</contour>
	</outline>
	<anchor name="bottom" x="278" y="-3"/>
	<anchor name="top" x="301" y="523"/>
</glyph>
<glyph name="z" format="2">
	<unicode hex="007A"/>
	<advance width="600"/>
	<outline>
		<contour>
			<point x="103" y="0" type="line"/>
			<point x="497" y="0" type="line"/>
			<point x="497" y="48" type="line"/>
			<point x="175" y="48" type="line"/>
			<point x="497" y="480" type="line"/>
			<point x="497" y="523" type="line"/>
			<point x="109" y="523" type="line"/>
			<point x="109" y="475" type="line"/>
			<point x="428" y="475" type="line"/>
			<point x="103" y="36" type="line"/>
		</contour>
	</outline>
	<anchor name="bottom" x="305" y="0"/>
	<anchor name="top" x="302" y="523"/>
	<guideline x="402" y="537" angle="163.1397"/>
</glyph>
<glyph name="braceleft" format="2">
	<unicode hex="007B"/>
	<advance width="600"/>
	<outline>
		<contour>
			<point x="142" y="287" type="line"/>
			<point x="188" y="287" type="line" smooth="yes"/>
			<point x="276" y="287"/>
			<point x="300" y="244"/>
			<point x="300" y="212" type="curve" smooth="yes"/>
			<point x="300" y="139"/>
			<point x="189" y="70"/>
			<point x="189" y="-24" type="curve" smooth="yes"/>
			<point x="189" y="-102"/>
			<point x="238" y="-163"/>
			<point x="355" y="-163" type="curve" smooth="yes"/>
			<point x="480" y="-163" type="line"/>
			<point x="480" y="-119" type="line"/>
			<point x="360" y="-119" type="line" smooth="yes"/>
			<point x="289" y="-119"/>
			<point x="243" y="-90"/>
			<point x="243" y="-24" type="curve" smooth="yes"/>
			<point x="243" y="57"/>
			<point x="353" y="118"/>
			<point x="353" y="213" type="curve" smooth="yes"/>
			<point x="353" y="267"/>
			<point x="302" y="304"/>
			<point x="238" y="315" type="curve"/>
			<point x="302" y="326"/>
			<point x="353" y="361"/>
			<point x="353" y="414" type="curve" smooth="yes"/>
			<point x="353" y="510"/>
			<point x="243" y="573"/>
			<point x="243" y="654" type="curve" smooth="yes"/>
			<point x="243" y="719"/>
			<point x="292" y="748"/>
			<point x="361" y="748" type="curve" smooth="yes"/>
			<point x="480" y="748" type="line"/>
			<point x="480" y="792" type="line"/>
			<point x="355" y="792" type="line" smooth="yes"/>
			<point x="247" y="792"/>
			<point x="189" y="731"/>
			<point x="189" y="654" type="curve" smooth="yes"/>
			<point x="189" y="559"/>
			<point x="300" y="490"/>
			<point x="300" y="416" type="curve" smooth="yes"/>
			<point x="300" y="384"/>
			<point x="277" y="341"/>
			<point x="188" y="341" type="curve" smooth="yes"/>
			<point x="142" y="341" type="line"/>
		</contour>
	</outline>
	<guideline x="480" y="-163" angle="90"/>
</glyph>
<glyph name="bar" format="2">
	<unicode hex="007C"/>
	<advance width="600"/>
	<outline>
		<contour>
			<point x="274" y="792" type="line"/>
			<point x="274" y="-163" type="line"/>
			<point x="326" y="-163" type="line"/>
			<point x="326" y="792" type="line"/>
		</contour>
	</outline>
</glyph>
<glyph name="braceright" format="2">
	<unicode hex="007D"/>
	<advance width="600"/>
	<outline>
		<contour>
			<point x="120" y="-163" type="line"/>
			<point x="246" y="-163" type="line" smooth="yes"/>
			<point x="362" y="-163"/>
			<point x="412" y="-103"/>
			<point x="412" y="-24" type="curve" smooth="yes"/>
			<point x="412" y="70"/>
			<point x="300" y="139"/>
			<point x="300" y="212" type="curve" smooth="yes"/>
			<point x="300" y="243"/>
			<point x="323" y="287"/>
			<point x="413" y="287" type="curve" smooth="yes"/>
			<point x="458" y="287" type="line"/>
			<point x="458" y="341" type="line"/>
			<point x="413" y="341" type="line" smooth="yes"/>
			<point x="323" y="341"/>
			<point x="300" y="385"/>
			<point x="300" y="416" type="curve" smooth="yes"/>
			<point x="300" y="490"/>
			<point x="412" y="559"/>
			<point x="412" y="654" type="curve" smooth="yes"/>
			<point x="412" y="731"/>
			<point x="353" y="792"/>
			<point x="246" y="792" type="curve" smooth="yes"/>
			<point x="120" y="792" type="line"/>
			<point x="120" y="748" type="line"/>
			<point x="241" y="748" type="line" smooth="yes"/>
			<point x="309" y="748"/>
			<point x="358" y="719"/>
			<point x="358" y="654" type="curve" smooth="yes"/>
			<point x="358" y="573"/>
			<point x="247" y="510"/>
			<point x="247" y="414" type="curve" smooth="yes"/>
			<point x="247" y="361"/>
			<point x="298" y="326"/>
			<point x="362" y="315" type="curve"/>
			<point x="298" y="304"/>
			<point x="247" y="267"/>
			<point x="247" y="213" type="curve" smooth="yes"/>
			<point x="247" y="118"/>
			<point x="358" y="57"/>
			<point x="358" y="-24" type="curve" smooth="yes"/>
			<point x="358" y="-90"/>
			<point x="311" y="-119"/>
			<point x="241" y="-119" type="curve" smooth="yes"/>
			<point x="120" y="-119" type="line"/>
		</contour>
	</outline>
</glyph>
<glyph name="asciitilde" format="2">
	<unicode hex="007E"/>
	<advance width="600"/>
	<outline>
		<contour>
			<point x="89" y="229" type="curve"/>
			<point x="142" y="229" type="line"/>
			<point x="142" y="311"/>
			<point x="157" y="353"/>
			<point x="201" y="353" type="curve" smooth="yes"/>
			<point x="270" y="353"/>
			<point x="304" y="225"/>
			<point x="402" y="225" type="curve" smooth="yes"/>
			<point x="468" y="225"/>
			<point x="511" y="265"/>
			<point x="511" y="398" type="curve"/>
			<point x="458" y="398" type="line"/>
			<point x="458" y="311"/>
			<point x="445" y="275"/>
			<point x="402" y="275" type="curve" smooth="yes"/>
			<point x="336" y="275"/>
			<point x="299" y="404"/>
			<point x="200" y="404" type="curve" smooth="yes"/>
			<point x="120" y="404"/>
			<point x="89" y="335"/>
		</contour>
	</outline>
	<guideline x="146" y="255" angle="0"/>
	<guideline x="49" y="314" angle="0"/>
</glyph>
<glyph name="exclamdown" format="2">
	<unicode hex="00A1"/>
	<advance width="600"/>
	<outline>
		<contour>
			<point x="300" y="535" type="curve" smooth="yes"/>
			<point x="265" y="535"/>
			<point x="247" y="521"/>
			<point x="247" y="487" type="curve" smooth="yes"/>
			<point x="247" y="453"/>
			<point x="265" y="439"/>
			<point x="300" y="439" type="curve" smooth="yes"/>
			<point x="335" y="439"/>
			<point x="353" y="453"/>
			<point x="353" y="487" type="curve" smooth="yes"/>
			<point x="353" y="521"/>
			<point x="335" y="535"/>
		</contour>
		<contour>
			<point x="320" y="341" type="line"/>
			<point x="280" y="341" type="line"/>
			<point x="269" y="-6" type="line"/>
			<point x="269" y="-161" type="line"/>
			<point x="331" y="-161" type="line"/>
			<point x="331" y="-7" type="line"/>
		</contour>
	</outline>
</glyph>
<glyph name="currency" format="2">
	<unicode hex="00A4"/>
	<advance width="600"/>
	<outline>
		<contour>
			<point x="103" y="84" type="line"/>
			<point x="175" y="163" type="line"/>
			<point x="207" y="137"/>
			<point x="249" y="123"/>
			<point x="298" y="123" type="curve" smooth="yes"/>
			<point x="348" y="123"/>
			<point x="392" y="138"/>
			<point x="425" y="165" type="curve"/>
			<point x="499" y="84" type="line"/>
			<point x="534" y="117" type="line"/>
			<point x="456" y="200" type="line"/>
			<point x="481" y="236"/>
			<point x="495" y="283"/>
			<point x="495" y="340" type="curve" smooth="yes"/>
			<point x="495" y="398"/>
			<point x="481" y="445"/>
			<point x="457" y="481" type="curve"/>
			<point x="534" y="565" type="line"/>
			<point x="498" y="597" type="line"/>
			<point x="424" y="517" type="line"/>
			<point x="391" y="543"/>
			<point x="349" y="557"/>
			<point x="300" y="557" type="curve" smooth="yes"/>
			<point x="251" y="557"/>
			<point x="209" y="543"/>
			<point x="177" y="517" type="curve"/>
			<point x="102" y="598" type="line"/>
			<point x="67" y="565" type="line"/>
			<point x="143" y="483" type="line"/>
			<point x="118" y="447"/>
			<point x="103" y="398"/>
			<point x="103" y="340" type="curve" smooth="yes"/>
			<point x="103" y="282"/>
			<point x="117" y="234"/>
			<point x="142" y="198" type="curve"/>
			<point x="66" y="116" type="line"/>
		</contour>
		<contour>
			<point x="298" y="171" type="curve" smooth="yes"/>
			<point x="207" y="171"/>
			<point x="154" y="236"/>
			<point x="154" y="340" type="curve" smooth="yes"/>
			<point x="154" y="444"/>
			<point x="207" y="509"/>
			<point x="300" y="509" type="curve" smooth="yes"/>
			<point x="391" y="509"/>
			<point x="444" y="444"/>
			<point x="444" y="340" type="curve" smooth="yes"/>
			<point x="444" y="236"/>
			<point x="391" y="171"/>
		</contour>
	</outline>
	<guideline x="444" y="340" angle="0"/>
	<guideline x="495" y="477" angle="0"/>
</glyph>
<glyph name="brokenbar" format="2">
	<unicode hex="00A6"/>
	<advance width="600"/>
	<outline>
		<contour>
			<point x="274" y="792" type="line"/>
			<point x="274" y="418" type="line"/>
			<point x="326" y="418" type="line"/>
			<point x="326" y="792" type="line"/>
		</contour>
		<contour>
			<point x="274" y="244" type="line"/>
			<point x="274" y="-163" type="line"/>
			<point x="326" y="-163" type="line"/>
			<point x="326" y="244" type="line"/>
		</contour>
	</outline>
</glyph>
<glyph name="section" format="2">
	<unicode hex="00A7"/>
	<advance width="600"/>
	<outline>
		<contour>
			<point x="308" y="-85" type="curve" smooth="yes"/>
			<point x="416" y="-85"/>
			<point x="485" y="-21"/>
			<point x="485" y="70" type="curve" smooth="yes"/>
			<point x="485" y="145"/>
			<point x="449" y="181"/>
			<point x="399" y="201" type="curve"/>
			<point x="467" y="218"/>
			<point x="506" y="260"/>
			<point x="506" y="319" type="curve" smooth="yes"/>
			<point x="506" y="408"/>
			<point x="411" y="430"/>
			<point x="306" y="442" type="curve" smooth="yes"/>
			<point x="227" y="451"/>
			<point x="166" y="466"/>
			<point x="166" y="542" type="curve" smooth="yes"/>
			<point x="166" y="609"/>
			<point x="209" y="652"/>
			<point x="304" y="652" type="curve" smooth="yes"/>
			<point x="373" y="652"/>
			<point x="436" y="634"/>
			<point x="478" y="599" type="curve"/>
			<point x="478" y="653" type="line"/>
			<point x="436" y="681"/>
			<point x="376" y="698"/>
			<point x="304" y="698" type="curve" smooth="yes"/>
			<point x="193" y="698"/>
			<point x="115" y="638"/>
			<point x="115" y="539" type="curve" smooth="yes"/>
			<point x="115" y="466"/>
			<point x="150" y="430"/>
			<point x="205" y="411" type="curve"/>
			<point x="131" y="392"/>
			<point x="94" y="352"/>
			<point x="94" y="294" type="curve" smooth="yes"/>
			<point x="94" y="195"/>
			<point x="200" y="182"/>
			<point x="299" y="169" type="curve" smooth="yes"/>
			<point x="375" y="160"/>
			<point x="434" y="150"/>
			<point x="434" y="69" type="curve" smooth="yes"/>
			<point x="434" y="3"/>
			<point x="386" y="-37"/>
			<point x="307" y="-37" type="curve" smooth="yes"/>
			<point x="232" y="-37"/>
			<point x="170" y="-9"/>
			<point x="116" y="30" type="curve"/>
			<point x="116" y="-28" type="line"/>
			<point x="152" y="-52"/>
			<point x="218" y="-85"/>
		</contour>
		<contour>
			<point x="302" y="221" type="curve" smooth="yes"/>
			<point x="224" y="233"/>
			<point x="143" y="239"/>
			<point x="143" y="312" type="curve" smooth="yes"/>
			<point x="143" y="376"/>
			<point x="216" y="402"/>
			<point x="296" y="391" type="curve" smooth="yes"/>
			<point x="379" y="380"/>
			<point x="457" y="372"/>
			<point x="457" y="300" type="curve" smooth="yes"/>
			<point x="457" y="236"/>
			<point x="386" y="208"/>
		</contour>
	</outline>
</glyph>
<glyph name="dieresis" format="2">
	<unicode hex="00A8"/>
	<advance width="600"/>
	<outline>
		<contour>
			<point x="392" y="641" type="curve" smooth="yes"/>
			<point x="426" y="641"/>
			<point x="437" y="656"/>
			<point x="437" y="683" type="curve" smooth="yes"/>
			<point x="437" y="710"/>
			<point x="426" y="726"/>
			<point x="392" y="726" type="curve" smooth="yes"/>
			<point x="358" y="726"/>
			<point x="346" y="710"/>
			<point x="346" y="683" type="curve" smooth="yes"/>
			<point x="346" y="656"/>
			<point x="358" y="641"/>
		</contour>
		<contour>
			<point x="209" y="641" type="curve" smooth="yes"/>
			<point x="243" y="641"/>
			<point x="254" y="656"/>
			<point x="254" y="683" type="curve" smooth="yes"/>
			<point x="254" y="710"/>
			<point x="243" y="726"/>
			<point x="209" y="726" type="curve" smooth="yes"/>
			<point x="175" y="726"/>
			<point x="163" y="710"/>
			<point x="163" y="683" type="curve" smooth="yes"/>
			<point x="163" y="656"/>
			<point x="175" y="641"/>
		</contour>
	</outline>
	<anchor name="_top" x="300" y="523"/>
</glyph>
<glyph name="guillemetleft" format="2">
	<unicode hex="00AB"/>
	<advance width="600"/>
	<outline>
		<contour>
			<point x="321" y="77" type="line"/>
			<point x="146" y="288" type="line"/>
			<point x="321" y="497" type="line"/>
			<point x="257" y="497" type="line"/>
			<point x="84" y="287" type="line"/>
			<point x="257" y="77" type="line"/>
		</contour>
		<contour>
			<point x="509" y="77" type="line"/>
			<point x="335" y="288" type="line"/>
			<point x="509" y="497" type="line"/>
			<point x="446" y="497" type="line"/>
			<point x="272" y="287" type="line"/>
			<point x="446" y="77" type="line"/>
		</contour>
	</outline>
</glyph>
<glyph name="logicalnot" format="2">
	<unicode hex="00AC"/>
	<advance width="600"/>
	<outline>
		<contour>
			<point x="520" y="71" type="line"/>
			<point x="519" y="339" type="line"/>
			<point x="80" y="339" type="line"/>
			<point x="80" y="288" type="line"/>
			<point x="464" y="288" type="line"/>
			<point x="466" y="71" type="line"/>
		</contour>
	</outline>
</glyph>
<glyph name="registered" format="2">
	<unicode hex="00AE"/>
	<advance width="600"/>
	<outline>
		<contour>
			<point x="300" y="106" type="curve" smooth="yes"/>
			<point x="444" y="106"/>
			<point x="553" y="200"/>
			<point x="553" y="375" type="curve" smooth="yes"/>
			<point x="553" y="389" type="line" smooth="yes"/>
			<point x="553" y="561"/>
			<point x="442" y="657"/>
			<point x="300" y="657" type="curve" smooth="yes"/>
			<point x="158" y="657"/>
			<point x="47" y="561"/>
			<point x="47" y="389" type="curve" smooth="yes"/>
			<point x="47" y="375" type="line" smooth="yes"/>
			<point x="47" y="200"/>
			<point x="156" y="106"/>
		</contour>
		<contour>
			<point x="300" y="145" type="curve" smooth="yes"/>
			<point x="164" y="145"/>
			<point x="87" y="235"/>
			<point x="87" y="378" type="curve" smooth="yes"/>
			<point x="87" y="385" type="line" smooth="yes"/>
			<point x="87" y="527"/>
			<point x="168" y="618"/>
			<point x="300" y="618" type="curve" smooth="yes"/>
			<point x="432" y="618"/>
			<point x="513" y="526"/>
			<point x="513" y="385" type="curve" smooth="yes"/>
			<point x="513" y="378" type="line" smooth="yes"/>
			<point x="513" y="235"/>
			<point x="436" y="145"/>
		</contour>
		<contour>
			<point x="209" y="248" type="line"/>
			<point x="245" y="248" type="line"/>
			<point x="245" y="347" type="line"/>
			<point x="302" y="347" type="line" smooth="yes"/>
			<point x="334" y="347"/>
			<point x="343" y="335"/>
			<point x="350" y="310" type="curve" smooth="yes"/>
			<point x="367" y="248" type="line"/>
			<point x="405" y="248" type="line"/>
			<point x="386" y="313" type="line" smooth="yes"/>
			<point x="375" y="350"/>
			<point x="366" y="358"/>
			<point x="343" y="363" type="curve"/>
			<point x="377" y="365"/>
			<point x="402" y="392"/>
			<point x="402" y="435" type="curve" smooth="yes"/>
			<point x="402" y="479"/>
			<point x="377" y="510"/>
			<point x="317" y="510" type="curve" smooth="yes"/>
			<point x="209" y="510" type="line"/>
		</contour>
		<contour>
			<point x="313" y="480" type="line" smooth="yes"/>
			<point x="350" y="480"/>
			<point x="366" y="460"/>
			<point x="366" y="432" type="curve" smooth="yes"/>
			<point x="366" y="402"/>
			<point x="351" y="377"/>
			<point x="313" y="377" type="curve" smooth="yes"/>
			<point x="245" y="377" type="line"/>
			<point x="245" y="480" type="line"/>
		</contour>
	</outline>
</glyph>
<glyph name="macron" format="2">
	<unicode hex="00AF"/>
	<advance width="600"/>
	<outline>
		<contour>
			<point x="167" y="648" type="line"/>
			<point x="433" y="648" type="line"/>
			<point x="433" y="693" type="line"/>
			<point x="167" y="693" type="line"/>
		</contour>
	</outline>
	<anchor name="_top" x="299" y="523"/>
</glyph>
<glyph name="paragraph" format="2">
	<unicode hex="00B6"/>
	<advance width="600"/>
	<outline>
		<contour>
			<point x="354" y="0" type="line"/>
			<point x="406" y="0" type="line"/>
			<point x="406" y="635" type="line"/>
			<point x="478" y="635" type="line"/>
			<point x="478" y="0" type="line"/>
			<point x="530" y="0" type="line"/>
			<point x="530" y="684" type="line"/>
			<point x="289" y="684" type="line"/>
			<point x="130" y="684"/>
			<point x="53" y="600"/>
			<point x="53" y="465" type="curve" smooth="yes"/>
			<point x="53" y="337"/>
			<point x="127" y="260"/>
			<point x="280" y="260" type="curve" smooth="yes"/>
			<point x="354" y="260" type="line"/>
		</contour>
	</outline>
</glyph>
<glyph name="cedilla" format="2">
	<unicode hex="00B8"/>
	<advance width="600"/>
	<outline>
		<contour>
			<point x="282" y="-214" type="curve" smooth="yes"/>
			<point x="348" y="-214"/>
			<point x="391" y="-184"/>
			<point x="391" y="-123" type="curve" smooth="yes"/>
			<point x="391" y="-77"/>
			<point x="360" y="-49"/>
			<point x="300" y="-48" type="curve"/>
			<point x="322" y="0" type="line"/>
			<point x="279" y="0" type="line"/>
			<point x="239" y="-89" type="line"/>
			<point x="246" y="-87"/>
			<point x="261" y="-85"/>
			<point x="280" y="-85" type="curve" smooth="yes"/>
			<point x="317" y="-85"/>
			<point x="345" y="-95"/>
			<point x="345" y="-127" type="curve" smooth="yes"/>
			<point x="345" y="-161"/>
			<point x="320" y="-171"/>
			<point x="279" y="-171" type="curve" smooth="yes"/>
			<point x="258" y="-171"/>
			<point x="234" y="-165"/>
			<point x="209" y="-152" type="curve"/>
			<point x="209" y="-196" type="line"/>
			<point x="225" y="-206"/>
			<point x="256" y="-214"/>
		</contour>
	</outline>
	<anchor name="_bottom" x="302" y="0"/>
</glyph>
<glyph name="guillemetright" format="2">
	<unicode hex="00BB"/>
	<advance width="600"/>
	<outline>
		<contour>
			<point x="279" y="77" type="line"/>
			<point x="343" y="77" type="line"/>
			<point x="516" y="287" type="line"/>
			<point x="343" y="497" type="line"/>
			<point x="279" y="497" type="line"/>
			<point x="454" y="288" type="line"/>
		</contour>
		<contour>
			<point x="91" y="77" type="line"/>
			<point x="154" y="77" type="line"/>
			<point x="328" y="287" type="line"/>
			<point x="154" y="497" type="line"/>
			<point x="91" y="497" type="line"/>
			<point x="265" y="288" type="line"/>
		</contour>
	</outline>
</glyph>
<glyph name="questiondown" format="2">
	<unicode hex="00BF"/>
	<advance width="600"/>
	<outline>
		<contour>
			<point x="338" y="535" type="curve" smooth="yes"/>
			<point x="303" y="535"/>
			<point x="285" y="521"/>
			<point x="285" y="487" type="curve" smooth="yes"/>
			<point x="285" y="453"/>
			<point x="303" y="439"/>
			<point x="338" y="439" type="curve" smooth="yes"/>
			<point x="373" y="439"/>
			<point x="391" y="453"/>
			<point x="391" y="487" type="curve" smooth="yes"/>
			<point x="391" y="521"/>
			<point x="373" y="535"/>
		</contour>
		<contour>
			<point x="364" y="341" type="curve"/>
			<point x="316" y="341" type="line"/>
			<point x="315" y="288" type="line" smooth="yes"/>
			<point x="312" y="140"/>
			<point x="116" y="127"/>
			<point x="116" y="-29" type="curve" smooth="yes"/>
			<point x="116" y="-118"/>
			<point x="180" y="-175"/>
			<point x="309" y="-175" type="curve" smooth="yes"/>
			<point x="413" y="-175"/>
			<point x="472" y="-138"/>
			<point x="500" y="-118" type="curve"/>
			<point x="500" y="-64" type="line"/>
			<point x="457" y="-99"/>
			<point x="393" y="-127"/>
			<point x="312" y="-127" type="curve" smooth="yes"/>
			<point x="215" y="-127"/>
			<point x="172" y="-88"/>
			<point x="172" y="-25" type="curve" smooth="yes"/>
			<point x="172" y="109"/>
			<point x="366" y="118"/>
			<point x="366" y="300" type="curve" smooth="yes"/>
			<point x="366" y="314"/>
			<point x="365" y="327"/>
		</contour>
	</outline>
</glyph>
<glyph name="AE" format="2">
	<unicode hex="00C6"/>
	<advance width="600"/>
	<outline>
		<contour>
			<point x="10" y="0" type="line"/>
			<point x="66" y="0" type="line"/>
			<point x="131" y="196" type="line"/>
			<point x="299" y="196" type="line"/>
			<point x="299" y="0" type="line"/>
			<point x="572" y="0" type="line"/>
			<point x="572" y="49" type="line"/>
			<point x="351" y="49" type="line"/>
			<point x="351" y="319" type="line"/>
			<point x="543" y="319" type="line"/>
			<point x="543" y="366" type="line"/>
			<point x="351" y="366" type="line"/>
			<point x="351" y="636" type="line"/>
			<point x="568" y="636" type="line"/>
			<point x="568" y="684" type="line"/>
			<point x="238" y="684" type="line"/>
		</contour>
		<contour>
			<point x="146" y="243" type="line"/>
			<point x="276" y="636" type="line"/>
			<point x="299" y="636" type="line"/>
			<point x="299" y="243" type="line"/>
		</contour>
	</outline>
	<anchor name="top" x="334" y="684"/>
</glyph>
<glyph name="Ccedilla" format="2">
	<unicode hex="00C7"/>
	<advance width="600"/>
	<outline>
		<contour>
			<point x="444.0071424927" y="-12"/>
			<point x="484" y="-2"/>
			<point x="528" y="26" type="curve"/>
			<point x="528" y="80" type="line"/>
			<point x="477" y="43"/>
			<point x="418" y="37"/>
			<point x="377" y="37" type="curve" smooth="yes"/>
			<point x="222" y="37"/>
			<point x="130" y="138"/>
			<point x="130" y="337" type="curve" smooth="yes"/>
			<point x="130" y="344" type="line" smooth="yes"/>
			<point x="130" y="541"/>
			<point x="221" y="647"/>
			<point x="378" y="647" type="curve" smooth="yes"/>
			<point x="424" y="647"/>
			<point x="477" y="638"/>
			<point x="525" y="608" type="curve"/>
			<point x="525" y="665" type="line"/>
			<point x="486" y="684"/>
			<point x="437" y="696"/>
			<point x="375" y="696" type="curve" smooth="yes"/>
			<point x="187" y="696"/>
			<point x="72" y="566"/>
			<point x="72" y="350" type="curve" smooth="yes"/>
			<point x="72" y="336" type="line" smooth="yes"/>
			<point x="72" y="125"/>
			<point x="167" y="7"/>
			<point x="331" y="-10" type="curve"/>
			<point x="295" y="-89" type="line"/>
			<point x="302" y="-87"/>
			<point x="317" y="-85"/>
			<point x="336" y="-85" type="curve" smooth="yes"/>
			<point x="373" y="-85"/>
			<point x="401" y="-95"/>
			<point x="401" y="-127" type="curve" smooth="yes"/>
			<point x="401" y="-161"/>
			<point x="376" y="-171"/>
			<point x="335" y="-171" type="curve" smooth="yes"/>
			<point x="314" y="-171"/>
			<point x="290" y="-165"/>
			<point x="265" y="-152" type="curve"/>
			<point x="265" y="-196" type="line"/>
			<point x="281" y="-206"/>
			<point x="312" y="-214"/>
			<point x="338" y="-214" type="curve" smooth="yes"/>
			<point x="404" y="-214"/>
			<point x="447" y="-184"/>
			<point x="447" y="-123" type="curve" smooth="yes"/>
			<point x="447" y="-77"/>
			<point x="416" y="-49"/>
			<point x="356" y="-48" type="curve"/>
			<point x="373" y="-12" type="line"/>
		</contour>
	</outline>
</glyph>
<glyph name="multiply" format="2">
	<unicode hex="00D7"/>
	<advance width="600"/>
	<outline>
		<contour>
			<point x="136" y="109" type="line"/>
			<point x="300" y="276" type="line"/>
			<point x="463" y="111" type="line"/>
			<point x="498" y="148" type="line"/>
			<point x="336" y="313" type="line"/>
			<point x="500" y="479" type="line"/>
			<point x="464" y="516" type="line"/>
			<point x="300" y="350" type="line"/>
			<point x="139" y="513" type="line"/>
			<point x="103" y="477" type="line"/>
			<point x="264" y="313" type="line"/>
			<point x="100" y="147" type="line"/>
		</contour>
	</outline>
	<guideline x="81" y="540" angle="90"/>
	<guideline x="117" y="576" angle="0"/>
</glyph>
<glyph name="germandbls" format="2">
	<unicode hex="00DF"/>
	<advance width="600"/>
	<outline>
		<contour>
			<point x="320" y="-9" type="curve" smooth="yes"/>
			<point x="454" y="-9"/>
			<point x="541" y="75"/>
			<point x="541" y="194" type="curve" smooth="yes"/>
			<point x="541" y="307"/>
			<point x="475" y="368"/>
			<point x="377" y="381" type="curve"/>
			<point x="464" y="399"/>
			<point x="518" y="484"/>
			<point x="518" y="562" type="curve" smooth="yes"/>
			<point x="518" y="674"/>
			<point x="449" y="760"/>
			<point x="306" y="760" type="curve" smooth="yes"/>
			<point x="146" y="760"/>
			<point x="81" y="645"/>
			<point x="81" y="520" type="curve" smooth="yes"/>
			<point x="81" y="0" type="line"/>
			<point x="135" y="0" type="line"/>
			<point x="135" y="521" type="line" smooth="yes"/>
			<point x="135" y="616"/>
			<point x="178" y="713"/>
			<point x="303" y="713" type="curve" smooth="yes"/>
			<point x="406" y="713"/>
			<point x="461" y="652"/>
			<point x="461" y="559" type="curve" smooth="yes"/>
			<point x="461" y="477"/>
			<point x="414" y="402"/>
			<point x="298" y="402" type="curve" smooth="yes"/>
			<point x="190" y="402" type="line"/>
			<point x="190" y="355" type="line"/>
			<point x="293" y="355" type="line" smooth="yes"/>
			<point x="417" y="355"/>
			<point x="484" y="309"/>
			<point x="484" y="194" type="curve" smooth="yes"/>
			<point x="484" y="100"/>
			<point x="420" y="37"/>
			<point x="323" y="37" type="curve" smooth="yes"/>
			<point x="267" y="37"/>
			<point x="225" y="52"/>
			<point x="191" y="76" type="curve"/>
			<point x="191" y="23" type="line"/>
			<point x="219" y="7"/>
			<point x="257" y="-9"/>
		</contour>
	</outline>
</glyph>
<glyph name="ccedilla" format="2">
	<unicode hex="00E7"/>
	<advance width="600"/>
	<outline>
		<contour>
			<point x="329" y="-214" type="curve" smooth="yes"/>
			<point x="395" y="-214"/>
			<point x="438" y="-184"/>
			<point x="438" y="-123" type="curve" smooth="yes"/>
			<point x="438" y="-77"/>
			<point x="407" y="-49"/>
			<point x="347" y="-48" type="curve"/>
			<point x="364" y="-12" type="line"/>
			<point x="412" y="-12"/>
			<point x="467" y="1"/>
			<point x="501" y="25" type="curve"/>
			<point x="501" y="75" type="line"/>
			<point x="465" y="51"/>
			<point x="414" y="36"/>
			<point x="363" y="36" type="curve" smooth="yes"/>
			<point x="235" y="36"/>
			<point x="156" y="120"/>
			<point x="156" y="258" type="curve" smooth="yes"/>
			<point x="156" y="265" type="line" smooth="yes"/>
			<point x="156" y="399"/>
			<point x="233" y="487"/>
			<point x="369" y="487" type="curve" smooth="yes"/>
			<point x="409" y="487"/>
			<point x="459" y="478"/>
			<point x="501" y="452" type="curve"/>
			<point x="501" y="504" type="line"/>
			<point x="469" y="523"/>
			<point x="415" y="535"/>
			<point x="365" y="535" type="curve" smooth="yes"/>
			<point x="207" y="535"/>
			<point x="99" y="427"/>
			<point x="99" y="266" type="curve" smooth="yes"/>
			<point x="99" y="257" type="line" smooth="yes"/>
			<point x="99" y="102"/>
			<point x="185" y="5"/>
			<point x="321" y="-10" type="curve"/>
			<point x="286" y="-89" type="line"/>
			<point x="293" y="-87"/>
			<point x="308" y="-85"/>
			<point x="327" y="-85" type="curve" smooth="yes"/>
			<point x="364" y="-85"/>
			<point x="392" y="-95"/>
			<point x="392" y="-127" type="curve" smooth="yes"/>
			<point x="392" y="-161"/>
			<point x="367" y="-171"/>
			<point x="326" y="-171" type="curve" smooth="yes"/>
			<point x="305" y="-171"/>
			<point x="281" y="-165"/>
			<point x="256" y="-152" type="curve"/>
			<point x="256" y="-196" type="line"/>
			<point x="272" y="-206"/>
			<point x="303" y="-214"/>
		</contour>
	</outline>
</glyph>
<glyph name="eth" format="2">
	<unicode hex="00F0"/>
	<advance width="600"/>
	<outline>
		<contour>
			<point x="298" y="-14" type="curve" smooth="yes"/>
			<point x="425" y="-14"/>
			<point x="524" y="84"/>
			<point x="524" y="273" type="curve" smooth="yes"/>
			<point x="524" y="287" type="line" smooth="yes"/>
			<point x="524" y="435"/>
			<point x="484" y="553"/>
			<point x="413" y="643" type="curve"/>
			<point x="511" y="685" type="line"/>
			<point x="511" y="732" type="line"/>
			<point x="383" y="678" type="line"/>
			<point x="358" y="705"/>
			<point x="329" y="729"/>
			<point x="297" y="750" type="curve"/>
			<point x="215" y="750" type="line"/>
			<point x="259" y="720"/>
			<point x="297" y="689"/>
			<point x="330" y="655" type="curve"/>
			<point x="216" y="607" type="line"/>
			<point x="216" y="560" type="line"/>
			<point x="361" y="621" type="line"/>
			<point x="407" y="564"/>
			<point x="440" y="498"/>
			<point x="458" y="413" type="curve"/>
			<point x="426" y="470"/>
			<point x="370" y="511"/>
			<point x="292" y="511" type="curve" smooth="yes"/>
			<point x="164" y="511"/>
			<point x="76" y="407"/>
			<point x="76" y="257" type="curve" smooth="yes"/>
			<point x="76" y="243" type="line" smooth="yes"/>
			<point x="76" y="81"/>
			<point x="165" y="-14"/>
		</contour>
		<contour>
			<point x="300" y="34" type="curve" smooth="yes"/>
			<point x="195" y="34"/>
			<point x="133" y="110"/>
			<point x="133" y="247" type="curve" smooth="yes"/>
			<point x="133" y="254" type="line" smooth="yes"/>
			<point x="133" y="395"/>
			<point x="205" y="465"/>
			<point x="298" y="465" type="curve" smooth="yes"/>
			<point x="394" y="465"/>
			<point x="467" y="400"/>
			<point x="467" y="262" type="curve" smooth="yes"/>
			<point x="467" y="255" type="line" smooth="yes"/>
			<point x="467" y="113"/>
			<point x="398" y="34"/>
		</contour>
	</outline>
	<guideline x="195" y="34" angle="90"/>
</glyph>
<glyph name="divide" format="2">
	<unicode hex="00F7"/>
	<advance width="600"/>
	<outline>
		<contour>
			<point x="300" y="456" type="curve" smooth="yes"/>
			<point x="336" y="456"/>
			<point x="357" y="468"/>
			<point x="357" y="502" type="curve" smooth="yes"/>
			<point x="357" y="537"/>
			<point x="336" y="547"/>
			<point x="300" y="547" type="curve" smooth="yes"/>
			<point x="264" y="547"/>
			<point x="243" y="537"/>
			<point x="243" y="502" type="curve" smooth="yes"/>
			<point x="243" y="468"/>
			<point x="264" y="456"/>
		</contour>
		<contour>
			<point x="80" y="288" type="line"/>
			<point x="520" y="288" type="line"/>
			<point x="520" y="339" type="line"/>
			<point x="80" y="339" type="line"/>
		</contour>
		<contour>
			<point x="300" y="78" type="curve" smooth="yes"/>
			<point x="336" y="78"/>
			<point x="357" y="90"/>
			<point x="357" y="124" type="curve" smooth="yes"/>
			<point x="357" y="159"/>
			<point x="336" y="169"/>
			<point x="300" y="169" type="curve" smooth="yes"/>
			<point x="264" y="169"/>
			<point x="243" y="159"/>
			<point x="243" y="124" type="curve" smooth="yes"/>
			<point x="243" y="90"/>
			<point x="264" y="78"/>
		</contour>
	</outline>
	<guideline x="274" y="387" angle="90"/>
	<guideline x="312" y="387" angle="90"/>
	<guideline x="300" y="330" angle="90"/>
</glyph>
<glyph name="Aogonek" format="2">
	<unicode hex="0104"/>
	<advance width="600"/>
	<outline>
		<contour>
			<point x="30" y="0" type="line"/>
			<point x="89" y="0" type="line"/>
			<point x="152" y="193" type="line"/>
			<point x="446" y="193" type="line"/>
			<point x="511" y="0" type="line"/>
			<point x="453" y="-20"/>
			<point x="415" y="-70"/>
			<point x="415" y="-116" type="curve" smooth="yes"/>
			<point x="415" y="-178"/>
			<point x="455" y="-203"/>
			<point x="516" y="-203" type="curve" smooth="yes"/>
			<point x="544" y="-203"/>
			<point x="570" y="-196"/>
			<point x="579" y="-190" type="curve"/>
			<point x="579" y="-148" type="line"/>
			<point x="565" y="-154"/>
			<point x="544" y="-158"/>
			<point x="524" y="-158" type="curve" smooth="yes"/>
			<point x="490" y="-158"/>
			<point x="465" y="-143"/>
			<point x="465" y="-103" type="curve" smooth="yes"/>
			<point x="465" y="-65"/>
			<point x="492" y="-28"/>
			<point x="570" y="0" type="curve"/>
			<point x="331" y="688" type="line"/>
			<point x="264" y="688" type="line"/>
		</contour>
		<contour>
			<point x="168" y="242" type="line"/>
			<point x="297" y="633" type="line"/>
			<point x="429" y="242" type="line"/>
		</contour>
	</outline>
</glyph>
<glyph name="dcaron" format="2">
	<unicode hex="010F"/>
	<advance width="600"/>
	<outline>
		<contour>
			<point x="265" y="-14" type="curve"/>
			<point x="343" y="-14"/>
			<point x="402" y="35"/>
			<point x="431" y="114" type="curve"/>
			<point x="431" y="0" type="line"/>
			<point x="485" y="0" type="line"/>
			<point x="485" y="750" type="line"/>
			<point x="431" y="750" type="line"/>
			<point x="431" y="424" type="line"/>
			<point x="399" y="498"/>
			<point x="346" y="537"/>
			<point x="269" y="537" type="curve" smooth="yes"/>
			<point x="151" y="537"/>
			<point x="65" y="435"/>
			<point x="65" y="270" type="curve" smooth="yes"/>
			<point x="65" y="256" type="line" smooth="yes"/>
			<point x="65" y="86"/>
			<point x="143" y="-14"/>
		</contour>
		<contour>
			<point x="542" y="581" type="line"/>
			<point x="585" y="581" type="line"/>
			<point x="636" y="750" type="line"/>
			<point x="575" y="750" type="line"/>
		</contour>
		<contour>
			<point x="274" y="33" type="curve" smooth="yes"/>
			<point x="184" y="33"/>
			<point x="122" y="109"/>
			<point x="122" y="259" type="curve" smooth="yes"/>
			<point x="122" y="266" type="line" smooth="yes"/>
			<point x="122" y="411"/>
			<point x="184" y="489"/>
			<point x="277" y="489" type="curve" smooth="yes"/>
			<point x="370" y="489"/>
			<point x="434" y="411"/>
			<point x="434" y="265" type="curve" smooth="yes"/>
			<point x="434" y="258" type="line" smooth="yes"/>
			<point x="434" y="109"/>
			<point x="362" y="33"/>
		</contour>
	</outline>
</glyph>
<glyph name="Eogonek" format="2">
	<unicode hex="0118"/>
	<advance width="600"/>
	<outline>
		<contour>
			<point x="469" y="-203" type="curve" smooth="yes"/>
			<point x="497" y="-203"/>
			<point x="523" y="-196"/>
			<point x="532" y="-190" type="curve"/>
			<point x="532" y="-148" type="line"/>
			<point x="518" y="-154"/>
			<point x="497" y="-158"/>
			<point x="477" y="-158" type="curve" smooth="yes"/>
			<point x="443" y="-158"/>
			<point x="418" y="-143"/>
			<point x="418" y="-103" type="curve" smooth="yes"/>
			<point x="418" y="-65"/>
			<point x="445" y="-28"/>
			<point x="523" y="0" type="curve"/>
			<point x="523" y="50" type="line"/>
			<point x="156" y="50" type="line"/>
			<point x="156" y="319" type="line"/>
			<point x="482" y="319" type="line"/>
			<point x="482" y="368" type="line"/>
			<point x="156" y="368" type="line"/>
			<point x="156" y="635" type="line"/>
			<point x="515" y="635" type="line"/>
			<point x="515" y="684" type="line"/>
			<point x="101" y="684" type="line"/>
			<point x="101" y="0" type="line"/>
			<point x="464" y="0" type="line"/>
			<point x="406" y="-20"/>
			<point x="368" y="-70"/>
			<point x="368" y="-116" type="curve" smooth="yes"/>
			<point x="368" y="-178"/>
			<point x="408" y="-203"/>
		</contour>
	</outline>
</glyph>
<glyph name="iogonek" format="2">
	<unicode hex="012F"/>
	<advance width="600"/>
	<outline>
		<contour>
			<point x="316" y="650" type="curve" smooth="yes"/>
			<point x="352" y="650"/>
			<point x="364" y="666"/>
			<point x="364" y="694" type="curve" smooth="yes"/>
			<point x="364" y="722"/>
			<point x="352" y="738"/>
			<point x="316" y="738" type="curve" smooth="yes"/>
			<point x="280" y="738"/>
			<point x="268" y="722"/>
			<point x="268" y="694" type="curve" smooth="yes"/>
			<point x="268" y="666"/>
			<point x="280" y="650"/>
		</contour>
		<contour>
			<point x="94" y="0" type="line"/>
			<point x="477" y="0" type="line"/>
			<point x="419" y="-20"/>
			<point x="381" y="-70"/>
			<point x="381" y="-116" type="curve" smooth="yes"/>
			<point x="381" y="-178"/>
			<point x="421" y="-203"/>
			<point x="482" y="-203" type="curve" smooth="yes"/>
			<point x="510" y="-203"/>
			<point x="536" y="-196"/>
			<point x="545" y="-190" type="curve"/>
			<point x="545" y="-148" type="line"/>
			<point x="531" y="-154"/>
			<point x="510" y="-158"/>
			<point x="490" y="-158" type="curve" smooth="yes"/>
			<point x="456" y="-158"/>
			<point x="431" y="-143"/>
			<point x="431" y="-103" type="curve" smooth="yes"/>
			<point x="431" y="-65"/>
			<point x="458" y="-28"/>
			<point x="536" y="0" type="curve"/>
			<point x="536" y="48" type="line"/>
			<point x="346" y="48" type="line"/>
			<point x="346" y="523" type="line"/>
			<point x="94" y="523" type="line"/>
			<point x="94" y="475" type="line"/>
			<point x="292" y="475" type="line"/>
			<point x="292" y="48" type="line"/>
			<point x="94" y="48" type="line"/>
		</contour>
	</outline>
</glyph>
<glyph name="dotlessi" format="2">
	<unicode hex="0131"/>
	<advance width="600"/>
	<outline>
		<contour>
			<point x="94" y="0" type="line"/>
			<point x="536" y="0" type="line"/>
			<point x="536" y="48" type="line"/>
			<point x="346" y="48" type="line"/>
			<point x="346" y="523" type="line"/>
			<point x="94" y="523" type="line"/>
			<point x="94" y="475" type="line"/>
			<point x="292" y="475" type="line"/>
			<point x="292" y="48" type="line"/>
			<point x="94" y="48" type="line"/>
		</contour>
	</outline>
	<anchor name="ogonek" x="536" y="0"/>
	<anchor name="top" x="319" y="523"/>
</glyph>
<glyph name="IJ" format="2">
	<unicode hex="0132"/>
	<advance width="600"/>
	<outline>
		<contour>
			<point x="273" y="-13" type="curve" smooth="yes"/>
			<point x="404" y="-13"/>
			<point x="495" y="57"/>
			<point x="495" y="211" type="curve" smooth="yes"/>
			<point x="495" y="684" type="line"/>
			<point x="440" y="684" type="line"/>
			<point x="440" y="213" type="line" smooth="yes"/>
			<point x="440" y="89"/>
			<point x="378" y="35"/>
			<point x="272" y="35" type="curve" smooth="yes"/>
			<point x="204" y="35"/>
			<point x="147" y="54"/>
			<point x="103" y="80" type="curve"/>
			<point x="103" y="27" type="line"/>
			<point x="143" y="3"/>
			<point x="200" y="-13"/>
		</contour>
		<contour>
			<point x="103" y="194" type="line"/>
			<point x="156" y="194" type="line"/>
			<point x="156" y="684" type="line"/>
			<point x="103" y="684" type="line"/>
		</contour>
	</outline>
	<guideline x="103" y="684" angle="90"/>
	<guideline x="156" y="684" angle="90"/>
</glyph>
<glyph name="ij" format="2">
	<unicode hex="0133"/>
	<advance width="600"/>
	<outline>
		<contour>
			<point x="155" y="650" type="curve" smooth="yes"/>
			<point x="191" y="650"/>
			<point x="203" y="666"/>
			<point x="203" y="694" type="curve" smooth="yes"/>
			<point x="203" y="722"/>
			<point x="191" y="738"/>
			<point x="155" y="738" type="curve" smooth="yes"/>
			<point x="119" y="738"/>
			<point x="107" y="722"/>
			<point x="107" y="694" type="curve" smooth="yes"/>
			<point x="107" y="666"/>
			<point x="119" y="650"/>
		</contour>
		<contour>
			<point x="445" y="650" type="curve" smooth="yes"/>
			<point x="481" y="650"/>
			<point x="493" y="666"/>
			<point x="493" y="694" type="curve" smooth="yes"/>
			<point x="493" y="722"/>
			<point x="481" y="738"/>
			<point x="445" y="738" type="curve" smooth="yes"/>
			<point x="409" y="738"/>
			<point x="397" y="722"/>
			<point x="397" y="694" type="curve" smooth="yes"/>
			<point x="397" y="666"/>
			<point x="409" y="650"/>
		</contour>
		<contour>
			<point x="283" y="-204" type="curve" smooth="yes"/>
			<point x="382" y="-204"/>
			<point x="472" y="-162"/>
			<point x="472" y="-30" type="curve" smooth="yes"/>
			<point x="472" y="523" type="line"/>
			<point x="418" y="523" type="line"/>
			<point x="418" y="-20" type="line" smooth="yes"/>
			<point x="418" y="-116"/>
			<point x="380" y="-156"/>
			<point x="283" y="-156" type="curve" smooth="yes"/>
			<point x="230" y="-156"/>
			<point x="185" y="-144"/>
			<point x="159" y="-134" type="curve"/>
			<point x="159" y="-182" type="line"/>
			<point x="183" y="-193"/>
			<point x="235" y="-204"/>
		</contour>
		<contour>
			<point x="128" y="0" type="line"/>
			<point x="182" y="0" type="line"/>
			<point x="182" y="523" type="line"/>
			<point x="128" y="523" type="line"/>
		</contour>
	</outline>
	<guideline x="185" y="523" angle="90"/>
	<guideline x="131" y="523" angle="90"/>
</glyph>
<glyph name="ldot" format="2">
	<unicode hex="0140"/>
	<advance width="600"/>
	<outline>
		<contour>
			<point x="82" y="0" type="line"/>
			<point x="525" y="0" type="line"/>
			<point x="525" y="48" type="line"/>
			<point x="334" y="48" type="line"/>
			<point x="334" y="750" type="line"/>
			<point x="82" y="750" type="line"/>
			<point x="82" y="702" type="line"/>
			<point x="280" y="702" type="line"/>
			<point x="280" y="48" type="line"/>
			<point x="82" y="48" type="line"/>
		</contour>
		<contour>
			<point x="593" y="325" type="curve" smooth="yes"/>
			<point x="629" y="325"/>
			<point x="650" y="338"/>
			<point x="650" y="377" type="curve" smooth="yes"/>
			<point x="650" y="416"/>
			<point x="629" y="428"/>
			<point x="593" y="428" type="curve" smooth="yes"/>
			<point x="557" y="428"/>
			<point x="536" y="416"/>
			<point x="536" y="377" type="curve" smooth="yes"/>
			<point x="536" y="338"/>
			<point x="557" y="325"/>
		</contour>
	</outline>
</glyph>
<glyph name="lslash" format="2">
	<unicode hex="0142"/>
	<advance width="600"/>
	<outline>
		<contour>
			<point x="82" y="0" type="line"/>
			<point x="525" y="0" type="line"/>
			<point x="525" y="48" type="line"/>
			<point x="334" y="48" type="line"/>
			<point x="334" y="363" type="line"/>
			<point x="511" y="433" type="line"/>
			<point x="511" y="483" type="line"/>
			<point x="334" y="413" type="line"/>
			<point x="334" y="750" type="line"/>
			<point x="82" y="750" type="line"/>
			<point x="82" y="702" type="line"/>
			<point x="280" y="702" type="line"/>
			<point x="280" y="392" type="line"/>
			<point x="103" y="322" type="line"/>
			<point x="103" y="272" type="line"/>
			<point x="280" y="342" type="line"/>
			<point x="280" y="48" type="line"/>
			<point x="82" y="48" type="line"/>
		</contour>
	</outline>
</glyph>
<glyph name="eng" format="2">
	<unicode hex="014B"/>
	<advance width="600"/>
	<outline>
		<contour>
			<point x="374" y="-204" type="curve" smooth="yes"/>
			<point x="441" y="-204"/>
			<point x="498" y="-169"/>
			<point x="498" y="-80" type="curve" smooth="yes"/>
			<point x="498" y="345" type="line" smooth="yes"/>
			<point x="498" y="473"/>
			<point x="428" y="537"/>
			<point x="329" y="537" type="curve" smooth="yes"/>
			<point x="249" y="537"/>
			<point x="190" y="494"/>
			<point x="160" y="418" type="curve"/>
			<point x="160" y="523" type="line"/>
			<point x="106" y="523" type="line"/>
			<point x="106" y="0" type="line"/>
			<point x="160" y="0" type="line"/>
			<point x="160" y="298" type="line" smooth="yes"/>
			<point x="160" y="330"/>
			<point x="164" y="363"/>
			<point x="176" y="391" type="curve" smooth="yes"/>
			<point x="200" y="446"/>
			<point x="242" y="490"/>
			<point x="316" y="490" type="curve" smooth="yes"/>
			<point x="393" y="490"/>
			<point x="444" y="437"/>
			<point x="444" y="336" type="curve" smooth="yes"/>
			<point x="444" y="-74" type="line" smooth="yes"/>
			<point x="444" y="-129"/>
			<point x="419" y="-158"/>
			<point x="369" y="-158" type="curve" smooth="yes"/>
			<point x="349" y="-158"/>
			<point x="326" y="-153"/>
			<point x="313" y="-148" type="curve"/>
			<point x="313" y="-193" type="line"/>
			<point x="323" y="-198"/>
			<point x="350" y="-204"/>
		</contour>
	</outline>
	<guideline x="540" y="41" angle="90"/>
</glyph>
<glyph name="OE" format="2">
	<unicode hex="0152"/>
	<advance width="600"/>
	<outline>
		<contour>
			<point x="191" y="-13" type="curve" smooth="yes"/>
			<point x="245" y="-13"/>
			<point x="283" y="18"/>
			<point x="305" y="74" type="curve"/>
			<point x="305" y="0" type="line"/>
			<point x="564" y="0" type="line"/>
			<point x="564" y="50" type="line"/>
			<point x="357" y="50" type="line"/>
			<point x="357" y="319" type="line"/>
			<point x="539" y="319" type="line"/>
			<point x="539" y="366" type="line"/>
			<point x="357" y="366" type="line"/>
			<point x="357" y="636" type="line"/>
			<point x="560" y="636" type="line"/>
			<point x="560" y="684" type="line"/>
			<point x="259" y="684" type="line" smooth="yes"/>
			<point x="91" y="684"/>
			<point x="36" y="534"/>
			<point x="36" y="318" type="curve" smooth="yes"/>
			<point x="36" y="304" type="line" smooth="yes"/>
			<point x="36" y="94"/>
			<point x="81" y="-13"/>
		</contour>
		<contour>
			<point x="205" y="34" type="curve" smooth="yes"/>
			<point x="121" y="34"/>
			<point x="92" y="128"/>
			<point x="92" y="306" type="curve" smooth="yes"/>
			<point x="92" y="313" type="line" smooth="yes"/>
			<point x="92" y="504"/>
			<point x="125" y="636"/>
			<point x="257" y="636" type="curve" smooth="yes"/>
			<point x="305" y="636" type="line"/>
			<point x="305" y="185" type="line" smooth="yes"/>
			<point x="305" y="96"/>
			<point x="268" y="34"/>
		</contour>
	</outline>
</glyph>
<glyph name="oe" format="2">
	<unicode hex="0153"/>
	<advance width="600"/>
	<outline>
		<contour>
			<point x="158" y="-14" type="curve" smooth="yes"/>
			<point x="224" y="-14"/>
			<point x="271" y="34"/>
			<point x="290" y="138" type="curve"/>
			<point x="307" y="47"/>
			<point x="354" y="-14"/>
			<point x="450" y="-14" type="curve" smooth="yes"/>
			<point x="513" y="-14"/>
			<point x="553" y="9"/>
			<point x="573" y="27" type="curve"/>
			<point x="573" y="77" type="line"/>
			<point x="541" y="47"/>
			<point x="504" y="31"/>
			<point x="459" y="31" type="curve" smooth="yes"/>
			<point x="376" y="31"/>
			<point x="329" y="89"/>
			<point x="326" y="249" type="curve"/>
			<point x="584" y="249" type="line"/>
			<point x="584" y="279" type="line" smooth="yes"/>
			<point x="584" y="456"/>
			<point x="531" y="537"/>
			<point x="439" y="537" type="curve" smooth="yes"/>
			<point x="377" y="537"/>
			<point x="330" y="500"/>
			<point x="304" y="424" type="curve"/>
			<point x="282" y="497"/>
			<point x="237" y="537"/>
			<point x="174" y="537" type="curve" smooth="yes"/>
			<point x="75" y="537"/>
			<point x="16" y="436"/>
			<point x="16" y="267" type="curve" smooth="yes"/>
			<point x="16" y="253" type="line" smooth="yes"/>
			<point x="16" y="86"/>
			<point x="62" y="-14"/>
		</contour>
		<contour>
			<point x="170" y="32" type="curve" smooth="yes"/>
			<point x="98" y="32"/>
			<point x="68" y="111"/>
			<point x="68" y="257" type="curve" smooth="yes"/>
			<point x="68" y="264" type="line" smooth="yes"/>
			<point x="68" y="409"/>
			<point x="104" y="492"/>
			<point x="173" y="492" type="curve" smooth="yes"/>
			<point x="243" y="492"/>
			<point x="275" y="405"/>
			<point x="275" y="264" type="curve" smooth="yes"/>
			<point x="275" y="257" type="line" smooth="yes"/>
			<point x="275" y="116"/>
			<point x="244" y="32"/>
		</contour>
		<contour>
			<point x="435" y="492" type="curve" smooth="yes"/>
			<point x="500" y="492"/>
			<point x="532" y="433"/>
			<point x="534" y="292" type="curve"/>
			<point x="325" y="292" type="line"/>
			<point x="329" y="430"/>
			<point x="369" y="492"/>
		</contour>
	</outline>
	<guideline x="469" y="33" angle="0"/>
</glyph>
<glyph name="Tbar" format="2">
	<unicode hex="0166"/>
	<advance width="600"/>
	<outline>
		<contour>
			<point x="273" y="0" type="line"/>
			<point x="328" y="0" type="line"/>
			<point x="328" y="346" type="line"/>
			<point x="462" y="346" type="line"/>
			<point x="462" y="392" type="line"/>
			<point x="328" y="392" type="line"/>
			<point x="328" y="635" type="line"/>
			<point x="545" y="635" type="line"/>
			<point x="545" y="684" type="line"/>
			<point x="55" y="684" type="line"/>
			<point x="55" y="635" type="line"/>
			<point x="273" y="635" type="line"/>
			<point x="273" y="392" type="line"/>
			<point x="138" y="392" type="line"/>
			<point x="138" y="346" type="line"/>
			<point x="273" y="346" type="line"/>
		</contour>
	</outline>
</glyph>
<glyph name="Uogonek" format="2">
	<unicode hex="0172"/>
	<advance width="600"/>
	<outline>
		<contour>
			<point x="331" y="-203" type="curve" smooth="yes"/>
			<point x="359" y="-203"/>
			<point x="385" y="-196"/>
			<point x="394" y="-190" type="curve"/>
			<point x="394" y="-148" type="line"/>
			<point x="380" y="-154"/>
			<point x="359" y="-158"/>
			<point x="339" y="-158" type="curve" smooth="yes"/>
			<point x="305" y="-158"/>
			<point x="280" y="-143"/>
			<point x="280" y="-103" type="curve" smooth="yes"/>
			<point x="280" y="-65"/>
			<point x="307" y="-28"/>
			<point x="385" y="0" type="curve"/>
			<point x="385" y="0" type="line"/>
			<point x="476" y="33"/>
			<point x="517" y="123"/>
			<point x="517" y="253" type="curve" smooth="yes"/>
			<point x="517" y="684" type="line"/>
			<point x="462" y="684" type="line"/>
			<point x="462" y="253" type="line" smooth="yes"/>
			<point x="462" y="124"/>
			<point x="417" y="35"/>
			<point x="300" y="35" type="curve" smooth="yes"/>
			<point x="183" y="35"/>
			<point x="138" y="124"/>
			<point x="138" y="253" type="curve" smooth="yes"/>
			<point x="138" y="684" type="line"/>
			<point x="83" y="684" type="line"/>
			<point x="83" y="253" type="line" smooth="yes"/>
			<point x="83" y="87"/>
			<point x="144" y="-14"/>
			<point x="297" y="-14" type="curve"/>
			<point x="255" y="-40"/>
			<point x="230" y="-79"/>
			<point x="230" y="-116" type="curve" smooth="yes"/>
			<point x="230" y="-178"/>
			<point x="270" y="-203"/>
		</contour>
	</outline>
</glyph>
<glyph name="oslashacute" format="2">
	<unicode hex="01FF"/>
	<advance width="600"/>
	<outline>
		<contour>
			<point x="434" y="750" type="line"/>
			<point x="365" y="750" type="line"/>
			<point x="276" y="607" type="line"/>
			<point x="327" y="607" type="line"/>
		</contour>
		<contour>
			<point x="298" y="-14" type="curve" smooth="yes"/>
			<point x="425" y="-14"/>
			<point x="524" y="82"/>
			<point x="524" y="256" type="curve" smooth="yes"/>
			<point x="524" y="270" type="line" smooth="yes"/>
			<point x="524" y="346"/>
			<point x="505" y="409"/>
			<point x="471" y="454" type="curve"/>
			<point x="541" y="547" type="line"/>
			<point x="485" y="547" type="line"/>
			<point x="441" y="487" type="line"/>
			<point x="403" y="520"/>
			<point x="356" y="537"/>
			<point x="301" y="537" type="curve" smooth="yes"/>
			<point x="172" y="537"/>
			<point x="76" y="438"/>
			<point x="76" y="270" type="curve" smooth="yes"/>
			<point x="76" y="256" type="line" smooth="yes"/>
			<point x="76" y="178"/>
			<point x="96" y="115"/>
			<point x="129" y="70" type="curve"/>
			<point x="59" y="-24" type="line"/>
			<point x="115" y="-24" type="line"/>
			<point x="159" y="36" type="line"/>
			<point x="197" y="3"/>
			<point x="245" y="-14"/>
		</contour>
		<contour>
			<point x="133" y="259" type="curve" smooth="yes"/>
			<point x="133" y="266" type="line" smooth="yes"/>
			<point x="133" y="416"/>
			<point x="203" y="490"/>
			<point x="299" y="490" type="curve" smooth="yes"/>
			<point x="342" y="490"/>
			<point x="380" y="475"/>
			<point x="409" y="446" type="curve"/>
			<point x="163" y="116" type="line"/>
			<point x="144" y="152"/>
			<point x="133" y="199"/>
		</contour>
		<contour>
			<point x="300" y="34" type="curve" smooth="yes"/>
			<point x="257" y="34"/>
			<point x="220" y="48"/>
			<point x="191" y="78" type="curve"/>
			<point x="437" y="408" type="line"/>
			<point x="456" y="373"/>
			<point x="467" y="325"/>
			<point x="467" y="266" type="curve" smooth="yes"/>
			<point x="467" y="259" type="line" smooth="yes"/>
			<point x="467" y="108"/>
			<point x="398" y="34"/>
		</contour>
	</outline>
</glyph>
<glyph name="circumflex" format="2">
	<unicode hex="02C6"/>
	<advance width="600"/>
	<outline>
		<contour>
			<point x="151" y="607" type="line"/>
			<point x="208" y="607" type="line"/>
			<point x="300" y="715" type="line"/>
			<point x="390" y="607" type="line"/>
			<point x="449" y="607" type="line"/>
			<point x="327" y="750" type="line"/>
			<point x="273" y="750" type="line"/>
		</contour>
	</outline>
	<anchor name="_top" x="300" y="523"/>
</glyph>
<glyph name="caron" format="2">
	<unicode hex="02C7"/>
	<advance width="600"/>
	<outline>
		<contour>
			<point x="449" y="750" type="line"/>
			<point x="391" y="750" type="line"/>
			<point x="300" y="642" type="line"/>
			<point x="209" y="750" type="line"/>
			<point x="151" y="750" type="line"/>
			<point x="273" y="607" type="line"/>
			<point x="327" y="607" type="line"/>
		</contour>
	</outline>
	<anchor name="_top" x="300" y="523"/>
</glyph>
<glyph name="breve" format="2">
	<unicode hex="02D8"/>
	<advance width="600"/>
	<outline>
		<contour>
			<point x="299" y="597" type="curve" smooth="yes"/>
			<point x="395" y="597"/>
			<point x="438" y="640"/>
			<point x="438" y="750" type="curve"/>
			<point x="391" y="750" type="line"/>
			<point x="391" y="672"/>
			<point x="368" y="637"/>
			<point x="299" y="637" type="curve" smooth="yes"/>
			<point x="230" y="637"/>
			<point x="208" y="673"/>
			<point x="208" y="750" type="curve"/>
			<point x="162" y="750" type="line"/>
			<point x="162" y="640"/>
			<point x="203" y="597"/>
		</contour>
	</outline>
	<anchor name="_top" x="298" y="523"/>
</glyph>
<glyph name="dotaccent" format="2">
	<unicode hex="02D9"/>
	<advance width="600"/>
	<outline>
		<contour>
			<point x="300" y="638" type="curve" smooth="yes"/>
			<point x="336" y="638"/>
			<point x="348" y="654"/>
			<point x="348" y="682" type="curve" smooth="yes"/>
			<point x="348" y="710"/>
			<point x="336" y="726"/>
			<point x="300" y="726" type="curve" smooth="yes"/>
			<point x="264" y="726"/>
			<point x="252" y="710"/>
			<point x="252" y="682" type="curve" smooth="yes"/>
			<point x="252" y="654"/>
			<point x="264" y="638"/>
		</contour>
	</outline>
	<anchor name="_top" x="300" y="523"/>
</glyph>
<glyph name="ring" format="2">
	<unicode hex="02DA"/>
	<advance width="600"/>
	<outline>
		<contour>
			<point x="299" y="597" type="curve" smooth="yes"/>
			<point x="370" y="597"/>
			<point x="413" y="638"/>
			<point x="413" y="711" type="curve" smooth="yes"/>
			<point x="413" y="784"/>
			<point x="366" y="821"/>
			<point x="300" y="821" type="curve" smooth="yes"/>
			<point x="239" y="821"/>
			<point x="187" y="787"/>
			<point x="187" y="709" type="curve" smooth="yes"/>
			<point x="187" y="632"/>
			<point x="231" y="597"/>
		</contour>
		<contour>
			<point x="301" y="635" type="curve" smooth="yes"/>
			<point x="251" y="635"/>
			<point x="227" y="663"/>
			<point x="227" y="709" type="curve" smooth="yes"/>
			<point x="227" y="756"/>
			<point x="251" y="784"/>
			<point x="301" y="784" type="curve" smooth="yes"/>
			<point x="349" y="784"/>
			<point x="373" y="756"/>
			<point x="373" y="709" type="curve" smooth="yes"/>
			<point x="373" y="663"/>
			<point x="350" y="635"/>
		</contour>
	</outline>
	<anchor name="_top" x="300" y="523"/>
</glyph>
<glyph name="tilde" format="2">
	<unicode hex="02DC"/>
	<advance width="600"/>
	<outline>
		<contour>
			<point x="153" y="619" type="curve"/>
			<point x="197" y="619" type="line"/>
			<point x="197" y="667"/>
			<point x="208" y="689"/>
			<point x="235" y="689" type="curve" smooth="yes"/>
			<point x="279" y="689"/>
			<point x="299" y="615"/>
			<point x="365" y="615" type="curve" smooth="yes"/>
			<point x="414" y="615"/>
			<point x="447" y="641"/>
			<point x="447" y="728" type="curve"/>
			<point x="402" y="728" type="line"/>
			<point x="402" y="679"/>
			<point x="394" y="658"/>
			<point x="367" y="658" type="curve" smooth="yes"/>
			<point x="324" y="658"/>
			<point x="302" y="732"/>
			<point x="235" y="732" type="curve" smooth="yes"/>
			<point x="178" y="732"/>
			<point x="153" y="689"/>
		</contour>
	</outline>
	<anchor name="_top" x="301" y="523"/>
</glyph>
<glyph name="pi" format="2">
	<unicode hex="03C0"/>
	<advance width="600"/>
	<outline>
		<contour>
			<point x="123" y="-1" type="line"/>
			<point x="177" y="-1" type="line"/>
			<point x="177" y="476" type="line"/>
			<point x="412" y="476" type="line"/>
			<point x="412" y="97" type="line" smooth="yes"/>
			<point x="412" y="19"/>
			<point x="449" y="-12"/>
			<point x="517" y="-12" type="curve" smooth="yes"/>
			<point x="537" y="-12"/>
			<point x="554" y="-8"/>
			<point x="565" y="-3" type="curve"/>
			<point x="565" y="41" type="line"/>
			<point x="553" y="37"/>
			<point x="538" y="35"/>
			<point x="523" y="35" type="curve" smooth="yes"/>
			<point x="485" y="35"/>
			<point x="466" y="53"/>
			<point x="466" y="99" type="curve" smooth="yes"/>
			<point x="466" y="476" type="line"/>
			<point x="566" y="476" type="line"/>
			<point x="566" y="523" type="line"/>
			<point x="23" y="523" type="line"/>
			<point x="23" y="476" type="line"/>
			<point x="123" y="476" type="line"/>
		</contour>
	</outline>
</glyph>
<glyph name="quotesinglbase" format="2">
	<unicode hex="201A"/>
	<advance width="600"/>
	<outline>
		<contour>
			<point x="280" y="95" type="line"/>
			<point x="222" y="-175" type="line"/>
			<point x="262" y="-175" type="line"/>
			<point x="368" y="95" type="line"/>
		</contour>
	</outline>
</glyph>
<glyph name="quotedblright" format="2">
	<unicode hex="201D"/>
	<advance width="600"/>
	<outline>
		<contour>
			<point x="213" y="750" type="line"/>
			<point x="155" y="480" type="line"/>
			<point x="195" y="480" type="line"/>
			<point x="301" y="750" type="line"/>
		</contour>
		<contour>
			<point x="375" y="750" type="line"/>
			<point x="317" y="480" type="line"/>
			<point x="357" y="480" type="line"/>
			<point x="463" y="750" type="line"/>
		</contour>
	</outline>
</glyph>
<glyph name="dagger" format="2">
	<unicode hex="2020"/>
	<advance width="600"/>
	<outline>
		<contour>
			<point x="90" y="570" type="line"/>
			<point x="90" y="521" type="line"/>
			<point x="272" y="521" type="line"/>
			<point x="272" y="-143" type="line"/>
			<point x="327" y="-143" type="line"/>
			<point x="327" y="521" type="line"/>
			<point x="510" y="521" type="line"/>
			<point x="510" y="570" type="line"/>
			<point x="327" y="570" type="line"/>
			<point x="327" y="765" type="line"/>
			<point x="272" y="765" type="line"/>
			<point x="272" y="570" type="line"/>
		</contour>
	</outline>
</glyph>
<glyph name="daggerdbl" format="2">
	<unicode hex="2021"/>
	<advance width="600"/>
	<outline>
		<contour>
			<point x="90" y="198" type="line"/>
			<point x="90" y="149" type="line"/>
			<point x="273" y="149" type="line"/>
			<point x="273" y="-143" type="line"/>
			<point x="328" y="-143" type="line"/>
			<point x="328" y="149" type="line"/>
			<point x="510" y="149" type="line"/>
			<point x="510" y="198" type="line"/>
			<point x="328" y="198" type="line"/>
			<point x="328" y="520" type="line"/>
			<point x="510" y="520" type="line"/>
			<point x="510" y="568" type="line"/>
			<point x="328" y="568" type="line"/>
			<point x="328" y="765" type="line"/>
			<point x="273" y="765" type="line"/>
			<point x="273" y="568" type="line"/>
			<point x="90" y="568" type="line"/>
			<point x="90" y="520" type="line"/>
			<point x="273" y="520" type="line"/>
			<point x="273" y="198" type="line"/>
		</contour>
	</outline>
</glyph>
<glyph name="bullet" format="2">
	<unicode hex="2022"/>
	<advance width="600"/>
	<outline>
		<contour>
			<point x="300" y="184" type="curve" smooth="yes"/>
			<point x="370" y="184"/>
			<point x="412" y="217"/>
			<point x="412" y="302" type="curve" smooth="yes"/>
			<point x="412" y="387"/>
			<point x="370" y="417"/>
			<point x="300" y="417" type="curve" smooth="yes"/>
			<point x="229" y="417"/>
			<point x="188" y="386"/>
			<point x="188" y="302" type="curve" smooth="yes"/>
			<point x="188" y="218"/>
			<point x="229" y="184"/>
		</contour>
	</outline>
</glyph>
<glyph name="guilsinglleft" format="2">
	<unicode hex="2039"/>
	<advance width="600"/>
	<outline>
		<contour>
			<point x="371" y="77" type="line"/>
			<point x="447" y="77" type="line"/>
			<point x="215" y="288" type="line"/>
			<point x="447" y="497" type="line"/>
			<point x="370" y="497" type="line"/>
			<point x="142" y="287" type="line"/>
		</contour>
	</outline>
</glyph>
<glyph name="guilsinglright" format="2">
	<unicode hex="203A"/>
	<advance width="600"/>
	<outline>
		<contour>
			<point x="153" y="77" type="line"/>
			<point x="229" y="77" type="line"/>
			<point x="458" y="287" type="line"/>
			<point x="229" y="497" type="line"/>
			<point x="153" y="497" type="line"/>
			<point x="386" y="288" type="line"/>
		</contour>
	</outline>
</glyph>
<glyph name="published" format="2">
	<unicode hex="2117"/>
	<advance width="600"/>
	<outline>
		<contour>
			<point x="300" y="106" type="curve" smooth="yes"/>
			<point x="444" y="106"/>
			<point x="553" y="200"/>
			<point x="553" y="375" type="curve" smooth="yes"/>
			<point x="553" y="389" type="line" smooth="yes"/>
			<point x="553" y="561"/>
			<point x="442" y="657"/>
			<point x="300" y="657" type="curve" smooth="yes"/>
			<point x="158" y="657"/>
			<point x="47" y="561"/>
			<point x="47" y="389" type="curve" smooth="yes"/>
			<point x="47" y="375" type="line" smooth="yes"/>
			<point x="47" y="200"/>
			<point x="156" y="106"/>
		</contour>
		<contour>
			<point x="300" y="145" type="curve" smooth="yes"/>
			<point x="164" y="145"/>
			<point x="87" y="235"/>
			<point x="87" y="378" type="curve" smooth="yes"/>
			<point x="87" y="385" type="line" smooth="yes"/>
			<point x="87" y="527"/>
			<point x="168" y="618"/>
			<point x="300" y="618" type="curve" smooth="yes"/>
			<point x="432" y="618"/>
			<point x="513" y="526"/>
			<point x="513" y="385" type="curve" smooth="yes"/>
			<point x="513" y="378" type="line" smooth="yes"/>
			<point x="513" y="235"/>
			<point x="436" y="145"/>
		</contour>
		<contour>
			<point x="215" y="248" type="line"/>
			<point x="252" y="248" type="line"/>
			<point x="252" y="338" type="line"/>
			<point x="315" y="338" type="line" smooth="yes"/>
			<point x="372" y="338"/>
			<point x="409" y="373"/>
			<point x="409" y="426" type="curve" smooth="yes"/>
			<point x="409" y="479"/>
			<point x="374" y="509"/>
			<point x="316" y="509" type="curve" smooth="yes"/>
			<point x="215" y="509" type="line"/>
		</contour>
		<contour>
			<point x="313" y="479" type="line" smooth="yes"/>
			<point x="349" y="479"/>
			<point x="372" y="459"/>
			<point x="372" y="426" type="curve" smooth="yes"/>
			<point x="372" y="393"/>
			<point x="350" y="369"/>
			<point x="313" y="369" type="curve" smooth="yes"/>
			<point x="252" y="369" type="line"/>
			<point x="252" y="479" type="line"/>
		</contour>
	</outline>
</glyph>
<glyph name="servicemark" format="2">
	<unicode hex="2120"/>
	<advance width="600"/>
	<outline>
		<contour>
			<point x="149" y="337" type="curve" smooth="yes"/>
			<point x="206" y="337"/>
			<point x="254" y="376"/>
			<point x="254" y="441" type="curve" smooth="yes"/>
			<point x="254" y="507"/>
			<point x="205" y="522"/>
			<point x="149" y="531" type="curve" smooth="yes"/>
			<point x="98" y="539"/>
			<point x="69" y="552"/>
			<point x="69" y="593" type="curve" smooth="yes"/>
			<point x="69" y="629"/>
			<point x="93" y="657"/>
			<point x="144" y="657" type="curve" smooth="yes"/>
			<point x="189" y="657"/>
			<point x="223" y="640"/>
			<point x="249" y="617" type="curve"/>
			<point x="249" y="657" type="line"/>
			<point x="232" y="669"/>
			<point x="198" y="689"/>
			<point x="146" y="689" type="curve" smooth="yes"/>
			<point x="80" y="689"/>
			<point x="33" y="653"/>
			<point x="33" y="587" type="curve" smooth="yes"/>
			<point x="33" y="519"/>
			<point x="87" y="504"/>
			<point x="140" y="496" type="curve" smooth="yes"/>
			<point x="193" y="488"/>
			<point x="218" y="475"/>
			<point x="218" y="435" type="curve" smooth="yes"/>
			<point x="218" y="398"/>
			<point x="189" y="370"/>
			<point x="149" y="370" type="curve" smooth="yes"/>
			<point x="102" y="370"/>
			<point x="65" y="389"/>
			<point x="37" y="414" type="curve"/>
			<point x="37" y="372" type="line"/>
			<point x="58" y="356"/>
			<point x="93" y="337"/>
		</contour>
		<contour>
			<point x="296" y="342" type="line"/>
			<point x="332" y="342" type="line"/>
			<point x="332" y="545" type="line" smooth="yes"/>
			<point x="332" y="578"/>
			<point x="331" y="613"/>
			<point x="329" y="644" type="curve"/>
			<point x="332" y="644" type="line"/>
			<point x="397" y="436" type="line"/>
			<point x="440" y="436" type="line"/>
			<point x="507" y="644" type="line"/>
			<point x="510" y="644" type="line"/>
			<point x="508" y="614"/>
			<point x="507" y="578"/>
			<point x="507" y="545" type="curve" smooth="yes"/>
			<point x="507" y="342" type="line"/>
			<point x="543" y="342" type="line"/>
			<point x="543" y="684" type="line"/>
			<point x="483" y="684" type="line"/>
			<point x="419" y="478" type="line"/>
			<point x="417" y="478" type="line"/>
			<point x="356" y="684" type="line"/>
			<point x="296" y="684" type="line"/>
		</contour>
	</outline>
</glyph>
<glyph name="ohm" format="2">
	<unicode hex="2126"/>
	<advance width="600"/>
	<outline>
		<contour>
			<point x="66" y="0" type="line"/>
			<point x="273" y="0" type="line"/>
			<point x="273" y="48" type="line"/>
			<point x="178" y="132"/>
			<point x="120" y="246"/>
			<point x="120" y="387" type="curve" smooth="yes"/>
			<point x="120" y="394" type="line" smooth="yes"/>
			<point x="120" y="566"/>
			<point x="185" y="650"/>
			<point x="301" y="650" type="curve" smooth="yes"/>
			<point x="416" y="650"/>
			<point x="480" y="566"/>
			<point x="480" y="394" type="curve" smooth="yes"/>
			<point x="480" y="387" type="line" smooth="yes"/>
			<point x="480" y="248"/>
			<point x="421" y="131"/>
			<point x="327" y="48" type="curve"/>
			<point x="327" y="0" type="line"/>
			<point x="532" y="0" type="line"/>
			<point x="532" y="50" type="line"/>
			<point x="394" y="50" type="line"/>
			<point x="459" y="111"/>
			<point x="538" y="224"/>
			<point x="538" y="383" type="curve" smooth="yes"/>
			<point x="538" y="397" type="line" smooth="yes"/>
			<point x="538" y="583"/>
			<point x="450" y="698"/>
			<point x="301" y="698" type="curve" smooth="yes"/>
			<point x="157" y="698"/>
			<point x="62" y="588"/>
			<point x="62" y="397" type="curve" smooth="yes"/>
			<point x="62" y="383" type="line" smooth="yes"/>
			<point x="62" y="227"/>
			<point x="125" y="124"/>
			<point x="203" y="50" type="curve"/>
			<point x="66" y="50" type="line"/>
		</contour>
	</outline>
	<guideline x="680" y="422" angle="90"/>
	<guideline x="56" y="421" angle="90"/>
	<guideline x="120" y="566" angle="0"/>
	<guideline x="300" y="2" angle="90"/>
	<guideline x="120" y="248" angle="0"/>
</glyph>
<glyph name="arrowleft" format="2">
	<unicode hex="2190"/>
	<advance width="600"/>
	<outline>
		<contour>
			<point x="320" y="140" type="line"/>
			<point x="118" y="341" type="line"/>
			<point x="552" y="341" type="line"/>
			<point x="552" y="391" type="line"/>
			<point x="117" y="391" type="line"/>
			<point x="319" y="591" type="line"/>
			<point x="250" y="591" type="line"/>
			<point x="25" y="366" type="line"/>
			<point x="251" y="140" type="line"/>
		</contour>
	</outline>
	<guideline x="12" y="265" angle="0"/>
	<guideline x="35" y="366" angle="315"/>
	<guideline x="330" y="140" angle="90"/>
</glyph>
<glyph name="arrowup" format="2">
	<unicode hex="2191"/>
	<advance width="600"/>
	<outline>
		<contour>
			<point x="275" y="0" type="line"/>
			<point x="325" y="0" type="line"/>
			<point x="325" y="610" type="line"/>
			<point x="525" y="409" type="line"/>
			<point x="525" y="478" type="line"/>
			<point x="300" y="703" type="line"/>
			<point x="75" y="478" type="line"/>
			<point x="75" y="409" type="line"/>
			<point x="275" y="610" type="line"/>
		</contour>
	</outline>
	<guideline x="525" y="473" angle="0"/>
	<guideline x="292" y="605" angle="0"/>
</glyph>
<glyph name="uni2196" format="2">
	<unicode hex="2196"/>
	<advance width="600"/>
	<outline>
		<contour>
			<point x="546" y="76" type="line"/>
			<point x="582" y="112" type="line"/>
			<point x="131" y="562" type="line"/>
			<point x="443" y="561" type="line"/>
			<point x="394" y="610" type="line"/>
			<point x="48" y="610" type="line"/>
			<point x="48" y="264" type="line"/>
			<point x="96" y="216" type="line"/>
			<point x="95" y="528" type="line"/>
		</contour>
	</outline>
</glyph>
<glyph name="uni2197" format="2">
	<unicode hex="2197"/>
	<advance width="600"/>
	<outline>
		<contour>
			<point x="54" y="76" type="line"/>
			<point x="504" y="527" type="line"/>
			<point x="503" y="215" type="line"/>
			<point x="552" y="264" type="line"/>
			<point x="552" y="610" type="line"/>
			<point x="206" y="610" type="line"/>
			<point x="158" y="562" type="line"/>
			<point x="470" y="563" type="line"/>
			<point x="18" y="112" type="line"/>
		</contour>
	</outline>
	<guideline x="54" y="76" angle="0"/>
</glyph>
<glyph name="uni2199" format="2">
	<unicode hex="2199"/>
	<advance width="600"/>
	<outline>
		<contour>
			<point x="48" y="76" type="line"/>
			<point x="394" y="76" type="line"/>
			<point x="442" y="124" type="line"/>
			<point x="130" y="123" type="line"/>
			<point x="582" y="574" type="line"/>
			<point x="546" y="610" type="line"/>
			<point x="96" y="159" type="line"/>
			<point x="97" y="471" type="line"/>
			<point x="48" y="422" type="line"/>
		</contour>
	</outline>
</glyph>
<glyph name="increment" format="2">
	<unicode hex="2206"/>
	<advance width="600"/>
	<outline>
		<contour>
			<point x="30" y="0" type="line"/>
			<point x="570" y="0" type="line"/>
			<point x="331" y="688" type="line"/>
			<point x="264" y="688" type="line"/>
		</contour>
		<contour>
			<point x="105" y="49" type="line"/>
			<point x="297" y="633" type="line"/>
			<point x="494" y="49" type="line"/>
		</contour>
	</outline>
</glyph>
<glyph name="integral" format="2">
	<unicode hex="222B"/>
	<advance width="600"/>
	<outline>
		<contour>
			<point x="168" y="-204" type="curve" smooth="yes"/>
			<point x="249" y="-204"/>
			<point x="316" y="-160"/>
			<point x="316" y="-39" type="curve" smooth="yes"/>
			<point x="316" y="508" type="line" smooth="yes"/>
			<point x="316" y="614"/>
			<point x="359" y="649"/>
			<point x="425" y="649" type="curve"/>
			<point x="451" y="649"/>
			<point x="477" y="644"/>
			<point x="500" y="637" type="curve"/>
			<point x="500" y="682" type="line"/>
			<point x="482" y="689"/>
			<point x="451" y="695"/>
			<point x="422" y="695" type="curve" smooth="yes"/>
			<point x="323" y="695"/>
			<point x="262" y="636"/>
			<point x="262" y="518" type="curve" smooth="yes"/>
			<point x="262" y="-32" type="line" smooth="yes"/>
			<point x="262" y="-120"/>
			<point x="235" y="-159"/>
			<point x="166" y="-159" type="curve" smooth="yes"/>
			<point x="134" y="-159"/>
			<point x="102" y="-153"/>
			<point x="74" y="-141" type="curve"/>
			<point x="74" y="-185" type="line"/>
			<point x="92" y="-195"/>
			<point x="132" y="-204"/>
		</contour>
	</outline>
</glyph>
<glyph name="approxequal" format="2">
	<unicode hex="2248"/>
	<advance width="600"/>
	<outline>
		<contour>
			<point x="178" y="409" type="curve" smooth="yes"/>
			<point x="244" y="409"/>
			<point x="330" y="353"/>
			<point x="422" y="353" type="curve" smooth="yes"/>
			<point x="463" y="353"/>
			<point x="504" y="369"/>
			<point x="520" y="394" type="curve"/>
			<point x="520" y="450" type="line"/>
			<point x="492" y="414"/>
			<point x="453" y="400"/>
			<point x="415" y="402" type="curve" smooth="yes"/>
			<point x="370" y="404"/>
			<point x="255" y="458"/>
			<point x="178" y="458" type="curve" smooth="yes"/>
			<point x="137" y="458"/>
			<point x="96" y="443"/>
			<point x="80" y="418" type="curve"/>
			<point x="80" y="361" type="line"/>
			<point x="104" y="394"/>
			<point x="142" y="409"/>
		</contour>
		<contour>
			<point x="178" y="204" type="curve" smooth="yes"/>
			<point x="244" y="204"/>
			<point x="330" y="148"/>
			<point x="422" y="148" type="curve" smooth="yes"/>
			<point x="463" y="148"/>
			<point x="504" y="164"/>
			<point x="520" y="189" type="curve"/>
			<point x="520" y="245" type="line"/>
			<point x="492" y="209"/>
			<point x="453" y="195"/>
			<point x="415" y="197" type="curve" smooth="yes"/>
			<point x="369" y="199"/>
			<point x="253" y="253"/>
			<point x="175" y="253" type="curve" smooth="yes"/>
			<point x="134" y="253"/>
			<point x="96" y="237"/>
			<point x="80" y="213" type="curve"/>
			<point x="80" y="156" type="line"/>
			<point x="104" y="189"/>
			<point x="142" y="204"/>
		</contour>
	</outline>
</glyph>
<glyph name="notequal" format="2">
	<unicode hex="2260"/>
	<advance width="600"/>
	<outline>
		<contour>
			<point x="130" y="97" type="line"/>
			<point x="186" y="97" type="line"/>
			<point x="240" y="177" type="line"/>
			<point x="520" y="177" type="line"/>
			<point x="520" y="228" type="line"/>
			<point x="275" y="228" type="line"/>
			<point x="381" y="384" type="line"/>
			<point x="520" y="384" type="line"/>
			<point x="520" y="435" type="line"/>
			<point x="416" y="435" type="line"/>
			<point x="470" y="515" type="line"/>
			<point x="414" y="515" type="line"/>
			<point x="360" y="435" type="line"/>
			<point x="80" y="435" type="line"/>
			<point x="80" y="384" type="line"/>
			<point x="325" y="384" type="line"/>
			<point x="219" y="228" type="line"/>
			<point x="80" y="228" type="line"/>
			<point x="80" y="177" type="line"/>
			<point x="184" y="177" type="line"/>
		</contour>
	</outline>
	<guideline x="80" y="144" angle="90"/>
	<guideline x="520" y="336" angle="90"/>
</glyph>
<glyph name="lozenge" format="2">
	<unicode hex="25CA"/>
	<advance width="600"/>
	<outline>
		<contour>
			<point x="270" y="0" type="line"/>
			<point x="330" y="0" type="line"/>
			<point x="556" y="342" type="line"/>
			<point x="329" y="684" type="line"/>
			<point x="268" y="684" type="line"/>
			<point x="44" y="342" type="line"/>
		</contour>
		<contour>
			<point x="108" y="342" type="line"/>
			<point x="298" y="638" type="line"/>
			<point x="492" y="342" type="line"/>
			<point x="300" y="48" type="line"/>
		</contour>
	</outline>
</glyph>
<glyph name="anglebracketright" format="2">
	<unicode hex="3009"/>
	<advance width="600"/>
	<outline>
		<contour>
			<point x="84" y="-163" type="line"/>
			<point x="144" y="-163" type="line"/>
			<point x="459" y="316" type="line"/>
			<point x="145" y="792" type="line"/>
			<point x="84" y="792" type="line"/>
			<point x="398" y="316" type="line"/>
		</contour>
	</outline>
</glyph>
<glyph name="Lslashcomb" format="2">
	<advance width="600"/>
	<outline>
		<contour>
			<point x="37" y="388" type="line"/>
			<point x="37" y="338" type="line"/>
			<point x="359" y="470" type="line"/>
			<point x="359" y="520" type="line"/>
		</contour>
	</outline>
	<anchor name="_center" x="142" y="398"/>
	<guideline x="359" y="485" angle="207.7934"/>
</glyph>
<glyph name=".notdef" format="2">
	<advance width="600"/>
	<outline>
		<contour>
			<point x="75" y="-100" type="line"/>
			<point x="525" y="-100" type="line"/>
			<point x="525" y="784" type="line"/>
			<point x="75" y="784" type="line"/>
		</contour>
		<contour>
			<point x="116" y="-63.1" type="line"/>
			<point x="116" y="747.1" type="line"/>
			<point x="484" y="747.1" type="line"/>
			<point x="484" y="-63.1" type="line"/>
		</contour>
	</outline>
</glyph>
<glyph name="acute.cap" format="2">
	<advance width="600"/>
	<outline>
		<contour>
			<point x="232" y="750" type="line"/>
			<point x="283" y="750" type="line"/>
			<point x="367" y="884" type="line"/>
			<point x="303" y="884" type="line"/>
		</contour>
	</outline>
	<anchor name="_top" x="257" y="684"/>
</glyph>
<glyph name="asciicircum_equal.cLig" format="2">
	<advance width="600"/>
	<outline>
		<contour>
			<point x="-438" y="384" type="line"/>
			<point x="-377" y="384" type="line"/>
			<point x="-222" y="672" type="line"/>
			<point x="-69" y="384" type="line"/>
			<point x="403" y="384" type="line"/>
			<point x="403" y="435" type="line"/>
			<point x="-36" y="435" type="line"/>
			<point x="-195" y="722" type="line"/>
			<point x="-252" y="722" type="line"/>
		</contour>
		<contour>
			<point x="-37" y="177" type="line"/>
			<point x="403" y="177" type="line"/>
			<point x="403" y="228" type="line"/>
			<point x="-37" y="228" type="line"/>
		</contour>
	</outline>
</glyph>
<glyph name="asciitilde_asciitilde_asciitilde.rem" format="2">
	<advance width="600"/>
	<outline>
		<contour>
			<point x="-611" y="227" type="curve"/>
			<point x="-499" y="227"/>
			<point x="-489" y="356"/>
			<point x="-409" y="356" type="curve" smooth="yes"/>
			<point x="-330" y="356"/>
			<point x="-305" y="227"/>
			<point x="-192" y="227" type="curve" smooth="yes"/>
			<point x="-76" y="227"/>
			<point x="-68" y="356"/>
			<point x="19" y="356" type="curve"/>
			<point x="101" y="356"/>
			<point x="118" y="227"/>
			<point x="226" y="227" type="curve"/>
			<point x="324" y="227"/>
			<point x="368" y="304"/>
			<point x="380" y="402" type="curve"/>
			<point x="327" y="402" type="line"/>
			<point x="317" y="330"/>
			<point x="295" y="278"/>
			<point x="231" y="278" type="curve"/>
			<point x="149" y="278"/>
			<point x="138" y="406"/>
			<point x="17" y="406" type="curve"/>
			<point x="-99" y="406"/>
			<point x="-109" y="277"/>
			<point x="-191" y="277" type="curve" smooth="yes"/>
			<point x="-277" y="277"/>
			<point x="-292" y="406"/>
			<point x="-407" y="406" type="curve" smooth="yes"/>
			<point x="-521" y="406"/>
			<point x="-528" y="277"/>
			<point x="-613" y="277" type="curve"/>
			<point x="-700" y="277"/>
			<point x="-718" y="406"/>
			<point x="-828" y="406" type="curve" smooth="yes"/>
			<point x="-920" y="406"/>
			<point x="-968" y="327"/>
			<point x="-980" y="231" type="curve"/>
			<point x="-927" y="231" type="line"/>
			<point x="-917" y="293"/>
			<point x="-896" y="355"/>
			<point x="-831" y="355" type="curve" smooth="yes"/>
			<point x="-750" y="355"/>
			<point x="-738" y="227"/>
		</contour>
	</outline>
	<guideline x="-555" y="404" angle="0" identifier="KFxOgg1Sv4"/>
</glyph>
<glyph name="asciitilde_at.cLig" format="2">
	<advance width="600"/>
	<outline>
		<contour>
			<point x="373" y="-14" type="curve"/>
			<point x="461" y="-14"/>
			<point x="516" y="78"/>
			<point x="516" y="289" type="curve" smooth="yes"/>
			<point x="516" y="303" type="line" smooth="yes"/>
			<point x="516" y="550"/>
			<point x="430" y="698"/>
			<point x="195" y="698" type="curve" smooth="yes"/>
			<point x="-32" y="698"/>
			<point x="-108" y="577"/>
			<point x="-150" y="380" type="curve" smooth="yes"/>
			<point x="-166" y="306"/>
			<point x="-180" y="270"/>
			<point x="-228" y="270" type="curve" smooth="yes"/>
			<point x="-294" y="270"/>
			<point x="-307" y="406"/>
			<point x="-410" y="406" type="curve" smooth="yes"/>
			<point x="-490" y="406"/>
			<point x="-525" y="337"/>
			<point x="-525" y="231" type="curve"/>
			<point x="-473" y="231" type="line"/>
			<point x="-473" y="313"/>
			<point x="-457" y="355"/>
			<point x="-413" y="355" type="curve" smooth="yes"/>
			<point x="-344" y="355"/>
			<point x="-328" y="218"/>
			<point x="-230" y="218" type="curve" smooth="yes"/>
			<point x="-161" y="218"/>
			<point x="-122" y="264"/>
			<point x="-99" y="376" type="curve" smooth="yes"/>
			<point x="-63" y="553"/>
			<point x="13" y="650"/>
			<point x="194" y="650" type="curve" smooth="yes"/>
			<point x="404" y="650"/>
			<point x="464" y="510"/>
			<point x="464" y="299" type="curve" smooth="yes"/>
			<point x="464" y="292" type="line" smooth="yes"/>
			<point x="464" y="109"/>
			<point x="432" y="30"/>
			<point x="376" y="30" type="curve" smooth="yes"/>
			<point x="337" y="30"/>
			<point x="327" y="62"/>
			<point x="327" y="117" type="curve"/>
			<point x="327" y="482" type="line"/>
			<point x="277" y="482" type="line"/>
			<point x="277" y="396" type="line"/>
			<point x="256" y="455"/>
			<point x="212" y="492"/>
			<point x="151" y="492" type="curve" smooth="yes"/>
			<point x="57" y="492"/>
			<point x="-4" y="411"/>
			<point x="-4" y="277" type="curve" smooth="yes"/>
			<point x="-4" y="142"/>
			<point x="55" y="64"/>
			<point x="150" y="64" type="curve" smooth="yes"/>
			<point x="221" y="64"/>
			<point x="262" y="106"/>
			<point x="278" y="174" type="curve"/>
			<point x="278" y="117" type="line" smooth="yes"/>
			<point x="278" y="24"/>
			<point x="307" y="-14"/>
		</contour>
		<contour>
			<point x="158" y="110" type="curve" smooth="yes"/>
			<point x="85" y="110"/>
			<point x="49" y="171"/>
			<point x="49" y="278" type="curve" smooth="yes"/>
			<point x="49" y="384"/>
			<point x="85" y="443"/>
			<point x="158" y="443" type="curve" smooth="yes"/>
			<point x="226" y="443"/>
			<point x="276" y="384"/>
			<point x="276" y="277" type="curve" smooth="yes"/>
			<point x="276" y="171"/>
			<point x="234" y="110"/>
		</contour>
	</outline>
</glyph>
<glyph name="asciitilde_greater.cLig" format="2">
	<advance width="600"/>
	<outline>
		<contour>
			<point x="127" y="629" type="line"/>
			<point x="394" y="340" type="line"/>
			<point x="-118" y="340" type="line"/>
			<point x="-125" y="291"/>
			<point x="-150" y="266"/>
			<point x="-182" y="266" type="curve" smooth="yes"/>
			<point x="-260" y="266"/>
			<point x="-272" y="404"/>
			<point x="-383" y="404" type="curve" smooth="yes"/>
			<point x="-448" y="404"/>
			<point x="-500" y="365"/>
			<point x="-500" y="237" type="curve"/>
			<point x="-447" y="237" type="line"/>
			<point x="-447" y="320"/>
			<point x="-428" y="354"/>
			<point x="-385" y="354" type="curve"/>
			<point x="-305" y="354"/>
			<point x="-292" y="215"/>
			<point x="-186" y="215" type="curve" smooth="yes"/>
			<point x="-134" y="215"/>
			<point x="-99" y="243"/>
			<point x="-81" y="289" type="curve"/>
			<point x="395" y="289" type="line"/>
			<point x="131" y="0" type="line"/>
			<point x="201" y="0" type="line"/>
			<point x="485" y="314" type="line"/>
			<point x="198" y="629" type="line"/>
		</contour>
	</outline>
</glyph>
<glyph name="asciitilde_hyphen.cLig" format="2">
	<advance width="600"/>
	<outline>
		<contour>
			<point x="380" y="339" type="line"/>
			<point x="22" y="339" type="line"/>
			<point x="15" y="290"/>
			<point x="-10" y="265"/>
			<point x="-42" y="265" type="curve" smooth="yes"/>
			<point x="-120" y="265"/>
			<point x="-132" y="403"/>
			<point x="-243" y="403" type="curve" smooth="yes"/>
			<point x="-308" y="403"/>
			<point x="-360" y="364"/>
			<point x="-360" y="236" type="curve"/>
			<point x="-307" y="236" type="line"/>
			<point x="-307" y="319"/>
			<point x="-288" y="353"/>
			<point x="-245" y="353" type="curve"/>
			<point x="-165" y="353"/>
			<point x="-152" y="214"/>
			<point x="-46" y="214" type="curve" smooth="yes"/>
			<point x="6" y="214"/>
			<point x="41" y="242"/>
			<point x="59" y="288" type="curve"/>
			<point x="380" y="288" type="line"/>
		</contour>
	</outline>
</glyph>
<glyph name="asterisk_asterisk_asterisk.cLig" format="2">
	<advance width="600"/>
	<outline>
		<contour>
			<point x="-112" y="304" type="line"/>
			<point x="-80" y="360" type="line"/>
			<point x="-261" y="449" type="line"/>
			<point x="-80" y="539" type="line"/>
			<point x="-112" y="595" type="line"/>
			<point x="-280" y="483" type="line"/>
			<point x="-268" y="684" type="line"/>
			<point x="-332" y="684" type="line"/>
			<point x="-319" y="482" type="line"/>
			<point x="-489" y="594" type="line"/>
			<point x="-521" y="539" type="line"/>
			<point x="-339" y="449" type="line"/>
			<point x="-520" y="359" type="line"/>
			<point x="-488" y="303" type="line"/>
			<point x="-319" y="415" type="line"/>
			<point x="-331" y="213" type="line"/>
			<point x="-267" y="213" type="line"/>
			<point x="-280" y="415" type="line"/>
		</contour>
		<contour>
			<point x="-671" y="91" type="line"/>
			<point x="-639" y="147" type="line"/>
			<point x="-820" y="236" type="line"/>
			<point x="-639" y="326" type="line"/>
			<point x="-671" y="382" type="line"/>
			<point x="-839" y="270" type="line"/>
			<point x="-827" y="471" type="line"/>
			<point x="-891" y="471" type="line"/>
			<point x="-878" y="269" type="line"/>
			<point x="-1048" y="381" type="line"/>
			<point x="-1080" y="326" type="line"/>
			<point x="-898" y="236" type="line"/>
			<point x="-1079" y="146" type="line"/>
			<point x="-1047" y="90" type="line"/>
			<point x="-878" y="202" type="line"/>
			<point x="-890" y="0" type="line"/>
			<point x="-826" y="0" type="line"/>
			<point x="-839" y="202" type="line"/>
		</contour>
		<contour>
			<point x="448" y="91" type="line"/>
			<point x="480" y="147" type="line"/>
			<point x="299" y="236" type="line"/>
			<point x="480" y="326" type="line"/>
			<point x="448" y="382" type="line"/>
			<point x="280" y="270" type="line"/>
			<point x="292" y="471" type="line"/>
			<point x="228" y="471" type="line"/>
			<point x="241" y="269" type="line"/>
			<point x="71" y="381" type="line"/>
			<point x="39" y="326" type="line"/>
			<point x="221" y="236" type="line"/>
			<point x="40" y="146" type="line"/>
			<point x="72" y="90" type="line"/>
			<point x="241" y="202" type="line"/>
			<point x="229" y="0" type="line"/>
			<point x="293" y="0" type="line"/>
			<point x="280" y="202" type="line"/>
		</contour>
	</outline>
</glyph>
<glyph name="bar_bar_bar.rem" format="2">
	<advance width="600"/>
	<outline>
		<contour>
			<point x="173" y="792" type="line"/>
			<point x="173" y="-163" type="line"/>
			<point x="225" y="-163" type="line"/>
			<point x="225" y="792" type="line"/>
		</contour>
		<contour>
			<point x="-825" y="792" type="line"/>
			<point x="-825" y="-163" type="line"/>
			<point x="-773" y="-163" type="line"/>
			<point x="-773" y="792" type="line"/>
		</contour>
		<contour>
			<point x="-326" y="792" type="line"/>
			<point x="-326" y="-163" type="line"/>
			<point x="-274" y="-163" type="line"/>
			<point x="-274" y="792" type="line"/>
		</contour>
	</outline>
</glyph>
<glyph name="bar_equal.fina" format="2">
	<advance width="600"/>
	<outline>
		<contour>
			<point x="0" y="186" type="line"/>
			<point x="384" y="186" type="line"/>
			<point x="384" y="-55" type="line"/>
			<point x="436" y="-55" type="line"/>
			<point x="436" y="684" type="line"/>
			<point x="384" y="684" type="line"/>
			<point x="384" y="443" type="line"/>
			<point x="0" y="443" type="line"/>
			<point x="0" y="392" type="line"/>
			<point x="384" y="392" type="line"/>
			<point x="384" y="237" type="line"/>
			<point x="0" y="237" type="line"/>
		</contour>
	</outline>
</glyph>
<glyph name="bar_hyphen.fina" format="2">
	<advance width="600"/>
	<outline>
		<contour>
			<point x="0" y="288" type="line"/>
			<point x="384" y="288" type="line"/>
			<point x="384" y="-55" type="line"/>
			<point x="436" y="-55" type="line"/>
			<point x="436" y="684" type="line"/>
			<point x="384" y="684" type="line"/>
			<point x="384" y="339" type="line"/>
			<point x="0" y="339" type="line"/>
		</contour>
	</outline>
</glyph>
<glyph name="bar_underscore.med" format="2">
	<advance width="600"/>
	<outline>
		<contour>
			<point x="0" y="-115" type="line"/>
			<point x="0" y="-165" type="line"/>
			<point x="600" y="-165" type="line"/>
			<point x="600" y="-115" type="line"/>
			<point x="326" y="-115" type="line"/>
			<point x="326" y="792" type="line"/>
			<point x="274" y="792" type="line"/>
			<point x="274" y="-115" type="line"/>
		</contour>
	</outline>
</glyph>
<glyph name="braceleft_braceleft_numbersign.cLig" format="2">
	<advance width="600"/>
	<outline>
		<contour>
			<point x="-621" y="-163" type="line"/>
			<point x="-621" y="-119" type="line"/>
			<point x="-771" y="-119" type="line" smooth="yes"/>
			<point x="-842" y="-119"/>
			<point x="-888" y="-90"/>
			<point x="-888" y="-24" type="curve"/>
			<point x="-888" y="57"/>
			<point x="-778" y="118"/>
			<point x="-778" y="213" type="curve" smooth="yes"/>
			<point x="-778" y="267"/>
			<point x="-829" y="304"/>
			<point x="-893" y="315" type="curve"/>
			<point x="-829" y="326"/>
			<point x="-778" y="361"/>
			<point x="-778" y="414" type="curve" smooth="yes"/>
			<point x="-778" y="510"/>
			<point x="-888" y="573"/>
			<point x="-888" y="654" type="curve" smooth="yes"/>
			<point x="-888" y="719"/>
			<point x="-839" y="748"/>
			<point x="-770" y="748" type="curve" smooth="yes"/>
			<point x="-429" y="748" type="line"/>
			<point x="-477" y="730"/>
			<point x="-493" y="689"/>
			<point x="-493" y="652" type="curve" smooth="yes"/>
			<point x="-493" y="557"/>
			<point x="-382" y="490"/>
			<point x="-382" y="416" type="curve" smooth="yes"/>
			<point x="-382" y="384"/>
			<point x="-405" y="341"/>
			<point x="-494" y="341" type="curve" smooth="yes"/>
			<point x="-550" y="341" type="line"/>
			<point x="-550" y="287" type="line"/>
			<point x="-494" y="287" type="line" smooth="yes"/>
			<point x="-406" y="287"/>
			<point x="-382" y="244"/>
			<point x="-382" y="212" type="curve" smooth="yes"/>
			<point x="-382" y="139"/>
			<point x="-493" y="70"/>
			<point x="-493" y="-24" type="curve"/>
			<point x="-493" y="-102"/>
			<point x="-444" y="-163"/>
			<point x="-327" y="-163" type="curve" smooth="yes"/>
			<point x="-161" y="-163" type="line"/>
			<point x="-161" y="-119" type="line"/>
			<point x="-322" y="-119" type="line" smooth="yes"/>
			<point x="-393" y="-119"/>
			<point x="-439" y="-90"/>
			<point x="-439" y="-24" type="curve"/>
			<point x="-439" y="57"/>
			<point x="-329" y="118"/>
			<point x="-329" y="213" type="curve" smooth="yes"/>
			<point x="-329" y="267"/>
			<point x="-380" y="304"/>
			<point x="-444" y="315" type="curve"/>
			<point x="-380" y="326"/>
			<point x="-329" y="361"/>
			<point x="-329" y="418" type="curve" smooth="yes"/>
			<point x="-329" y="510"/>
			<point x="-439" y="573"/>
			<point x="-439" y="654" type="curve" smooth="yes"/>
			<point x="-439" y="719"/>
			<point x="-390" y="748"/>
			<point x="-321" y="748" type="curve" smooth="yes"/>
			<point x="-161" y="748" type="line"/>
			<point x="-161" y="792" type="line"/>
			<point x="-776" y="792" type="line" smooth="yes"/>
			<point x="-884" y="792"/>
			<point x="-942" y="731"/>
			<point x="-942" y="654" type="curve" smooth="yes"/>
			<point x="-942" y="559"/>
			<point x="-831" y="490"/>
			<point x="-831" y="416" type="curve" smooth="yes"/>
			<point x="-831" y="384"/>
			<point x="-854" y="341"/>
			<point x="-943" y="341" type="curve" smooth="yes"/>
			<point x="-1004" y="341" type="line"/>
			<point x="-1004" y="287" type="line"/>
			<point x="-943" y="287" type="line" smooth="yes"/>
			<point x="-855" y="287"/>
			<point x="-831" y="244"/>
			<point x="-831" y="212" type="curve" smooth="yes"/>
			<point x="-831" y="139"/>
			<point x="-942" y="70"/>
			<point x="-942" y="-24" type="curve"/>
			<point x="-942" y="-102"/>
			<point x="-893" y="-163"/>
			<point x="-776" y="-163" type="curve" smooth="yes"/>
		</contour>
		<contour>
			<point x="-142" y="222" type="line"/>
			<point x="-142" y="174" type="line"/>
			<point x="2" y="174" type="line"/>
			<point x="-15" y="0" type="line"/>
			<point x="38" y="0" type="line"/>
			<point x="54" y="174" type="line"/>
			<point x="209" y="174" type="line"/>
			<point x="193" y="0" type="line"/>
			<point x="243" y="0" type="line"/>
			<point x="260" y="174" type="line"/>
			<point x="380" y="174" type="line"/>
			<point x="380" y="222" type="line"/>
			<point x="264" y="222" type="line"/>
			<point x="289" y="476" type="line"/>
			<point x="404" y="476" type="line"/>
			<point x="404" y="525" type="line"/>
			<point x="294" y="525" type="line"/>
			<point x="309" y="684" type="line"/>
			<point x="257" y="684" type="line"/>
			<point x="242" y="525" type="line"/>
			<point x="87" y="525" type="line"/>
			<point x="102" y="684" type="line"/>
			<point x="51" y="684" type="line"/>
			<point x="36" y="525" type="line"/>
			<point x="-142" y="525" type="line"/>
			<point x="-142" y="476" type="line"/>
			<point x="31" y="476" type="line"/>
			<point x="6" y="222" type="line"/>
		</contour>
		<contour>
			<point x="59" y="222" type="line"/>
			<point x="83" y="476" type="line"/>
			<point x="238" y="476" type="line"/>
			<point x="214" y="222" type="line"/>
		</contour>
	</outline>
</glyph>
<glyph name="braceright_numbersign.cLig" format="2">
	<advance width="600"/>
	<outline>
		<contour>
			<point x="-480" y="-164" type="line"/>
			<point x="-354" y="-164" type="line" smooth="yes"/>
			<point x="-245" y="-164"/>
			<point x="-189" y="-103"/>
			<point x="-187" y="-26" type="curve" smooth="yes"/>
			<point x="-187" y="69"/>
			<point x="-302" y="139"/>
			<point x="-300" y="212" type="curve" smooth="yes"/>
			<point x="-299" y="245"/>
			<point x="-277" y="288"/>
			<point x="-187" y="288" type="curve" smooth="yes"/>
			<point x="-142" y="288" type="line"/>
			<point x="-142" y="341" type="line"/>
			<point x="-187" y="341" type="line" smooth="yes"/>
			<point x="-274" y="341"/>
			<point x="-298" y="385"/>
			<point x="-298" y="416" type="curve" smooth="yes"/>
			<point x="-300" y="489"/>
			<point x="-187" y="558"/>
			<point x="-187" y="653" type="curve" smooth="yes"/>
			<point x="-189" y="730"/>
			<point x="-237" y="790"/>
			<point x="-354" y="790" type="curve" smooth="yes"/>
			<point x="-480" y="790" type="line"/>
			<point x="-480" y="747" type="line"/>
			<point x="-360" y="747" type="line" smooth="yes"/>
			<point x="-289" y="747"/>
			<point x="-243" y="718"/>
			<point x="-243" y="653" type="curve" smooth="yes"/>
			<point x="-242" y="571"/>
			<point x="-353" y="510"/>
			<point x="-353" y="415" type="curve" smooth="yes"/>
			<point x="-353" y="361"/>
			<point x="-301" y="324"/>
			<point x="-238" y="313" type="curve"/>
			<point x="-301" y="302"/>
			<point x="-353" y="267"/>
			<point x="-353" y="214" type="curve" smooth="yes"/>
			<point x="-353" y="118"/>
			<point x="-242" y="55"/>
			<point x="-243" y="-26" type="curve" smooth="yes"/>
			<point x="-243" y="-91"/>
			<point x="-291" y="-120"/>
			<point x="-360" y="-120" type="curve" smooth="yes"/>
			<point x="-480" y="-120" type="line"/>
		</contour>
		<contour>
			<point x="-46" y="222" type="line"/>
			<point x="-46" y="174" type="line"/>
			<point x="98" y="174" type="line"/>
			<point x="81" y="0" type="line"/>
			<point x="134" y="0" type="line"/>
			<point x="150" y="174" type="line"/>
			<point x="305" y="174" type="line"/>
			<point x="289" y="0" type="line"/>
			<point x="339" y="0" type="line"/>
			<point x="356" y="174" type="line"/>
			<point x="476" y="174" type="line"/>
			<point x="476" y="222" type="line"/>
			<point x="360" y="222" type="line"/>
			<point x="385" y="476" type="line"/>
			<point x="500" y="476" type="line"/>
			<point x="500" y="525" type="line"/>
			<point x="390" y="525" type="line"/>
			<point x="405" y="684" type="line"/>
			<point x="353" y="684" type="line"/>
			<point x="338" y="525" type="line"/>
			<point x="183" y="525" type="line"/>
			<point x="198" y="684" type="line"/>
			<point x="147" y="684" type="line"/>
			<point x="132" y="525" type="line"/>
			<point x="-46" y="525" type="line"/>
			<point x="-46" y="476" type="line"/>
			<point x="127" y="476" type="line"/>
			<point x="102" y="222" type="line"/>
		</contour>
		<contour>
			<point x="155" y="222" type="line"/>
			<point x="179" y="476" type="line"/>
			<point x="334" y="476" type="line"/>
			<point x="310" y="222" type="line"/>
		</contour>
	</outline>
</glyph>
<glyph name="bracketleft_bar.cLig" format="2">
	<advance width="600"/>
	<outline>
		<contour>
			<point x="28" y="-119" type="line"/>
			<point x="-333" y="-119" type="line"/>
			<point x="-333" y="748" type="line"/>
			<point x="28" y="748" type="line"/>
			<point x="28" y="792" type="line"/>
			<point x="-385" y="792" type="line"/>
			<point x="-385" y="-163" type="line"/>
			<point x="28" y="-163" type="line"/>
		</contour>
		<contour>
			<point x="278" y="792" type="line"/>
			<point x="278" y="-163" type="line"/>
			<point x="330" y="-163" type="line"/>
			<point x="330" y="792" type="line"/>
		</contour>
	</outline>
</glyph>
<glyph name="bracketleft_bracketleft.cLig" format="2">
	<advance width="600"/>
	<outline>
		<contour>
			<point x="-366" y="-163" type="line"/>
			<point x="9" y="-163" type="line"/>
			<point x="9" y="-119" type="line"/>
			<point x="-314" y="-119" type="line"/>
			<point x="-314" y="748" type="line"/>
			<point x="9" y="748" type="line"/>
			<point x="9" y="792" type="line"/>
			<point x="-366" y="792" type="line"/>
		</contour>
		<contour>
			<point x="99" y="-163" type="line"/>
			<point x="407" y="-163" type="line"/>
			<point x="407" y="-119" type="line"/>
			<point x="151" y="-119" type="line"/>
			<point x="151" y="748" type="line"/>
			<point x="407" y="748" type="line"/>
			<point x="407" y="792" type="line"/>
			<point x="99" y="792" type="line"/>
		</contour>
	</outline>
</glyph>
<glyph name="bracketleft_bracketleft_numbersign.cLig" format="2">
	<advance width="600"/>
	<outline>
		<contour>
			<point x="-142" y="222" type="line"/>
			<point x="-142" y="174" type="line"/>
			<point x="2" y="174" type="line"/>
			<point x="-15" y="0" type="line"/>
			<point x="38" y="0" type="line"/>
			<point x="54" y="174" type="line"/>
			<point x="209" y="174" type="line"/>
			<point x="193" y="0" type="line"/>
			<point x="243" y="0" type="line"/>
			<point x="260" y="174" type="line"/>
			<point x="380" y="174" type="line"/>
			<point x="380" y="222" type="line"/>
			<point x="264" y="222" type="line"/>
			<point x="289" y="476" type="line"/>
			<point x="404" y="476" type="line"/>
			<point x="404" y="525" type="line"/>
			<point x="294" y="525" type="line"/>
			<point x="309" y="684" type="line"/>
			<point x="257" y="684" type="line"/>
			<point x="242" y="525" type="line"/>
			<point x="87" y="525" type="line"/>
			<point x="102" y="684" type="line"/>
			<point x="51" y="684" type="line"/>
			<point x="36" y="525" type="line"/>
			<point x="-142" y="525" type="line"/>
			<point x="-142" y="476" type="line"/>
			<point x="31" y="476" type="line"/>
			<point x="6" y="222" type="line"/>
		</contour>
		<contour>
			<point x="59" y="222" type="line"/>
			<point x="83" y="476" type="line"/>
			<point x="238" y="476" type="line"/>
			<point x="214" y="222" type="line"/>
		</contour>
		<contour>
			<point x="-969" y="-163" type="line"/>
			<point x="-594" y="-163" type="line"/>
			<point x="-594" y="-119" type="line"/>
			<point x="-917" y="-119" type="line"/>
			<point x="-917" y="748" type="line"/>
			<point x="-594" y="748" type="line"/>
			<point x="-594" y="792" type="line"/>
			<point x="-969" y="792" type="line"/>
		</contour>
		<contour>
			<point x="-504" y="-163" type="line"/>
			<point x="-196" y="-163" type="line"/>
			<point x="-196" y="-119" type="line"/>
			<point x="-452" y="-119" type="line"/>
			<point x="-452" y="748" type="line"/>
			<point x="-196" y="748" type="line"/>
			<point x="-196" y="792" type="line"/>
			<point x="-504" y="792" type="line"/>
		</contour>
	</outline>
</glyph>
<glyph name="bracketright_numbersign.cLig" format="2">
	<advance width="600"/>
	<outline>
		<contour>
			<point x="-450" y="-163" type="line"/>
			<point x="-191" y="-163" type="line"/>
			<point x="-191" y="174" type="line"/>
			<point x="68" y="174" type="line"/>
			<point x="51" y="0" type="line"/>
			<point x="104" y="0" type="line"/>
			<point x="120" y="174" type="line"/>
			<point x="275" y="174" type="line"/>
			<point x="259" y="0" type="line"/>
			<point x="309" y="0" type="line"/>
			<point x="326" y="174" type="line"/>
			<point x="446" y="174" type="line"/>
			<point x="446" y="222" type="line"/>
			<point x="330" y="222" type="line"/>
			<point x="355" y="476" type="line"/>
			<point x="470" y="476" type="line"/>
			<point x="470" y="525" type="line"/>
			<point x="360" y="525" type="line"/>
			<point x="375" y="684" type="line"/>
			<point x="323" y="684" type="line"/>
			<point x="308" y="525" type="line"/>
			<point x="153" y="525" type="line"/>
			<point x="168" y="684" type="line"/>
			<point x="117" y="684" type="line"/>
			<point x="102" y="525" type="line"/>
			<point x="-191" y="525" type="line"/>
			<point x="-191" y="792" type="line"/>
			<point x="-450" y="792" type="line"/>
			<point x="-450" y="748" type="line"/>
			<point x="-243" y="748" type="line"/>
			<point x="-243" y="-119" type="line"/>
			<point x="-450" y="-119" type="line"/>
		</contour>
		<contour>
			<point x="-191" y="222" type="line"/>
			<point x="-191" y="476" type="line"/>
			<point x="97" y="476" type="line"/>
			<point x="72" y="222" type="line"/>
		</contour>
		<contour>
			<point x="125" y="222" type="line"/>
			<point x="149" y="476" type="line"/>
			<point x="304" y="476" type="line"/>
			<point x="280" y="222" type="line"/>
		</contour>
	</outline>
</glyph>
<glyph name="colon_colon.cLig" format="2">
	<advance width="600"/>
	<outline>
		<contour>
			<point x="-221" y="-12" type="curve" smooth="yes"/>
			<point x="-183" y="-12"/>
			<point x="-162" y="2"/>
			<point x="-162" y="42" type="curve" smooth="yes"/>
			<point x="-162" y="81"/>
			<point x="-183" y="95"/>
			<point x="-221" y="95" type="curve" smooth="yes"/>
			<point x="-259" y="95"/>
			<point x="-280" y="81"/>
			<point x="-280" y="42" type="curve" smooth="yes"/>
			<point x="-280" y="2"/>
			<point x="-259" y="-12"/>
		</contour>
		<contour>
			<point x="-221" y="410" type="curve" smooth="yes"/>
			<point x="-183" y="410"/>
			<point x="-162" y="424"/>
			<point x="-162" y="464" type="curve" smooth="yes"/>
			<point x="-162" y="503"/>
			<point x="-183" y="517"/>
			<point x="-221" y="517" type="curve" smooth="yes"/>
			<point x="-259" y="517"/>
			<point x="-280" y="503"/>
			<point x="-280" y="464" type="curve" smooth="yes"/>
			<point x="-280" y="424"/>
			<point x="-259" y="410"/>
		</contour>
		<contour>
			<point x="221" y="-12" type="curve" smooth="yes"/>
			<point x="259" y="-12"/>
			<point x="280" y="2"/>
			<point x="280" y="42" type="curve" smooth="yes"/>
			<point x="280" y="81"/>
			<point x="259" y="95"/>
			<point x="221" y="95" type="curve" smooth="yes"/>
			<point x="183" y="95"/>
			<point x="162" y="81"/>
			<point x="162" y="42" type="curve" smooth="yes"/>
			<point x="162" y="2"/>
			<point x="183" y="-12"/>
		</contour>
		<contour>
			<point x="221" y="410" type="curve" smooth="yes"/>
			<point x="259" y="410"/>
			<point x="280" y="424"/>
			<point x="280" y="464" type="curve" smooth="yes"/>
			<point x="280" y="503"/>
			<point x="259" y="517"/>
			<point x="221" y="517" type="curve" smooth="yes"/>
			<point x="183" y="517"/>
			<point x="162" y="503"/>
			<point x="162" y="464" type="curve" smooth="yes"/>
			<point x="162" y="424"/>
			<point x="183" y="410"/>
		</contour>
	</outline>
</glyph>
<glyph name="colon_equal.cLig" format="2">
	<advance width="600"/>
	<outline>
		<contour>
			<point x="-346" y="111" type="curve" smooth="yes"/>
			<point x="-308" y="111"/>
			<point x="-287" y="125"/>
			<point x="-287" y="165" type="curve" smooth="yes"/>
			<point x="-287" y="204"/>
			<point x="-308" y="218"/>
			<point x="-346" y="218" type="curve" smooth="yes"/>
			<point x="-384" y="218"/>
			<point x="-405" y="204"/>
			<point x="-405" y="165" type="curve" smooth="yes"/>
			<point x="-405" y="125"/>
			<point x="-384" y="111"/>
		</contour>
		<contour>
			<point x="-346" y="394" type="curve" smooth="yes"/>
			<point x="-308" y="394"/>
			<point x="-287" y="408"/>
			<point x="-287" y="448" type="curve" smooth="yes"/>
			<point x="-287" y="487"/>
			<point x="-308" y="501"/>
			<point x="-346" y="501" type="curve" smooth="yes"/>
			<point x="-384" y="501"/>
			<point x="-405" y="487"/>
			<point x="-405" y="448" type="curve" smooth="yes"/>
			<point x="-405" y="408"/>
			<point x="-384" y="394"/>
		</contour>
		<contour>
			<point x="-91" y="384" type="line"/>
			<point x="415" y="384" type="line"/>
			<point x="415" y="435" type="line"/>
			<point x="-91" y="435" type="line"/>
		</contour>
		<contour>
			<point x="-91" y="177" type="line"/>
			<point x="415" y="177" type="line"/>
			<point x="415" y="228" type="line"/>
			<point x="-91" y="228" type="line"/>
		</contour>
	</outline>
</glyph>
<glyph name="cordinal" format="2">
	<advance width="600"/>
	<outline>
		<contour>
			<point x="360" y="226" type="curve"/>
			<point x="402" y="226"/>
			<point x="443" y="234"/>
			<point x="477" y="252" type="curve"/>
			<point x="477" y="294" type="line"/>
			<point x="448" y="278"/>
			<point x="403" y="267"/>
			<point x="359" y="267" type="curve"/>
			<point x="245" y="267"/>
			<point x="169" y="338"/>
			<point x="169" y="461" type="curve" smooth="yes"/>
			<point x="169" y="582"/>
			<point x="247" y="654"/>
			<point x="358" y="654" type="curve"/>
			<point x="406" y="654"/>
			<point x="447" y="644"/>
			<point x="477" y="627" type="curve"/>
			<point x="477" y="671" type="line"/>
			<point x="442" y="690"/>
			<point x="399" y="695"/>
			<point x="359" y="695" type="curve"/>
			<point x="223" y="695"/>
			<point x="120" y="607"/>
			<point x="120" y="461" type="curve" smooth="yes"/>
			<point x="120" y="312"/>
			<point x="217" y="226"/>
		</contour>
	</outline>
</glyph>
<glyph name="dieresis.cap" format="2">
	<advance width="600"/>
	<outline>
		<contour>
			<point x="391" y="854" type="curve" smooth="yes"/>
			<point x="358" y="854"/>
			<point x="346" y="839"/>
			<point x="346" y="812" type="curve" smooth="yes"/>
			<point x="346" y="785"/>
			<point x="358" y="770"/>
			<point x="391" y="770" type="curve" smooth="yes"/>
			<point x="425" y="770"/>
			<point x="436" y="785"/>
			<point x="436" y="812" type="curve" smooth="yes"/>
			<point x="436" y="839"/>
			<point x="425" y="854"/>
		</contour>
		<contour>
			<point x="210" y="770" type="curve" smooth="yes"/>
			<point x="243" y="770"/>
			<point x="254" y="785"/>
			<point x="254" y="812" type="curve" smooth="yes"/>
			<point x="254" y="839"/>
			<point x="243" y="854"/>
			<point x="210" y="854" type="curve" smooth="yes"/>
			<point x="176" y="854"/>
			<point x="164" y="839"/>
			<point x="164" y="812" type="curve" smooth="yes"/>
			<point x="164" y="785"/>
			<point x="176" y="770"/>
		</contour>
	</outline>
	<anchor name="_top" x="300" y="684"/>
</glyph>
<glyph name="eight.den" format="2">
	<advance width="600"/>
	<outline>
		<contour>
			<point x="300" y="-8" type="curve" smooth="yes"/>
			<point x="389" y="-8"/>
			<point x="452" y="30"/>
			<point x="452" y="110" type="curve" smooth="yes"/>
			<point x="452" y="178"/>
			<point x="404" y="203"/>
			<point x="363" y="210" type="curve"/>
			<point x="404" y="219"/>
			<point x="443" y="247"/>
			<point x="443" y="306" type="curve" smooth="yes"/>
			<point x="443" y="381"/>
			<point x="384" y="418"/>
			<point x="300" y="418" type="curve" smooth="yes"/>
			<point x="214" y="418"/>
			<point x="156" y="380"/>
			<point x="156" y="306" type="curve" smooth="yes"/>
			<point x="156" y="245"/>
			<point x="197" y="218"/>
			<point x="231" y="210" type="curve"/>
			<point x="185" y="202"/>
			<point x="148" y="172"/>
			<point x="148" y="109" type="curve" smooth="yes"/>
			<point x="148" y="29"/>
			<point x="212" y="-8"/>
		</contour>
		<contour>
			<point x="300" y="229" type="curve" smooth="yes"/>
			<point x="241" y="229"/>
			<point x="201" y="249"/>
			<point x="201" y="303" type="curve" smooth="yes"/>
			<point x="201" y="361"/>
			<point x="241" y="382"/>
			<point x="300" y="382" type="curve" smooth="yes"/>
			<point x="357" y="382"/>
			<point x="398" y="361"/>
			<point x="398" y="303" type="curve" smooth="yes"/>
			<point x="398" y="249"/>
			<point x="357" y="229"/>
		</contour>
		<contour>
			<point x="300" y="29" type="curve" smooth="yes"/>
			<point x="238" y="29"/>
			<point x="194" y="54"/>
			<point x="194" y="116" type="curve" smooth="yes"/>
			<point x="194" y="174"/>
			<point x="235" y="192"/>
			<point x="299" y="192" type="curve" smooth="yes"/>
			<point x="361" y="192"/>
			<point x="406" y="174"/>
			<point x="406" y="116" type="curve" smooth="yes"/>
			<point x="406" y="55"/>
			<point x="362" y="29"/>
		</contour>
	</outline>
</glyph>
<glyph name="eight.numr" format="2">
	<advance width="600"/>
	<outline>
		<contour>
			<point x="299" y="366" type="curve" smooth="yes"/>
			<point x="376" y="366"/>
			<point x="429" y="397"/>
			<point x="429" y="464" type="curve" smooth="yes"/>
			<point x="429" y="511"/>
			<point x="399" y="541"/>
			<point x="351" y="549" type="curve"/>
			<point x="389" y="557"/>
			<point x="421" y="584"/>
			<point x="421" y="630" type="curve" smooth="yes"/>
			<point x="421" y="694"/>
			<point x="371" y="724"/>
			<point x="299" y="724" type="curve" smooth="yes"/>
			<point x="225" y="724"/>
			<point x="177" y="694"/>
			<point x="177" y="630" type="curve" smooth="yes"/>
			<point x="177" y="581"/>
			<point x="211" y="556"/>
			<point x="245" y="549" type="curve"/>
			<point x="207" y="540"/>
			<point x="171" y="514"/>
			<point x="171" y="462" type="curve" smooth="yes"/>
			<point x="171" y="395"/>
			<point x="220" y="366"/>
		</contour>
		<contour>
			<point x="299" y="568" type="curve" smooth="yes"/>
			<point x="251" y="568"/>
			<point x="218" y="587"/>
			<point x="218" y="630" type="curve" smooth="yes"/>
			<point x="218" y="680"/>
			<point x="253" y="691"/>
			<point x="299" y="691" type="curve" smooth="yes"/>
			<point x="345" y="691"/>
			<point x="380" y="678"/>
			<point x="380" y="630" type="curve" smooth="yes"/>
			<point x="380" y="587"/>
			<point x="347" y="568"/>
		</contour>
		<contour>
			<point x="299" y="399" type="curve" smooth="yes"/>
			<point x="243" y="399"/>
			<point x="213" y="416"/>
			<point x="213" y="466" type="curve" smooth="yes"/>
			<point x="213" y="514"/>
			<point x="249" y="529"/>
			<point x="299" y="529" type="curve" smooth="yes"/>
			<point x="350" y="529"/>
			<point x="387" y="512"/>
			<point x="387" y="466" type="curve" smooth="yes"/>
			<point x="387" y="420"/>
			<point x="355" y="399"/>
		</contour>
	</outline>
	<guideline x="387" y="420" angle="0" identifier="xDKsHLj3u3"/>
	<guideline x="300" y="691" angle="90" identifier="xhAt5iMPR2"/>
</glyph>
<glyph name="equal.init" format="2">
	<advance width="600"/>
	<outline>
		<contour>
			<point x="180" y="392" type="line"/>
			<point x="600" y="392" type="line"/>
			<point x="600" y="443" type="line"/>
			<point x="180" y="443" type="line"/>
		</contour>
		<contour>
			<point x="180" y="186" type="line"/>
			<point x="600" y="186" type="line"/>
			<point x="600" y="237" type="line"/>
			<point x="180" y="237" type="line"/>
		</contour>
	</outline>
	<guideline x="346" y="552" angle="90" identifier="c2Y1Sn7BVk"/>
</glyph>
<glyph name="equal_exclam_equal.rem" format="2">
	<advance width="600"/>
	<outline>
		<contour>
			<point x="-320" y="182" type="line"/>
			<point x="-280" y="182" type="line"/>
			<point x="-269" y="529" type="line"/>
			<point x="-269" y="684" type="line"/>
			<point x="-331" y="684" type="line"/>
			<point x="-331" y="530" type="line"/>
		</contour>
		<contour>
			<point x="-300" y="-12" type="curve" smooth="yes"/>
			<point x="-265" y="-12"/>
			<point x="-247" y="2"/>
			<point x="-247" y="36" type="curve" smooth="yes"/>
			<point x="-247" y="70"/>
			<point x="-265" y="84"/>
			<point x="-300" y="84" type="curve" smooth="yes"/>
			<point x="-335" y="84"/>
			<point x="-353" y="70"/>
			<point x="-353" y="36" type="curve" smooth="yes"/>
			<point x="-353" y="2"/>
			<point x="-335" y="-12"/>
		</contour>
		<contour>
			<point x="-1020" y="384" type="line"/>
			<point x="-536" y="384" type="line"/>
			<point x="-536" y="435" type="line"/>
			<point x="-1020" y="435" type="line"/>
		</contour>
		<contour>
			<point x="-1020" y="177" type="line"/>
			<point x="-536" y="177" type="line"/>
			<point x="-536" y="228" type="line"/>
			<point x="-1020" y="228" type="line"/>
		</contour>
		<contour>
			<point x="-64" y="384" type="line"/>
			<point x="420" y="384" type="line"/>
			<point x="420" y="435" type="line"/>
			<point x="-64" y="435" type="line"/>
		</contour>
		<contour>
			<point x="-64" y="177" type="line"/>
			<point x="420" y="177" type="line"/>
			<point x="420" y="228" type="line"/>
			<point x="-64" y="228" type="line"/>
		</contour>
	</outline>
</glyph>
<glyph name="equal_less_less.rem" format="2">
	<advance width="600"/>
	<outline>
		<contour>
			<point x="489" y="629" type="line"/>
			<point x="419" y="629" type="line"/>
			<point x="135" y="316" type="line"/>
			<point x="422" y="0" type="line"/>
			<point x="492" y="0" type="line"/>
			<point x="203" y="316" type="line"/>
		</contour>
		<contour>
			<point x="114" y="629" type="line"/>
			<point x="44" y="629" type="line"/>
			<point x="-120" y="443" type="line"/>
			<point x="-1020" y="443" type="line"/>
			<point x="-1020" y="392" type="line"/>
			<point x="-97" y="392" type="line"/>
		</contour>
		<contour>
			<point x="-96" y="237" type="line"/>
			<point x="-1020" y="237" type="line"/>
			<point x="-1020" y="186" type="line"/>
			<point x="-119" y="186" type="line"/>
			<point x="47" y="0" type="line"/>
			<point x="117" y="0" type="line"/>
		</contour>
	</outline>
</glyph>
<glyph name="equal_slash_equal.rem" format="2">
	<advance width="600"/>
	<outline>
		<contour>
			<point x="-1020" y="185" type="line"/>
			<point x="-400" y="185" type="line"/>
			<point x="-562" y="-72" type="line"/>
			<point x="-504" y="-72" type="line"/>
			<point x="-342" y="185" type="line"/>
			<point x="420" y="185" type="line"/>
			<point x="420" y="236" type="line"/>
			<point x="-310" y="236" type="line"/>
			<point x="-212" y="392" type="line"/>
			<point x="420" y="392" type="line"/>
			<point x="420" y="443" type="line"/>
			<point x="-180" y="443" type="line"/>
			<point x="-48" y="652" type="line"/>
			<point x="-106" y="652" type="line"/>
			<point x="-238" y="443" type="line"/>
			<point x="-1020" y="443" type="line"/>
			<point x="-1020" y="392" type="line"/>
			<point x="-270" y="392" type="line"/>
			<point x="-368" y="236" type="line"/>
			<point x="-1020" y="236" type="line"/>
		</contour>
	</outline>
</glyph>
<glyph name="exclam_asciitilde.cLig" format="2">
	<advance width="600"/>
	<outline>
		<contour>
			<point x="-320" y="177" type="line"/>
			<point x="-100" y="177" type="line"/>
			<point x="-257" y="-72" type="line"/>
			<point x="-199" y="-72" type="line"/>
			<point x="-42" y="177" type="line"/>
			<point x="320" y="177" type="line"/>
			<point x="320" y="228" type="line"/>
			<point x="-10" y="228" type="line"/>
			<point x="61" y="341" type="line"/>
			<point x="89" y="330"/>
			<point x="119" y="322"/>
			<point x="152" y="322" type="curve" smooth="yes"/>
			<point x="222" y="322"/>
			<point x="286" y="351"/>
			<point x="320" y="403" type="curve"/>
			<point x="320" y="469" type="line"/>
			<point x="265" y="392"/>
			<point x="209" y="369"/>
			<point x="145" y="371" type="curve" smooth="yes"/>
			<point x="125" y="372"/>
			<point x="107" y="376"/>
			<point x="88" y="384" type="curve"/>
			<point x="257" y="652" type="line"/>
			<point x="199" y="652" type="line"/>
			<point x="44" y="406" type="line"/>
			<point x="-17" y="440"/>
			<point x="-79" y="487"/>
			<point x="-162" y="487" type="curve" smooth="yes"/>
			<point x="-228" y="487"/>
			<point x="-287" y="458"/>
			<point x="-320" y="407" type="curve"/>
			<point x="-320" y="340" type="line"/>
			<point x="-274" y="411"/>
			<point x="-221" y="438"/>
			<point x="-162" y="438" type="curve" smooth="yes"/>
			<point x="-100" y="438"/>
			<point x="-45" y="396"/>
			<point x="17" y="363" type="curve"/>
			<point x="-68" y="228" type="line"/>
			<point x="-320" y="228" type="line"/>
		</contour>
	</outline>
	<guideline x="-876" y="177" angle="0" identifier="SNgSSBGvEi"/>
</glyph>
<glyph name="exclam_equal.med" format="2">
	<advance width="600"/>
	<outline>
		<contour>
			<point x="280" y="182" type="line"/>
			<point x="320" y="182" type="line"/>
			<point x="331" y="529" type="line"/>
			<point x="331" y="684" type="line"/>
			<point x="269" y="684" type="line"/>
			<point x="269" y="530" type="line"/>
		</contour>
		<contour>
			<point x="490" y="392" type="line"/>
			<point x="600" y="392" type="line"/>
			<point x="600" y="443" type="line"/>
			<point x="490" y="443" type="line"/>
		</contour>
		<contour>
			<point x="0" y="392" type="line"/>
			<point x="110" y="392" type="line"/>
			<point x="110" y="443" type="line"/>
			<point x="0" y="443" type="line"/>
		</contour>
		<contour>
			<point x="490" y="186" type="line"/>
			<point x="600" y="186" type="line"/>
			<point x="600" y="237" type="line"/>
			<point x="490" y="237" type="line"/>
		</contour>
		<contour>
			<point x="0" y="186" type="line"/>
			<point x="110" y="186" type="line"/>
			<point x="110" y="237" type="line"/>
			<point x="0" y="237" type="line"/>
		</contour>
		<contour>
			<point x="300" y="-12" type="curve" smooth="yes"/>
			<point x="335" y="-12"/>
			<point x="353" y="2"/>
			<point x="353" y="36" type="curve" smooth="yes"/>
			<point x="353" y="70"/>
			<point x="335" y="84"/>
			<point x="300" y="84" type="curve" smooth="yes"/>
			<point x="265" y="84"/>
			<point x="247" y="70"/>
			<point x="247" y="36" type="curve" smooth="yes"/>
			<point x="247" y="2"/>
			<point x="265" y="-12"/>
		</contour>
	</outline>
</glyph>
<glyph name="exclam_exclam.cLig" format="2">
	<advance width="600"/>
	<outline>
		<contour>
			<point x="-247" y="182" type="line"/>
			<point x="-207" y="182" type="line"/>
			<point x="-196" y="529" type="line"/>
			<point x="-196" y="684" type="line"/>
			<point x="-258" y="684" type="line"/>
			<point x="-258" y="530" type="line"/>
		</contour>
		<contour>
			<point x="-227" y="-12" type="curve" smooth="yes"/>
			<point x="-192" y="-12"/>
			<point x="-174" y="2"/>
			<point x="-174" y="36" type="curve" smooth="yes"/>
			<point x="-174" y="70"/>
			<point x="-192" y="84"/>
			<point x="-227" y="84" type="curve" smooth="yes"/>
			<point x="-262" y="84"/>
			<point x="-280" y="70"/>
			<point x="-280" y="36" type="curve" smooth="yes"/>
			<point x="-280" y="2"/>
			<point x="-262" y="-12"/>
		</contour>
		<contour>
			<point x="207" y="182" type="line"/>
			<point x="247" y="182" type="line"/>
			<point x="258" y="529" type="line"/>
			<point x="258" y="684" type="line"/>
			<point x="196" y="684" type="line"/>
			<point x="196" y="530" type="line"/>
		</contour>
		<contour>
			<point x="227" y="-12" type="curve" smooth="yes"/>
			<point x="262" y="-12"/>
			<point x="280" y="2"/>
			<point x="280" y="36" type="curve" smooth="yes"/>
			<point x="280" y="70"/>
			<point x="262" y="84"/>
			<point x="227" y="84" type="curve" smooth="yes"/>
			<point x="192" y="84"/>
			<point x="174" y="70"/>
			<point x="174" y="36" type="curve" smooth="yes"/>
			<point x="174" y="2"/>
			<point x="192" y="-12"/>
		</contour>
	</outline>
</glyph>
<glyph name="exclam_exclam_exclam.rem" format="2">
	<advance width="600"/>
	<outline>
		<contour>
			<point x="-812" y="182" type="line"/>
			<point x="-772" y="182" type="line"/>
			<point x="-761" y="529" type="line"/>
			<point x="-761" y="684" type="line"/>
			<point x="-823" y="684" type="line"/>
			<point x="-823" y="530" type="line"/>
		</contour>
		<contour>
			<point x="-792" y="-12" type="curve" smooth="yes"/>
			<point x="-757" y="-12"/>
			<point x="-739" y="2"/>
			<point x="-739" y="36" type="curve" smooth="yes"/>
			<point x="-739" y="70"/>
			<point x="-757" y="84"/>
			<point x="-792" y="84" type="curve" smooth="yes"/>
			<point x="-827" y="84"/>
			<point x="-845" y="70"/>
			<point x="-845" y="36" type="curve" smooth="yes"/>
			<point x="-845" y="2"/>
			<point x="-827" y="-12"/>
		</contour>
		<contour>
			<point x="-320" y="182" type="line"/>
			<point x="-280" y="182" type="line"/>
			<point x="-269" y="529" type="line"/>
			<point x="-269" y="684" type="line"/>
			<point x="-331" y="684" type="line"/>
			<point x="-331" y="530" type="line"/>
		</contour>
		<contour>
			<point x="-300" y="-12" type="curve" smooth="yes"/>
			<point x="-265" y="-12"/>
			<point x="-247" y="2"/>
			<point x="-247" y="36" type="curve" smooth="yes"/>
			<point x="-247" y="70"/>
			<point x="-265" y="84"/>
			<point x="-300" y="84" type="curve" smooth="yes"/>
			<point x="-335" y="84"/>
			<point x="-353" y="70"/>
			<point x="-353" y="36" type="curve" smooth="yes"/>
			<point x="-353" y="2"/>
			<point x="-335" y="-12"/>
		</contour>
		<contour>
			<point x="172" y="182" type="line"/>
			<point x="212" y="182" type="line"/>
			<point x="223" y="529" type="line"/>
			<point x="223" y="684" type="line"/>
			<point x="161" y="684" type="line"/>
			<point x="161" y="530" type="line"/>
		</contour>
		<contour>
			<point x="192" y="-12" type="curve" smooth="yes"/>
			<point x="227" y="-12"/>
			<point x="245" y="2"/>
			<point x="245" y="36" type="curve" smooth="yes"/>
			<point x="245" y="70"/>
			<point x="227" y="84"/>
			<point x="192" y="84" type="curve" smooth="yes"/>
			<point x="157" y="84"/>
			<point x="139" y="70"/>
			<point x="139" y="36" type="curve" smooth="yes"/>
			<point x="139" y="2"/>
			<point x="157" y="-12"/>
		</contour>
	</outline>
</glyph>
<glyph name="five.den" format="2">
	<advance width="600"/>
	<outline>
		<contour>
			<point x="298" y="-8" type="curve" smooth="yes"/>
			<point x="384" y="-8"/>
			<point x="439" y="46"/>
			<point x="439" y="129" type="curve" smooth="yes"/>
			<point x="439" y="207"/>
			<point x="392" y="248"/>
			<point x="307" y="248" type="curve" smooth="yes"/>
			<point x="275" y="248"/>
			<point x="245" y="244"/>
			<point x="219" y="234" type="curve"/>
			<point x="219" y="372" type="line"/>
			<point x="431" y="372" type="line"/>
			<point x="431" y="410" type="line"/>
			<point x="178" y="410" type="line"/>
			<point x="178" y="185" type="line"/>
			<point x="215" y="202"/>
			<point x="252" y="211"/>
			<point x="292" y="211" type="curve" smooth="yes"/>
			<point x="364" y="211"/>
			<point x="393" y="180"/>
			<point x="393" y="126" type="curve" smooth="yes"/>
			<point x="393" y="65"/>
			<point x="356" y="31"/>
			<point x="297" y="31" type="curve" smooth="yes"/>
			<point x="256" y="31"/>
			<point x="209" y="45"/>
			<point x="163" y="85" type="curve"/>
			<point x="163" y="41" type="line"/>
			<point x="196" y="12"/>
			<point x="241" y="-8"/>
		</contour>
	</outline>
</glyph>
<glyph name="five.numr" format="2">
	<advance width="600"/>
	<outline>
		<contour>
			<point x="298" y="366" type="curve" smooth="yes"/>
			<point x="369" y="366"/>
			<point x="418" y="411"/>
			<point x="418" y="481" type="curve" smooth="yes"/>
			<point x="418" y="547"/>
			<point x="377" y="581"/>
			<point x="303" y="581" type="curve" smooth="yes"/>
			<point x="276" y="581"/>
			<point x="254" y="577"/>
			<point x="234" y="571" type="curve"/>
			<point x="234" y="684" type="line"/>
			<point x="411" y="684" type="line"/>
			<point x="411" y="718" type="line"/>
			<point x="197" y="718" type="line"/>
			<point x="197" y="527" type="line"/>
			<point x="227" y="540"/>
			<point x="255" y="548"/>
			<point x="292" y="548" type="curve" smooth="yes"/>
			<point x="352" y="548"/>
			<point x="377" y="523"/>
			<point x="377" y="479" type="curve" smooth="yes"/>
			<point x="377" y="429"/>
			<point x="345" y="400"/>
			<point x="297" y="400" type="curve" smooth="yes"/>
			<point x="260" y="400"/>
			<point x="223" y="411"/>
			<point x="184" y="444" type="curve"/>
			<point x="184" y="405" type="line"/>
			<point x="212" y="381"/>
			<point x="249" y="366"/>
		</contour>
	</outline>
</glyph>
<glyph name="greater_equal.init" format="2">
	<advance width="600"/>
	<outline>
		<contour>
			<point x="266" y="392" type="line"/>
			<point x="600" y="392" type="line"/>
			<point x="600" y="443" type="line"/>
			<point x="289" y="443" type="line"/>
			<point x="123" y="629" type="line"/>
			<point x="53" y="629" type="line"/>
		</contour>
		<contour>
			<point x="56" y="0" type="line"/>
			<point x="126" y="0" type="line"/>
			<point x="290" y="186" type="line"/>
			<point x="600" y="186" type="line"/>
			<point x="600" y="237" type="line"/>
			<point x="267" y="237" type="line"/>
		</contour>
	</outline>
</glyph>
<glyph name="greater_equal_greater.rem" format="2">
	<advance width="600"/>
	<outline>
		<contour>
			<point x="-1052" y="0" type="line"/>
			<point x="-982" y="0" type="line"/>
			<point x="-818" y="186" type="line"/>
			<point x="302" y="186" type="line"/>
			<point x="132" y="0" type="line"/>
			<point x="201" y="0" type="line"/>
			<point x="485" y="313" type="line"/>
			<point x="198" y="629" type="line"/>
			<point x="129" y="629" type="line"/>
			<point x="299" y="443" type="line"/>
			<point x="-819" y="443" type="line"/>
			<point x="-985" y="629" type="line"/>
			<point x="-1055" y="629" type="line"/>
			<point x="-842" y="392" type="line"/>
			<point x="346" y="392" type="line"/>
			<point x="418" y="313" type="line"/>
			<point x="348" y="237" type="line"/>
			<point x="-841" y="237" type="line"/>
		</contour>
	</outline>
</glyph>
<glyph name="greater_greater.cLig" format="2">
	<advance width="600"/>
	<outline>
		<contour>
			<point x="-500" y="59" type="line"/>
			<point x="-60" y="284" type="line"/>
			<point x="-60" y="343" type="line"/>
			<point x="-500" y="568" type="line"/>
			<point x="-500" y="509" type="line"/>
			<point x="-111" y="313" type="line"/>
			<point x="-500" y="119" type="line"/>
		</contour>
		<contour>
			<point x="70" y="59" type="line"/>
			<point x="510" y="284" type="line"/>
			<point x="510" y="343" type="line"/>
			<point x="70" y="568" type="line"/>
			<point x="70" y="509" type="line"/>
			<point x="459" y="313" type="line"/>
			<point x="70" y="119" type="line"/>
		</contour>
	</outline>
</glyph>
<glyph name="greater_greater_equal.fina" format="2">
	<advance width="600"/>
	<outline>
		<contour>
			<point x="113" y="0" type="line"/>
			<point x="183" y="0" type="line"/>
			<point x="470" y="314" type="line"/>
			<point x="181" y="629" type="line"/>
			<point x="110" y="629" type="line"/>
			<point x="401" y="314" type="line"/>
		</contour>
		<contour>
			<point x="-600" y="186" type="line"/>
			<point x="-83" y="186" type="line"/>
			<point x="-253" y="0" type="line"/>
			<point x="-184" y="0" type="line"/>
			<point x="100" y="313" type="line"/>
			<point x="-187" y="629" type="line"/>
			<point x="-256" y="629" type="line"/>
			<point x="-86" y="443" type="line"/>
			<point x="-600" y="443" type="line"/>
			<point x="-600" y="392" type="line"/>
			<point x="-39" y="392" type="line"/>
			<point x="33" y="313" type="line"/>
			<point x="-37" y="237" type="line"/>
			<point x="-600" y="237" type="line"/>
		</contour>
	</outline>
</glyph>
<glyph name="greater_greater_equal.init" format="2">
	<advance width="600"/>
	<outline>
		<contour>
			<point x="-509" y="0" type="line"/>
			<point x="-439" y="0" type="line"/>
			<point x="-155" y="313" type="line"/>
			<point x="-442" y="629" type="line"/>
			<point x="-512" y="629" type="line"/>
			<point x="-223" y="313" type="line"/>
		</contour>
		<contour>
			<point x="76" y="392" type="line"/>
			<point x="600" y="392" type="line"/>
			<point x="600" y="443" type="line"/>
			<point x="99" y="443" type="line"/>
			<point x="-67" y="629" type="line"/>
			<point x="-137" y="629" type="line"/>
		</contour>
		<contour>
			<point x="-134" y="0" type="line"/>
			<point x="-64" y="0" type="line"/>
			<point x="100" y="186" type="line"/>
			<point x="600" y="186" type="line"/>
			<point x="600" y="237" type="line"/>
			<point x="77" y="237" type="line"/>
		</contour>
	</outline>
</glyph>
<glyph name="greater_greater_equal.med" format="2">
	<advance width="600"/>
	<outline>
		<contour>
			<point x="-443" y="0" type="line"/>
			<point x="-374" y="0" type="line"/>
			<point x="-90" y="313" type="line"/>
			<point x="-377" y="629" type="line"/>
			<point x="-446" y="629" type="line"/>
			<point x="-276" y="443" type="line"/>
			<point x="-600" y="443" type="line"/>
			<point x="-600" y="392" type="line"/>
			<point x="-229" y="392" type="line"/>
			<point x="-157" y="313" type="line"/>
			<point x="-227" y="237" type="line"/>
			<point x="-600" y="237" type="line"/>
			<point x="-600" y="186" type="line"/>
			<point x="-273" y="186" type="line"/>
		</contour>
		<contour>
			<point x="136" y="392" type="line"/>
			<point x="600" y="392" type="line"/>
			<point x="600" y="443" type="line"/>
			<point x="159" y="443" type="line"/>
			<point x="-7" y="629" type="line"/>
			<point x="-77" y="629" type="line"/>
		</contour>
		<contour>
			<point x="-74" y="0" type="line"/>
			<point x="-4" y="0" type="line"/>
			<point x="160" y="186" type="line"/>
			<point x="600" y="186" type="line"/>
			<point x="600" y="237" type="line"/>
			<point x="137" y="237" type="line"/>
		</contour>
	</outline>
</glyph>
<glyph name="greater_greater_equal.rem" format="2">
	<advance width="600"/>
	<outline>
		<contour>
			<point x="-1089" y="0" type="line"/>
			<point x="-1019" y="0" type="line"/>
			<point x="-735" y="313" type="line"/>
			<point x="-1022" y="629" type="line"/>
			<point x="-1092" y="629" type="line"/>
			<point x="-803" y="313" type="line"/>
		</contour>
		<contour>
			<point x="-504" y="392" type="line"/>
			<point x="420" y="392" type="line"/>
			<point x="420" y="443" type="line"/>
			<point x="-481" y="443" type="line"/>
			<point x="-647" y="629" type="line"/>
			<point x="-717" y="629" type="line"/>
		</contour>
		<contour>
			<point x="-714" y="0" type="line"/>
			<point x="-644" y="0" type="line"/>
			<point x="-480" y="186" type="line"/>
			<point x="420" y="186" type="line"/>
			<point x="420" y="237" type="line"/>
			<point x="-503" y="237" type="line"/>
		</contour>
	</outline>
</glyph>
<glyph name="greater_hyphen.fina" format="2">
	<advance width="600"/>
	<outline>
		<contour>
			<point x="152" y="629" type="line"/>
			<point x="419" y="340" type="line"/>
			<point x="0" y="340" type="line"/>
			<point x="0" y="289" type="line"/>
			<point x="420" y="289" type="line"/>
			<point x="156" y="0" type="line"/>
			<point x="226" y="0" type="line"/>
			<point x="510" y="314" type="line"/>
			<point x="223" y="629" type="line"/>
		</contour>
	</outline>
</glyph>
<glyph name="greater_hyphen.init" format="2">
	<advance width="600"/>
	<outline>
		<contour>
			<point x="91" y="0" type="line"/>
			<point x="161" y="0" type="line"/>
			<point x="421" y="289" type="line"/>
			<point x="600" y="289" type="line"/>
			<point x="600" y="340" type="line"/>
			<point x="419" y="340" type="line"/>
			<point x="158" y="629" type="line"/>
			<point x="88" y="629" type="line"/>
			<point x="375" y="313" type="line"/>
		</contour>
	</outline>
</glyph>
<glyph name="hyphen.init" format="2">
	<advance width="600"/>
	<outline>
		<contour>
			<point x="180" y="289" type="line"/>
			<point x="600" y="289" type="line"/>
			<point x="600" y="340" type="line"/>
			<point x="180" y="340" type="line"/>
		</contour>
	</outline>
</glyph>
<glyph name="hyphen_braceright.rem" format="2">
	<advance width="600"/>
	<outline>
		<contour>
			<point x="27" y="-163" type="line"/>
			<point x="153" y="-163" type="line" smooth="yes"/>
			<point x="269" y="-163"/>
			<point x="319" y="-103"/>
			<point x="319" y="-24" type="curve" smooth="yes"/>
			<point x="319" y="70"/>
			<point x="207" y="143"/>
			<point x="207" y="216" type="curve" smooth="yes"/>
			<point x="207" y="246"/>
			<point x="226" y="287"/>
			<point x="296" y="287" type="curve" smooth="yes"/>
			<point x="365" y="287" type="line"/>
			<point x="365" y="341" type="line"/>
			<point x="296" y="341" type="line" smooth="yes"/>
			<point x="226" y="341"/>
			<point x="207" y="382"/>
			<point x="207" y="412" type="curve" smooth="yes"/>
			<point x="207" y="485"/>
			<point x="319" y="556"/>
			<point x="319" y="654" type="curve" smooth="yes"/>
			<point x="319" y="731"/>
			<point x="260" y="792"/>
			<point x="153" y="792" type="curve" smooth="yes"/>
			<point x="27" y="792" type="line"/>
			<point x="27" y="748" type="line"/>
			<point x="148" y="748" type="line" smooth="yes"/>
			<point x="216" y="748"/>
			<point x="265" y="719"/>
			<point x="265" y="654" type="curve" smooth="yes"/>
			<point x="265" y="571"/>
			<point x="154" y="509"/>
			<point x="154" y="417" type="curve" smooth="yes"/>
			<point x="154" y="379"/>
			<point x="175" y="352"/>
			<point x="206" y="338" type="curve"/>
			<point x="-420" y="338" type="line"/>
			<point x="-420" y="291" type="line"/>
			<point x="209" y="291" type="line"/>
			<point x="176" y="278"/>
			<point x="154" y="250"/>
			<point x="154" y="211" type="curve" smooth="yes"/>
			<point x="154" y="116"/>
			<point x="265" y="57"/>
			<point x="265" y="-24" type="curve" smooth="yes"/>
			<point x="265" y="-90"/>
			<point x="218" y="-119"/>
			<point x="148" y="-119" type="curve" smooth="yes"/>
			<point x="27" y="-119" type="line"/>
		</contour>
	</outline>
</glyph>
<glyph name="hyphen_greater_greater.rem" format="2">
	<advance width="600"/>
	<outline>
		<contour>
			<point x="96" y="0" type="line"/>
			<point x="166" y="0" type="line"/>
			<point x="450" y="313" type="line"/>
			<point x="163" y="629" type="line"/>
			<point x="93" y="629" type="line"/>
			<point x="382" y="313" type="line"/>
		</contour>
		<contour>
			<point x="-1040" y="289" type="line"/>
			<point x="-53" y="289" type="line"/>
			<point x="-317" y="0" type="line"/>
			<point x="-247" y="0" type="line"/>
			<point x="37" y="314" type="line"/>
			<point x="-250" y="629" type="line"/>
			<point x="-321" y="629" type="line"/>
			<point x="-54" y="340" type="line"/>
			<point x="-1040" y="340" type="line"/>
		</contour>
	</outline>
</glyph>
<glyph name="hyphen_less_less.rem" format="2">
	<advance width="600"/>
	<outline>
		<contour>
			<point x="449" y="629" type="line"/>
			<point x="378" y="629" type="line"/>
			<point x="94" y="315" type="line"/>
			<point x="381" y="0" type="line"/>
			<point x="452" y="0" type="line"/>
			<point x="161" y="315" type="line"/>
		</contour>
		<contour>
			<point x="76" y="629" type="line"/>
			<point x="6" y="629" type="line"/>
			<point x="-254" y="340" type="line"/>
			<point x="-1080" y="340" type="line"/>
			<point x="-1080" y="289" type="line"/>
			<point x="-252" y="289" type="line"/>
			<point x="9" y="0" type="line"/>
			<point x="79" y="0" type="line"/>
			<point x="-208" y="316" type="line"/>
		</contour>
	</outline>
</glyph>
<glyph name="less_asciitilde_asciitilde.cLig" format="2">
	<advance width="600"/>
	<outline>
		<contour>
			<point x="-717" y="0" type="line"/>
			<point x="-984" y="289" type="line"/>
			<point x="-578" y="289" type="line"/>
			<point x="-553" y="243"/>
			<point x="-513" y="216"/>
			<point x="-462" y="216" type="curve" smooth="yes"/>
			<point x="-344" y="216"/>
			<point x="-347" y="360"/>
			<point x="-258" y="360" type="curve" smooth="yes"/>
			<point x="-175" y="360"/>
			<point x="-169" y="218"/>
			<point x="-52" y="218" type="curve" smooth="yes"/>
			<point x="66" y="218"/>
			<point x="70" y="361"/>
			<point x="149" y="361" type="curve"/>
			<point x="233" y="361"/>
			<point x="235" y="217"/>
			<point x="360" y="217" type="curve" smooth="yes"/>
			<point x="443" y="217"/>
			<point x="495" y="280"/>
			<point x="510" y="385" type="curve"/>
			<point x="457" y="385" type="line"/>
			<point x="447" y="306"/>
			<point x="409" y="268"/>
			<point x="361" y="268" type="curve" smooth="yes"/>
			<point x="271" y="268"/>
			<point x="267" y="411"/>
			<point x="150" y="411" type="curve"/>
			<point x="35" y="411"/>
			<point x="37" y="268"/>
			<point x="-50" y="268" type="curve" smooth="yes"/>
			<point x="-135" y="268"/>
			<point x="-140" y="411"/>
			<point x="-254" y="411" type="curve" smooth="yes"/>
			<point x="-378" y="411"/>
			<point x="-370" y="266"/>
			<point x="-459" y="266" type="curve" smooth="yes"/>
			<point x="-500" y="266"/>
			<point x="-529" y="293"/>
			<point x="-545" y="340" type="curve"/>
			<point x="-985" y="340" type="line"/>
			<point x="-721" y="629" type="line"/>
			<point x="-791" y="629" type="line"/>
			<point x="-1075" y="315" type="line"/>
			<point x="-788" y="0" type="line"/>
		</contour>
	</outline>
	<guideline x="457" y="385" angle="0" identifier="IPZMHWA8w1"/>
</glyph>
<glyph name="less_asterisk.cLig" format="2">
	<advance width="600"/>
	<outline>
		<contour>
			<point x="-60" y="-3" type="line"/>
			<point x="-60" y="59" type="line"/>
			<point x="-454" y="314" type="line"/>
			<point x="-60" y="568" type="line"/>
			<point x="-60" y="631" type="line"/>
			<point x="-500" y="343" type="line"/>
			<point x="-500" y="284" type="line"/>
		</contour>
		<contour>
			<point x="438" y="168" type="line"/>
			<point x="470" y="224" type="line"/>
			<point x="289" y="313" type="line"/>
			<point x="470" y="403" type="line"/>
			<point x="438" y="459" type="line"/>
			<point x="270" y="347" type="line"/>
			<point x="282" y="548" type="line"/>
			<point x="218" y="548" type="line"/>
			<point x="231" y="346" type="line"/>
			<point x="61" y="458" type="line"/>
			<point x="29" y="403" type="line"/>
			<point x="211" y="313" type="line"/>
			<point x="30" y="223" type="line"/>
			<point x="62" y="167" type="line"/>
			<point x="231" y="279" type="line"/>
			<point x="219" y="77" type="line"/>
			<point x="283" y="77" type="line"/>
			<point x="270" y="279" type="line"/>
		</contour>
	</outline>
</glyph>
<glyph name="less_bar_greater.cLig" format="2">
	<advance width="600"/>
	<outline>
		<contour>
			<point x="-326" y="-162" type="line"/>
			<point x="-274" y="-162" type="line"/>
			<point x="-274" y="792" type="line"/>
			<point x="-326" y="792" type="line"/>
		</contour>
		<contour>
			<point x="-491" y="-78" type="line"/>
			<point x="-491" y="-16" type="line"/>
			<point x="-1001" y="315" type="line"/>
			<point x="-491" y="646" type="line"/>
			<point x="-491" y="708" type="line"/>
			<point x="-1050" y="343" type="line"/>
			<point x="-1050" y="286" type="line"/>
		</contour>
		<contour>
			<point x="-109" y="-78" type="line"/>
			<point x="450" y="286" type="line"/>
			<point x="450" y="343" type="line"/>
			<point x="-109" y="708" type="line"/>
			<point x="-109" y="646" type="line"/>
			<point x="401" y="315" type="line"/>
			<point x="-109" y="-16" type="line"/>
		</contour>
	</outline>
	<guideline x="-491" y="658" angle="90"/>
</glyph>
<glyph name="less_equal.rem" format="2">
	<advance width="600"/>
	<outline>
		<contour>
			<point x="477" y="629" type="line"/>
			<point x="407" y="629" type="line"/>
			<point x="243" y="443" type="line"/>
			<point x="-450" y="443" type="line"/>
			<point x="-450" y="392" type="line"/>
			<point x="266" y="392" type="line"/>
		</contour>
		<contour>
			<point x="267" y="237" type="line"/>
			<point x="-450" y="237" type="line"/>
			<point x="-450" y="186" type="line"/>
			<point x="244" y="186" type="line"/>
			<point x="410" y="0" type="line"/>
			<point x="480" y="0" type="line"/>
		</contour>
	</outline>
</glyph>
<glyph name="less_equal_equal.rem" format="2">
	<advance width="600"/>
	<outline>
		<contour>
			<point x="420" y="443" type="line"/>
			<point x="-887" y="443" type="line"/>
			<point x="-717" y="629" type="line"/>
			<point x="-786" y="629" type="line"/>
			<point x="-1070" y="316" type="line"/>
			<point x="-783" y="0" type="line"/>
			<point x="-714" y="0" type="line"/>
			<point x="-884" y="186" type="line"/>
			<point x="420" y="186" type="line"/>
			<point x="420" y="237" type="line"/>
			<point x="-931" y="237" type="line"/>
			<point x="-1003" y="316" type="line"/>
			<point x="-933" y="392" type="line"/>
			<point x="420" y="392" type="line"/>
		</contour>
	</outline>
</glyph>
<glyph name="less_equal_greater.rem" format="2">
	<advance width="600"/>
	<outline>
		<contour>
			<point x="-717" y="629" type="line"/>
			<point x="-786" y="629" type="line"/>
			<point x="-1070" y="316" type="line"/>
			<point x="-783" y="0" type="line"/>
			<point x="-714" y="0" type="line"/>
			<point x="-884" y="186" type="line"/>
			<point x="284" y="186" type="line"/>
			<point x="114" y="0" type="line"/>
			<point x="183" y="0" type="line"/>
			<point x="470" y="316" type="line"/>
			<point x="186" y="629" type="line"/>
			<point x="117" y="629" type="line"/>
			<point x="287" y="443" type="line"/>
			<point x="-887" y="443" type="line"/>
		</contour>
		<contour>
			<point x="403" y="316" type="line"/>
			<point x="331" y="237" type="line"/>
			<point x="-931" y="237" type="line"/>
			<point x="-1003" y="316" type="line"/>
			<point x="-933" y="392" type="line"/>
			<point x="333" y="392" type="line"/>
		</contour>
	</outline>
</glyph>
<glyph name="less_equal_less.rem" format="2">
	<advance width="600"/>
	<outline>
		<contour>
			<point x="242" y="237" type="line"/>
			<point x="-946" y="237" type="line"/>
			<point x="-1018" y="316" type="line"/>
			<point x="-948" y="392" type="line"/>
			<point x="241" y="392" type="line"/>
			<point x="452" y="629" type="line"/>
			<point x="382" y="629" type="line"/>
			<point x="218" y="443" type="line"/>
			<point x="-902" y="443" type="line"/>
			<point x="-732" y="629" type="line"/>
			<point x="-801" y="629" type="line"/>
			<point x="-1085" y="316" type="line"/>
			<point x="-798" y="0" type="line"/>
			<point x="-729" y="0" type="line"/>
			<point x="-899" y="186" type="line"/>
			<point x="219" y="186" type="line"/>
			<point x="385" y="0" type="line"/>
			<point x="455" y="0" type="line"/>
		</contour>
	</outline>
</glyph>
<glyph name="less_hyphen.rem" format="2">
	<advance width="600"/>
	<outline>
		<contour>
			<point x="-62" y="0" type="line"/>
			<point x="-329" y="289" type="line"/>
			<point x="420" y="289" type="line"/>
			<point x="420" y="340" type="line"/>
			<point x="-330" y="340" type="line"/>
			<point x="-66" y="629" type="line"/>
			<point x="-136" y="629" type="line"/>
			<point x="-420" y="315" type="line"/>
			<point x="-133" y="0" type="line"/>
		</contour>
	</outline>
</glyph>
<glyph name="less_less_equal.rem" format="2">
	<advance width="600"/>
	<outline>
		<contour>
			<point x="-698" y="629" type="line"/>
			<point x="-768" y="629" type="line"/>
			<point x="-1055" y="315" type="line"/>
			<point x="-766" y="0" type="line"/>
			<point x="-695" y="0" type="line"/>
			<point x="-986" y="315" type="line"/>
		</contour>
		<contour>
			<point x="420" y="443" type="line"/>
			<point x="-502" y="443" type="line"/>
			<point x="-332" y="629" type="line"/>
			<point x="-401" y="629" type="line"/>
			<point x="-685" y="316" type="line"/>
			<point x="-398" y="0" type="line"/>
			<point x="-329" y="0" type="line"/>
			<point x="-499" y="186" type="line"/>
			<point x="420" y="186" type="line"/>
			<point x="420" y="237" type="line"/>
			<point x="-546" y="237" type="line"/>
			<point x="-618" y="316" type="line"/>
			<point x="-548" y="392" type="line"/>
			<point x="420" y="392" type="line"/>
		</contour>
	</outline>
</glyph>
<glyph name="less_less_hyphen.fina" format="2">
	<advance width="600"/>
	<outline>
		<contour>
			<point x="509" y="629" type="line"/>
			<point x="438" y="629" type="line"/>
			<point x="154" y="315" type="line"/>
			<point x="441" y="0" type="line"/>
			<point x="512" y="0" type="line"/>
			<point x="221" y="315" type="line"/>
		</contour>
		<contour>
			<point x="136" y="629" type="line"/>
			<point x="66" y="629" type="line"/>
			<point x="-194" y="340" type="line"/>
			<point x="-600" y="340" type="line"/>
			<point x="-600" y="289" type="line"/>
			<point x="-192" y="289" type="line"/>
			<point x="69" y="0" type="line"/>
			<point x="139" y="0" type="line"/>
			<point x="-148" y="316" type="line"/>
		</contour>
	</outline>
</glyph>
<glyph name="less_less_hyphen.init" format="2">
	<advance width="600"/>
	<outline>
		<contour>
			<point x="-113" y="629" type="line"/>
			<point x="-183" y="629" type="line"/>
			<point x="-471" y="315" type="line"/>
			<point x="-180" y="0" type="line"/>
			<point x="-110" y="0" type="line"/>
			<point x="-400" y="315" type="line"/>
		</contour>
		<contour>
			<point x="600" y="340" type="line"/>
			<point x="-9" y="340" type="line"/>
			<point x="255" y="629" type="line"/>
			<point x="185" y="629" type="line"/>
			<point x="-99" y="315" type="line"/>
			<point x="188" y="0" type="line"/>
			<point x="259" y="0" type="line"/>
			<point x="-8" y="289" type="line"/>
			<point x="600" y="289" type="line"/>
		</contour>
	</outline>
</glyph>
<glyph name="less_less_hyphen_greater_greater.rem" format="2">
	<advance width="600"/>
	<outline>
		<contour>
			<point x="-1316" y="0" type="line"/>
			<point x="-1602" y="313" type="line"/>
			<point x="-1313" y="629" type="line"/>
			<point x="-1383" y="629" type="line"/>
			<point x="-1670" y="313" type="line"/>
			<point x="-1386" y="0" type="line"/>
		</contour>
		<contour>
			<point x="-899" y="629" type="line"/>
			<point x="-970" y="629" type="line"/>
			<point x="-1257" y="314" type="line"/>
			<point x="-973" y="0" type="line"/>
			<point x="-903" y="0" type="line"/>
			<point x="-1167" y="289" type="line"/>
			<point x="-33" y="289" type="line"/>
			<point x="-297" y="0" type="line"/>
			<point x="-227" y="0" type="line"/>
			<point x="57" y="314" type="line"/>
			<point x="-230" y="629" type="line"/>
			<point x="-301" y="629" type="line"/>
			<point x="-34" y="340" type="line"/>
			<point x="-1166" y="340" type="line"/>
		</contour>
		<contour>
			<point x="116" y="0" type="line"/>
			<point x="186" y="0" type="line"/>
			<point x="470" y="313" type="line"/>
			<point x="183" y="629" type="line"/>
			<point x="113" y="629" type="line"/>
			<point x="402" y="313" type="line"/>
		</contour>
	</outline>
</glyph>
<glyph name="less_plus.cLig" format="2">
	<advance width="600"/>
	<outline>
		<contour>
			<point x="-40" y="-3" type="line"/>
			<point x="-40" y="59" type="line"/>
			<point x="-434" y="314" type="line"/>
			<point x="-40" y="568" type="line"/>
			<point x="-40" y="631" type="line"/>
			<point x="-480" y="343" type="line"/>
			<point x="-480" y="284" type="line"/>
		</contour>
		<contour>
			<point x="224" y="536" type="line"/>
			<point x="224" y="339" type="line"/>
			<point x="30" y="339" type="line"/>
			<point x="30" y="288" type="line"/>
			<point x="224" y="288" type="line"/>
			<point x="224" y="90" type="line"/>
			<point x="275" y="90" type="line"/>
			<point x="275" y="288" type="line"/>
			<point x="470" y="288" type="line"/>
			<point x="470" y="339" type="line"/>
			<point x="275" y="339" type="line"/>
			<point x="275" y="536" type="line"/>
		</contour>
	</outline>
</glyph>
<glyph name="less_plus_greater.cLig" format="2">
	<advance width="600"/>
	<outline>
		<contour>
			<point x="40" y="-3" type="line"/>
			<point x="480" y="284" type="line"/>
			<point x="480" y="343" type="line"/>
			<point x="40" y="631" type="line"/>
			<point x="40" y="568" type="line"/>
			<point x="434" y="314" type="line"/>
			<point x="40" y="59" type="line"/>
		</contour>
		<contour>
			<point x="-640" y="-3" type="line"/>
			<point x="-640" y="59" type="line"/>
			<point x="-1034" y="314" type="line"/>
			<point x="-640" y="568" type="line"/>
			<point x="-640" y="631" type="line"/>
			<point x="-1080" y="343" type="line"/>
			<point x="-1080" y="284" type="line"/>
		</contour>
		<contour>
			<point x="-326" y="536" type="line"/>
			<point x="-326" y="339" type="line"/>
			<point x="-520" y="339" type="line"/>
			<point x="-520" y="288" type="line"/>
			<point x="-326" y="288" type="line"/>
			<point x="-326" y="90" type="line"/>
			<point x="-275" y="90" type="line"/>
			<point x="-275" y="288" type="line"/>
			<point x="-80" y="288" type="line"/>
			<point x="-80" y="339" type="line"/>
			<point x="-275" y="339" type="line"/>
			<point x="-275" y="536" type="line"/>
		</contour>
	</outline>
</glyph>
<glyph name="less_question.cLig" format="2">
	<advance width="600"/>
	<outline>
		<contour>
			<point x="-94" y="512" type="line" smooth="yes"/>
			<point x="64" y="609"/>
			<point x="162" y="648"/>
			<point x="249" y="648" type="curve"/>
			<point x="341" y="648"/>
			<point x="391" y="609"/>
			<point x="391" y="542" type="curve" smooth="yes"/>
			<point x="391" y="410"/>
			<point x="191" y="405"/>
			<point x="191" y="226" type="curve" smooth="yes"/>
			<point x="191" y="212"/>
			<point x="192" y="196"/>
			<point x="193" y="182" type="curve"/>
			<point x="241" y="182" type="line"/>
			<point x="242" y="235" type="line" smooth="yes"/>
			<point x="245" y="380"/>
			<point x="447" y="393"/>
			<point x="447" y="546" type="curve" smooth="yes"/>
			<point x="447" y="639"/>
			<point x="378" y="698"/>
			<point x="252" y="698" type="curve"/>
			<point x="142" y="698"/>
			<point x="37" y="649"/>
			<point x="-94" y="569" type="curve" smooth="yes"/>
			<point x="-466" y="343" type="line"/>
			<point x="-466" y="284" type="line"/>
			<point x="-50" y="25" type="line"/>
			<point x="-50" y="86" type="line"/>
			<point x="-419" y="313" type="line"/>
		</contour>
		<contour>
			<point x="219" y="-12" type="curve" smooth="yes"/>
			<point x="254" y="-12"/>
			<point x="272" y="2"/>
			<point x="272" y="36" type="curve" smooth="yes"/>
			<point x="272" y="70"/>
			<point x="254" y="84"/>
			<point x="219" y="84" type="curve" smooth="yes"/>
			<point x="184" y="84"/>
			<point x="166" y="70"/>
			<point x="166" y="36" type="curve" smooth="yes"/>
			<point x="166" y="2"/>
			<point x="184" y="-12"/>
		</contour>
	</outline>
</glyph>
<glyph name="less_slash.cLig" format="2">
	<advance width="600"/>
	<outline>
		<contour>
			<point x="-60" y="569" type="line"/>
			<point x="-500" y="344" type="line"/>
			<point x="-500" y="285" type="line"/>
			<point x="99" y="-21" type="line"/>
			<point x="40" y="-163" type="line"/>
			<point x="96" y="-163" type="line"/>
			<point x="490" y="792" type="line"/>
			<point x="433" y="792" type="line"/>
			<point x="119" y="28" type="line"/>
			<point x="-448" y="315" type="line"/>
			<point x="-60" y="510" type="line"/>
		</contour>
	</outline>
</glyph>
<glyph name="less_slash_greater.cLig" format="2">
	<advance width="600"/>
	<outline>
		<contour>
			<point x="25" y="60" type="line"/>
			<point x="465" y="285" type="line"/>
			<point x="465" y="344" type="line"/>
			<point x="-133" y="649" type="line"/>
			<point x="-74" y="792" type="line"/>
			<point x="-131" y="792" type="line"/>
			<point x="-446" y="27" type="line"/>
			<point x="-1013" y="314" type="line"/>
			<point x="-625" y="509" type="line"/>
			<point x="-625" y="568" type="line"/>
			<point x="-1065" y="343" type="line"/>
			<point x="-1065" y="284" type="line"/>
			<point x="-466" y="-21" type="line"/>
			<point x="-524" y="-163" type="line"/>
			<point x="-468" y="-163" type="line"/>
			<point x="-153" y="600" type="line"/>
			<point x="413" y="314" type="line"/>
			<point x="25" y="119" type="line"/>
		</contour>
	</outline>
</glyph>
<glyph name="lslashcomb" format="2">
	<advance width="600"/>
	<outline>
		<contour>
			<point x="40" y="393" type="line"/>
			<point x="448" y="554" type="line"/>
			<point x="448" y="604" type="line"/>
			<point x="40" y="443" type="line"/>
		</contour>
	</outline>
	<anchor name="_center" x="241" y="498"/>
	<guideline x="448" y="628" angle="207.1947"/>
</glyph>
<glyph name="macron.cap" format="2">
	<advance width="600"/>
	<outline>
		<contour>
			<point x="176" y="778" type="line"/>
			<point x="424" y="778" type="line"/>
			<point x="424" y="822" type="line"/>
			<point x="176" y="822" type="line"/>
		</contour>
	</outline>
	<anchor name="_top" x="300" y="684"/>
</glyph>
<glyph name="minus.den" format="2">
	<advance width="600"/>
	<outline>
		<contour>
			<point x="152" y="207" type="line"/>
			<point x="152" y="169" type="line"/>
			<point x="448" y="169" type="line"/>
			<point x="448" y="207" type="line"/>
		</contour>
	</outline>
</glyph>
<glyph name="nine.den" format="2">
	<advance width="600"/>
	<outline>
		<contour>
			<point x="280" y="-8" type="curve" smooth="yes"/>
			<point x="420" y="-8"/>
			<point x="449" y="108"/>
			<point x="449" y="220" type="curve" smooth="yes"/>
			<point x="449" y="329"/>
			<point x="423" y="418"/>
			<point x="296" y="418" type="curve" smooth="yes"/>
			<point x="205" y="418"/>
			<point x="151" y="357"/>
			<point x="151" y="274" type="curve" smooth="yes"/>
			<point x="151" y="201"/>
			<point x="191" y="145"/>
			<point x="284" y="145" type="curve" smooth="yes"/>
			<point x="341" y="145"/>
			<point x="381" y="172"/>
			<point x="401" y="224" type="curve"/>
			<point x="401" y="98"/>
			<point x="374" y="30"/>
			<point x="277" y="30" type="curve" smooth="yes"/>
			<point x="235" y="30"/>
			<point x="185" y="48"/>
			<point x="159" y="72" type="curve"/>
			<point x="159" y="28" type="line"/>
			<point x="184" y="9"/>
			<point x="233" y="-8"/>
		</contour>
		<contour>
			<point x="295" y="182" type="curve" smooth="yes"/>
			<point x="232" y="182"/>
			<point x="197" y="213"/>
			<point x="197" y="276" type="curve" smooth="yes"/>
			<point x="197" y="344"/>
			<point x="236" y="382"/>
			<point x="296" y="382" type="curve" smooth="yes"/>
			<point x="365" y="382"/>
			<point x="399" y="334"/>
			<point x="399" y="275" type="curve" smooth="yes"/>
			<point x="399" y="215"/>
			<point x="355" y="182"/>
		</contour>
	</outline>
</glyph>
<glyph name="numbersign.fina" format="2">
	<advance width="600"/>
	<outline>
		<contour>
			<point x="0" y="222" type="line"/>
			<point x="0" y="174" type="line"/>
			<point x="144" y="174" type="line"/>
			<point x="127" y="0" type="line"/>
			<point x="180" y="0" type="line"/>
			<point x="196" y="174" type="line"/>
			<point x="351" y="174" type="line"/>
			<point x="335" y="0" type="line"/>
			<point x="385" y="0" type="line"/>
			<point x="402" y="174" type="line"/>
			<point x="522" y="174" type="line"/>
			<point x="522" y="222" type="line"/>
			<point x="406" y="222" type="line"/>
			<point x="431" y="476" type="line"/>
			<point x="546" y="476" type="line"/>
			<point x="546" y="525" type="line"/>
			<point x="436" y="525" type="line"/>
			<point x="451" y="684" type="line"/>
			<point x="399" y="684" type="line"/>
			<point x="384" y="525" type="line"/>
			<point x="229" y="525" type="line"/>
			<point x="244" y="684" type="line"/>
			<point x="193" y="684" type="line"/>
			<point x="178" y="525" type="line"/>
			<point x="0" y="525" type="line"/>
			<point x="0" y="476" type="line"/>
			<point x="173" y="476" type="line"/>
			<point x="148" y="222" type="line"/>
		</contour>
		<contour>
			<point x="201" y="222" type="line"/>
			<point x="225" y="476" type="line"/>
			<point x="380" y="476" type="line"/>
			<point x="356" y="222" type="line"/>
		</contour>
	</outline>
</glyph>
<glyph name="numbersign.init" format="2">
	<advance width="600"/>
	<outline>
		<contour>
			<point x="54" y="222" type="line"/>
			<point x="54" y="174" type="line"/>
			<point x="164" y="174" type="line"/>
			<point x="147" y="0" type="line"/>
			<point x="200" y="0" type="line"/>
			<point x="216" y="174" type="line"/>
			<point x="371" y="174" type="line"/>
			<point x="355" y="0" type="line"/>
			<point x="405" y="0" type="line"/>
			<point x="422" y="174" type="line"/>
			<point x="600" y="174" type="line"/>
			<point x="600" y="222" type="line"/>
			<point x="426" y="222" type="line"/>
			<point x="451" y="476" type="line"/>
			<point x="600" y="476" type="line"/>
			<point x="600" y="525" type="line"/>
			<point x="456" y="525" type="line"/>
			<point x="471" y="684" type="line"/>
			<point x="419" y="684" type="line"/>
			<point x="404" y="525" type="line"/>
			<point x="249" y="525" type="line"/>
			<point x="264" y="684" type="line"/>
			<point x="213" y="684" type="line"/>
			<point x="198" y="525" type="line"/>
			<point x="78" y="525" type="line"/>
			<point x="78" y="476" type="line"/>
			<point x="193" y="476" type="line"/>
			<point x="168" y="222" type="line"/>
		</contour>
		<contour>
			<point x="221" y="222" type="line"/>
			<point x="245" y="476" type="line"/>
			<point x="400" y="476" type="line"/>
			<point x="376" y="222" type="line"/>
		</contour>
	</outline>
</glyph>
